<?xml version="1.0" encoding="UTF-8"?>
<!DOCTYPE svg PUBLIC "-//W3C//DTD SVG 1.1//EN" "http://www.w3.org/Graphics/SVG/1.1/DTD/svg11.dtd">
<!-- Creator: CorelDRAW X7 -->
<svg xmlns="http://www.w3.org/2000/svg" xml:space="preserve" width="12.6998mm" height="25.3998mm" version="1.1" style="shape-rendering:geometricPrecision; text-rendering:geometricPrecision; image-rendering:optimizeQuality; fill-rule:evenodd; clip-rule:evenodd"
viewBox="0 0 1270 2540"
 xmlns:xlink="http://www.w3.org/1999/xlink">
 <defs>
  <style type="text/css">
   <![CDATA[
    .str7 {stroke:#2B2A29;stroke-width:8.46}
    .str2 {stroke:black;stroke-width:8.46}
    .str6 {stroke:#EAA639;stroke-width:8.46}
    .str4 {stroke:#FFCA5F;stroke-width:8.46}
    .str0 {stroke:black;stroke-width:16.93}
    .str1 {stroke:black;stroke-width:20}
    .str5 {stroke:black;stroke-width:25.39}
    .str3 {stroke:black;stroke-width:7.62}
    .fil0 {fill:none}
    .fil3 {fill:#EAA639}
    .fil1 {fill:#FEFEFE}
    .fil2 {fill:#FFCA5F}
   ]]>
  </style>
 </defs>
 <g id="Слой_x0020_1">
  <metadata id="CorelCorpID_0Corel-Layer"/>
  <line class="fil0 str0" x1="-3545" y1="-461" x2="-3232" y2= "-160" />
  <line class="fil0 str1" x1="-3388" y1="-183" x2="-3092" y2= "113" />
  <path class="fil1 str0" d="M-3435 126c14,0 25,11 25,25 0,14 -11,25 -25,25 -14,0 -25,-11 -25,-25 0,-14 11,-25 25,-25z"/>
  <circle class="fil0 str1" cx="-2889" cy="-404" r="35"/>
  <path class="fil0 str2" d="M-3012 -128c0,21 0,33 0,33"/>
  <line class="fil0 str2" x1="-2995" y1="-112" x2="-3029" y2= "-112" />
  <polyline class="fil0 str3" points="-2483,-198 -2483,-192 -2483,-186 -2483,-192 -2489,-192 -2476,-192 "/>
  <polyline class="fil0 str2" points="-2491,-429 -2457,-391 -2419,-429 -2381,-391 -2347,-429 -2313,-391 -2275,-429 -2237,-391 -2203,-429 -2169,-391 -2131,-429 -2093,-391 -2059,-429 -2025,-391 -1987,-429 -1949,-391 -1915,-429 "/>
  <polyline class="fil0 str2" points="-2034,-514 -1987,-480 -1945,-514 -1898,-480 -1852,-514 -1809,-480 -1763,-514 -1716,-480 -1670,-514 "/>
  <ellipse class="fil2 str4" cx="-2796" cy="41" rx="138" ry="135"/>
  <line class="fil0 str2" x1="-3046" y1="4583" x2="-3046" y2= "4549" />
  <line class="fil0 str2" x1="-3063" y1="4566" x2="-3029" y2= "4566" />
  <path class="fil0 str0" d="M-2322 4100c0,-4 0,-51 0,-51"/>
  <line class="fil0 str0" x1="-2347" y1="4075" x2="-2296" y2= "4075" />
  <line class="fil0 str0" x1="-3363" y1="3998" x2="-3363" y2= "3948" />
  <line class="fil0 str0" x1="-3389" y1="3973" x2="-3338" y2= "3973" />
  <line class="fil0 str5" x1="-3215" y1="4231" x2="-3215" y2= "4130" />
  <line class="fil0 str5" x1="-3266" y1="4181" x2="-3164" y2= "4181" />
  <circle class="fil1 str0" cx="-3452" cy="4422" r="25"/>
  <line class="fil0 str0" x1="-2804" y1="3905" x2="-3346" y2= "4667" />
  <polyline class="fil0 str2" points="-2423,4422 -2419,4477 -2360,4481 -2356,4540 -2292,4545 -2292,4604 -2229,4608 -2229,4667 -2178,4676 "/>
  <polygon class="fil2 str4" points="-3259,3643 -3177,3709 -3096,3776 -3032,3697 -2968,3617 -3049,3551 -3131,3485 -3195,3564 "/>
  <polygon class="fil3 str6" points="-2696,4607 -2720,4538 -2743,4468 -2665,4488 -2588,4508 -2642,4558 "/>
  <polygon class="fil3 str6" points="-2915,4411 -2939,4341 -2962,4272 -2885,4292 -2807,4312 -2861,4362 "/>
  <polygon class="fil3 str6" points="-2806,4509 -2829,4440 -2853,4370 -2775,4390 -2698,4410 -2752,4460 "/>
  <polyline class="fil0 str7" points="5208,2458 5174,2420 5208,2373 5174,2327 5208,2284 5174,2238 5208,2191 5174,2149 5208,2102 "/>
  <polyline class="fil0 str2" points="5124,2221 5090,2183 5124,2149 5090,2115 5124,2077 5090,2039 5124,2005 5090,1971 5124,1933 5090,1895 5124,1861 5090,1827 5124,1789 5090,1751 5124,1717 5090,1683 5124,1645 "/>
  <line class="fil0 str2" x1="4885" y1="1642" x2="4885" y2= "1658" />
  <line class="fil0 str2" x1="4876" y1="1650" x2="4893" y2= "1650" />
  <circle class="fil1 str5" cx="5098" cy="1251" r="34"/>
  <path class="fil0 str2" d="M4806 1108c0,8 0,33 0,33"/>
  <line class="fil0 str2" x1="4823" y1="1124" x2="4789" y2= "1124" />
  <line class="fil0 str2" x1="4730" y1="-582" x2="4730" y2= "-548" />
  <line class="fil0 str2" x1="4747" y1="-565" x2="4713" y2= "-565" />
  <path class="fil0 str0" d="M4006 -99c0,4 0,51 0,51"/>
  <line class="fil0 str0" x1="4031" y1="-74" x2="3981" y2= "-74" />
  <line class="fil0 str0" x1="5047" y1="3" x2="5047" y2= "53" />
  <line class="fil0 str0" x1="5073" y1="28" x2="5022" y2= "28" />
  <line class="fil0 str5" x1="4899" y1="-230" x2="4899" y2= "-129" />
  <line class="fil0 str5" x1="4950" y1="-179" x2="4848" y2= "-179" />
  <circle class="fil1 str0" cx="4542" cy="703" r="25"/>
  <circle class="fil1 str0" cx="5136" cy="-421" r="25"/>
  <path class="fil0 str0" d="M4878 748c-174,173 -296,296 -296,296"/>
  <line class="fil0 str0" x1="4861" y1="892" x2="5157" y2= "595" />
  <line class="fil0 str0" x1="4489" y1="96" x2="5030" y2= "-666" />
  <polyline class="fil0 str2" points="4108,-421 4103,-476 4044,-480 4040,-539 3976,-543 3976,-603 3913,-607 3913,-666 3862,-675 "/>
  <polygon class="fil2 str4" points="4943,358 4862,292 4780,225 4716,305 4652,384 4734,450 4815,517 4879,437 "/>
  <circle class="fil2 str4" cx="4654" cy="1340" r="135"/>
  <polygon class="fil3 str6" points="4380,-606 4404,-536 4427,-467 4350,-487 4272,-507 4326,-557 "/>
  <polygon class="fil3 str6" points="4600,-410 4623,-340 4647,-270 4569,-291 4491,-311 4546,-360 "/>
  <polygon class="fil3 str6" points="4490,-508 4513,-439 4537,-369 4459,-389 4382,-409 4436,-459 "/>
  <line class="fil0 str0" x1="5128" y1="4544" x2="4815" y2= "4242" />
  <line class="fil0 str1" x1="4972" y1="4266" x2="4675" y2= "3970" />
  <path class="fil1 str0" d="M5018 3957c-14,0 -25,-11 -25,-25 0,-14 11,-26 25,-26 14,0 26,12 26,26 0,14 -12,25 -26,25z"/>
  <circle class="fil0 str1" cx="4472" cy="4486" r="35"/>
  <path class="fil0 str2" d="M4595 4211c0,-21 0,-34 0,-34"/>
  <line class="fil0 str2" x1="4578" y1="4194" x2="4612" y2= "4194" />
  <polyline class="fil0 str3" points="4066,4281 4066,4275 4066,4268 4066,4275 4072,4275 4059,4275 "/>
  <polyline class="fil0 str2" points="4074,4512 4040,4474 4002,4512 3964,4474 3930,4512 3896,4474 3858,4512 3820,4474 3786,4512 3752,4474 3714,4512 3676,4474 3642,4512 3608,4474 3570,4512 3532,4474 3498,4512 "/>
  <polyline class="fil0 str2" points="3617,4596 3570,4563 3528,4596 3481,4563 3435,4596 3393,4563 3346,4596 3299,4563 3253,4596 "/>
  <ellipse class="fil2 str4" cx="4379" cy="4042" rx="138" ry="135"/>
  <polyline class="fil0 str7" points="1012,2320 978,2282 1012,2236 978,2189 1012,2147 978,2100 1012,2054 978,2011 1012,1965 "/>
  <polyline class="fil0 str2" points="927,2083 893,2045 927,2011 893,1977 927,1939 893,1901 927,1867 893,1834 927,1795 893,1757 927,1723 893,1690 927,1652 893,1613 927,1580 893,1546 927,1508 "/>
  <line class="fil0 str2" x1="688" y1="1504" x2="688" y2= "1521" />
  <line class="fil0 str2" x1="680" y1="1512" x2="697" y2= "1512" />
  <circle class="fil1 str5" cx="902" cy="1114" r="34"/>
  <path class="fil0 str2" d="M610 970c0,8 0,34 0,34"/>
  <line class="fil0 str2" x1="627" y1="987" x2="593" y2= "987" />
  <line class="fil0 str2" x1="534" y1="-719" x2="534" y2= "-685" />
  <line class="fil0 str2" x1="551" y1="-702" x2="517" y2= "-702" />
  <path class="fil0 str0" d="M-190 -237c0,5 0,51 0,51"/>
  <line class="fil0 str0" x1="-165" y1="-211" x2="-216" y2= "-211" />
  <line class="fil0 str0" x1="851" y1="-135" x2="851" y2= "-84" />
  <line class="fil0 str0" x1="876" y1="-110" x2="826" y2= "-110" />
  <line class="fil0 str5" x1="703" y1="-368" x2="703" y2= "-266" />
  <line class="fil0 str5" x1="754" y1="-317" x2="652" y2= "-317" />
  <circle class="fil1 str0" cx="345" cy="566" r="25"/>
  <circle class="fil1 str0" cx="940" cy="-558" r="25"/>
  <path class="fil0 str0" d="M682 610c-174,174 -297,296 -297,296"/>
  <line class="fil0 str0" x1="665" y1="754" x2="961" y2= "458" />
  <line class="fil0 str0" x1="292" y1="-42" x2="834" y2= "-804" />
  <polyline class="fil0 str2" points="-89,-558 -93,-613 -152,-618 -156,-677 -220,-681 -220,-740 -283,-745 -283,-804 -334,-812 "/>
  <polygon class="fil2 str4" points="747,221 665,154 584,88 520,167 456,246 537,313 619,379 683,300 "/>
  <circle class="fil2 str4" cx="457" cy="1203" r="135"/>
  <polygon class="fil3 str6" points="184,-744 207,-674 231,-604 153,-624 76,-644 130,-694 "/>
  <polygon class="fil3 str6" points="403,-548 427,-478 450,-408 373,-428 295,-448 349,-498 "/>
  <polygon class="fil3 str6" points="294,-646 317,-576 340,-506 263,-526 185,-547 239,-596 "/>
 </g>
</svg>
