<svg xmlns="http://www.w3.org/2000/svg" width="313" height="25" viewBox="0 0 313 25">
  <defs>
    <style>
      .cls-1 {
        fill: #c03;
        fill-rule: evenodd;
      }
    </style>
  </defs>
  <path id="Ellipse_1_copy_7" data-name="Ellipse 1 copy 7" class="cls-1" d="M817.5,538A12.5,12.5,0,1,1,805,550.5,12.5,12.5,0,0,1,817.5,538Zm41,0A12.5,12.5,0,1,1,846,550.5,12.5,12.5,0,0,1,858.5,538Zm41,0A12.5,12.5,0,1,1,887,550.5,12.5,12.5,0,0,1,899.5,538Zm41,0A12.5,12.5,0,1,1,928,550.5,12.5,12.5,0,0,1,940.5,538Zm41,0A12.5,12.5,0,1,1,969,550.5,12.5,12.5,0,0,1,981.5,538Zm41,0a12.5,12.5,0,1,1-12.5,12.5A12.5,12.5,0,0,1,1022.5,538Zm41,0a12.5,12.5,0,1,1-12.5,12.5A12.5,12.5,0,0,1,1063.5,538Zm42,0a12.5,12.5,0,1,1-12.5,12.5A12.5,12.5,0,0,1,1105.5,538Z" transform="translate(-805 -538)"/>
</svg>
