<?xml version="1.0" encoding="UTF-8"?>
<!DOCTYPE svg PUBLIC "-//W3C//DTD SVG 1.1//EN" "http://www.w3.org/Graphics/SVG/1.1/DTD/svg11.dtd">
<!-- Creator: CorelDRAW X7 -->
<svg xmlns="http://www.w3.org/2000/svg" xml:space="preserve" width="16.9332mm" height="16.9332mm" version="1.1" style="shape-rendering:geometricPrecision; text-rendering:geometricPrecision; image-rendering:optimizeQuality; fill-rule:evenodd; clip-rule:evenodd"
viewBox="0 0 1693 1693"
 xmlns:xlink="http://www.w3.org/1999/xlink">
 <defs>
  <style type="text/css">
   <![CDATA[
    .str8 {stroke:#2B2A29;stroke-width:8.46}
    .str4 {stroke:black;stroke-width:8.46}
    .str13 {stroke:#180A21;stroke-width:8.46}
    .str10 {stroke:#CC0033;stroke-width:8.46}
    .str11 {stroke:#CC0033;stroke-width:8.46}
    .str7 {stroke:#EAA639;stroke-width:8.46}
    .str9 {stroke:#F7931E;stroke-width:8.46}
    .str0 {stroke:#FCBF51;stroke-width:8.46}
    .str1 {stroke:#FFCA5F;stroke-width:8.46}
    .str12 {stroke:#180A21;stroke-width:42.33}
    .str2 {stroke:black;stroke-width:16.93}
    .str3 {stroke:black;stroke-width:20}
    .str6 {stroke:black;stroke-width:25.39}
    .str5 {stroke:black;stroke-width:7.62}
    .fil2 {fill:none}
    .fil7 {fill:#180A21}
    .fil6 {fill:#CC0033}
    .fil3 {fill:#EAA639}
    .fil4 {fill:#F7931E}
    .fil0 {fill:#FCBF51}
    .fil1 {fill:#FFCA5F}
    .fil5 {fill:black;fill-rule:nonzero}
   ]]>
  </style>
 </defs>
 <g id="Слой_x0020_1">
  <metadata id="CorelCorpID_0Corel-Layer"/>
  <path class="fil0 str0" d="M815 7104l844 -489c85,149 130,317 130,489 0,540 -436,978 -974,978 -538,0 -975,-438 -975,-978 0,-540 437,-978 975,-978l0 978z"/>
  <path class="fil1 str1" d="M815 6370l-22 17 -17 11c0,0 0,0 -17,0 -17,0 -46,-30 -51,-34 -4,-4 -12,-25 -25,-25 -13,0 -30,13 -42,25 -13,13 -17,17 -34,26 -17,8 -5,8 -21,8 -17,0 -56,-51 -77,-34 -21,17 -29,51 -25,64 4,12 -4,51 0,76 4,25 13,21 13,34 0,12 -17,63 -26,72 -8,8 -29,29 -46,38 -17,8 -17,8 -30,8 -13,0 -55,-25 -68,-46 -12,-21 -38,-60 -51,-68 -12,-7 -24,-7 -29,-4l-9 4c0,0 -43,18 -46,59 -4,41 -4,55 -4,55l0 60c7,7 46,45 46,50 0,5 0,17 -4,22 -4,4 -31,23 -42,33 -12,10 -22,30 -21,37 2,8 -1,18 16,40 17,21 64,72 77,84 12,13 29,38 33,51 11,32 1,88 -17,114 -16,26 -46,51 -67,60 -21,8 -56,2 -76,0 -21,-3 -65,-13 -77,-13 -11,0 -34,8 -34,25 0,17 26,43 47,55 21,13 51,43 55,68 4,26 -1,36 4,42 5,7 41,-3 64,9 23,12 29,17 34,30 4,12 -30,114 -38,122 -9,9 4,30 12,38 9,9 21,22 55,26 34,4 77,4 93,13 17,8 34,33 30,55 -5,22 -11,53 -13,76 -1,22 13,63 60,63 46,0 55,-29 89,-46 33,-17 66,-15 84,0 18,14 30,28 26,59 -5,31 -26,42 -38,55 -13,13 -13,17 -9,21 4,4 17,7 30,6 14,-1 28,-11 56,-19 28,-8 45,-8 62,-25 17,-17 43,-30 59,-30 17,0 47,7 60,28 12,22 21,44 29,53 9,8 22,-4 26,-9 4,-4 14,-20 17,-46 2,-26 -6,-96 -9,-117 -3,-20 -12,-61 13,-103 25,-43 71,-48 93,-47 22,1 85,21 106,42 21,22 42,68 46,98 5,29 5,63 22,76 17,13 38,13 55,4 17,-8 29,-17 34,-42 4,-25 0,-64 4,-85 4,-20 17,-42 34,-46 17,-5 38,25 63,25 26,0 30,-25 34,-46 4,-22 -17,-56 -30,-68 -12,-13 -59,-59 -63,-76 -4,-17 1,-27 4,-30 3,-3 17,-17 30,-17 12,0 51,0 63,0 13,0 55,0 72,-8 17,-9 46,-30 59,-47 14,-17 41,-72 43,-106 1,-34 -25,-55 -38,-72 -13,-17 -48,-48 -52,-83 -4,-35 1,-65 26,-86 26,-21 58,-26 68,-42 10,-17 -6,-45 -25,-51 -19,-7 -49,-29 -57,-40 -9,-11 -10,-45 2,-58 22,-24 48,-42 82,-42 13,0 28,0 28,-8 0,-9 -13,-30 -17,-34 -4,-5 -13,-26 -17,-43 -4,-17 -4,-29 -4,-34 0,-4 -7,-11 -4,-11l-766 474 0 -770z"/>
  <line class="fil2 str2" x1="-3597" y1="-4215" x2="-3283" y2= "-3913" />
  <line class="fil2 str3" x1="-3440" y1="-3937" x2="-3144" y2= "-3641" />
  <path class="fil2 str2" d="M-3487 -3628c14,0 26,11 26,25 0,14 -12,26 -26,26 -14,0 -25,-12 -25,-26 0,-14 11,-25 25,-25z"/>
  <circle class="fil2 str3" cx="-2941" cy="-4157" r="35"/>
  <path class="fil2 str4" d="M-3063 -3882c0,21 0,34 0,34"/>
  <line class="fil2 str4" x1="-3046" y1="-3865" x2="-3080" y2= "-3865" />
  <polyline class="fil2 str5" points="-2534,-3952 -2534,-3946 -2534,-3939 -2534,-3946 -2541,-3946 -2528,-3946 "/>
  <polyline class="fil2 str4" points="-2543,-4183 -2509,-4145 -2471,-4183 -2433,-4145 -2399,-4183 -2365,-4145 -2327,-4183 -2289,-4145 -2255,-4183 -2221,-4145 -2183,-4183 -2145,-4145 -2111,-4183 -2077,-4145 -2039,-4183 -2001,-4145 -1967,-4183 "/>
  <polyline class="fil2 str4" points="-2085,-4267 -2039,-4234 -1997,-4267 -1950,-4234 -1903,-4267 -1861,-4234 -1815,-4267 -1768,-4234 -1721,-4267 "/>
  <ellipse class="fil1 str1" cx="-2847" cy="-3713" rx="138" ry="135"/>
  <line class="fil2 str4" x1="627" y1="1354" x2="627" y2= "1320" />
  <line class="fil2 str4" x1="610" y1="1337" x2="644" y2= "1337" />
  <path class="fil2 str2" d="M1351 872c0,-4 0,-51 0,-51"/>
  <line class="fil2 str2" x1="1326" y1="846" x2="1376" y2= "846" />
  <line class="fil2 str2" x1="310" y1="770" x2="310" y2= "719" />
  <line class="fil2 str2" x1="284" y1="745" x2="335" y2= "745" />
  <line class="fil2 str6" x1="458" y1="1003" x2="458" y2= "901" />
  <line class="fil2 str6" x1="407" y1="952" x2="509" y2= "952" />
  <circle class="fil2 str2" cx="221" cy="1193" r="25"/>
  <line class="fil2 str2" x1="868" y1="677" x2="327" y2= "1439" />
  <polyline class="fil2 str4" points="1249,1193 1254,1249 1313,1253 1317,1312 1381,1316 1381,1376 1444,1380 1444,1439 1495,1447 "/>
  <polygon class="fil1 str1" points="414,415 495,481 577,547 641,468 705,389 623,323 542,256 478,335 "/>
  <polygon class="fil3 str7" points="977,1379 953,1309 930,1239 1007,1260 1085,1280 1031,1329 "/>
  <polygon class="fil3 str7" points="757,1183 734,1113 710,1043 788,1063 865,1084 811,1133 "/>
  <polygon class="fil3 str7" points="867,1281 844,1211 820,1141 898,1162 975,1182 921,1231 "/>
  <polyline class="fil2 str8" points="5293,-1352 5259,-1390 5293,-1437 5259,-1483 5293,-1526 5259,-1572 5293,-1619 5259,-1661 5293,-1708 "/>
  <polyline class="fil2 str4" points="5208,-1589 5174,-1627 5208,-1661 5174,-1695 5208,-1733 5174,-1771 5208,-1805 5174,-1839 5208,-1877 5174,-1915 5208,-1949 5174,-1983 5208,-2021 5174,-2059 5208,-2093 5174,-2127 5208,-2165 "/>
  <line class="fil2 str4" x1="4969" y1="-2169" x2="4969" y2= "-2152" />
  <line class="fil2 str4" x1="4961" y1="-2160" x2="4978" y2= "-2160" />
  <circle class="fil2 str6" cx="5183" cy="-2559" r="34"/>
  <path class="fil2 str4" d="M4891 -2702c0,8 0,33 0,33"/>
  <line class="fil2 str4" x1="4908" y1="-2686" x2="4874" y2= "-2686" />
  <line class="fil2 str4" x1="4815" y1="-4392" x2="4815" y2= "-4358" />
  <line class="fil2 str4" x1="4831" y1="-4375" x2="4798" y2= "-4375" />
  <path class="fil2 str2" d="M4091 -3909c0,4 0,51 0,51"/>
  <line class="fil2 str2" x1="4116" y1="-3884" x2="4065" y2= "-3884" />
  <line class="fil2 str2" x1="5132" y1="-3807" x2="5132" y2= "-3757" />
  <line class="fil2 str2" x1="5157" y1="-3782" x2="5107" y2= "-3782" />
  <line class="fil2 str6" x1="4984" y1="-4040" x2="4984" y2= "-3939" />
  <line class="fil2 str6" x1="5035" y1="-3989" x2="4933" y2= "-3989" />
  <circle class="fil2 str2" cx="4626" cy="-3107" r="25"/>
  <circle class="fil2 str2" cx="5221" cy="-4231" r="25"/>
  <path class="fil2 str2" d="M4963 -3062c-174,173 -297,296 -297,296"/>
  <line class="fil2 str2" x1="4946" y1="-2918" x2="5242" y2= "-3215" />
  <line class="fil2 str2" x1="4573" y1="-3714" x2="5115" y2= "-4476" />
  <polyline class="fil2 str4" points="4192,-4231 4188,-4286 4129,-4290 4125,-4349 4061,-4353 4061,-4413 3998,-4417 3998,-4476 3947,-4485 "/>
  <polygon class="fil1 str1" points="5028,-3452 4946,-3518 4865,-3585 4801,-3505 4737,-3426 4818,-3360 4900,-3293 4964,-3373 "/>
  <circle class="fil1 str1" cx="4738" cy="-2470" r="135"/>
  <polygon class="fil3 str7" points="4465,-4416 4488,-4346 4512,-4277 4434,-4297 4357,-4317 4411,-4367 "/>
  <polygon class="fil3 str7" points="4684,-4220 4708,-4150 4731,-4080 4654,-4101 4576,-4121 4630,-4170 "/>
  <polygon class="fil3 str7" points="4574,-4318 4598,-4249 4621,-4179 4544,-4199 4466,-4219 4520,-4269 "/>
  <line class="fil2 str2" x1="7322" y1="9573" x2="7009" y2= "9271" />
  <line class="fil2 str3" x1="7165" y1="9295" x2="6869" y2= "8998" />
  <path class="fil2 str2" d="M7212 8986c-14,0 -26,-12 -26,-26 0,-14 12,-25 26,-25 14,0 25,11 25,25 0,14 -11,26 -25,26z"/>
  <circle class="fil2 str3" cx="6666" cy="9515" r="35"/>
  <path class="fil2 str4" d="M6789 9240c0,-22 0,-34 0,-34"/>
  <line class="fil2 str4" x1="6772" y1="9223" x2="6805" y2= "9223" />
  <polyline class="fil2 str5" points="6259,9309 6259,9303 6259,9297 6259,9303 6266,9303 6253,9303 "/>
  <polyline class="fil2 str4" points="6268,9540 6234,9502 6196,9540 6158,9502 6124,9540 6090,9502 6052,9540 6014,9502 5980,9540 5946,9502 5908,9540 5870,9502 5836,9540 5802,9502 5764,9540 5726,9502 5692,9540 "/>
  <polyline class="fil2 str4" points="5811,9625 5764,9591 5722,9625 5675,9591 5629,9625 5586,9591 5540,9625 5493,9591 5447,9625 "/>
  <ellipse class="fil1 str1" cx="6573" cy="9070" rx="138" ry="135"/>
  <line class="fil2 str2" x1="-3202" y1="801" x2="-3684" y2= "1282" />
  <line class="fil2 str2" x1="-2757" y1="552" x2="-3240" y2= "1033" />
  <ellipse class="fil2 str2" cx="-2702" cy="1093" rx="30" ry="31"/>
  <path class="fil4 str9" d="M815 6355c-3,8 -7,14 -13,21 -6,7 -16,12 -21,15 -6,3 -18,5 -28,0 -11,-5 -28,-18 -38,-26 -10,-9 -19,-31 -31,-31 -13,0 -30,12 -43,25 -12,13 -20,23 -31,28 -11,6 -30,5 -35,2 -6,-4 -44,-47 -65,-30 -21,17 -30,51 -25,64 4,12 -5,50 0,76 4,25 12,21 12,34 0,12 -7,45 -19,63 -13,17 -35,36 -46,45 -11,8 -23,10 -36,10 -13,0 -55,-25 -68,-46 -13,-22 -38,-61 -51,-68 -12,-8 -23,-7 -29,-4l-15 7c-4,2 -37,15 -40,56 -4,41 -5,55 -5,55l0 59c0,0 9,9 17,17 9,9 30,30 30,34 0,5 0,17 -4,21 -5,5 -31,24 -43,34 -11,10 -21,30 -20,37 1,8 -1,18 16,40 17,21 64,71 76,84 13,13 30,38 34,51 4,13 4,30 4,38 0,9 -4,51 -21,76 -17,26 -46,51 -67,60 -22,8 -56,2 -77,0 -21,-3 -64,-13 -76,-13 -11,0 -34,8 -34,25 0,17 26,43 47,55 21,13 51,43 55,68 4,25 -1,35 4,42 5,7 35,3 55,8 20,5 38,18 42,30 5,13 -34,110 -38,123 -3,13 5,30 13,38 9,9 21,21 55,26 34,4 76,4 93,12 17,9 34,34 30,56 -5,22 -11,53 -13,76 -2,22 13,63 59,63 47,0 55,-29 89,-46 34,-17 67,-15 85,0 18,14 30,28 25,59 -4,31 -25,42 -38,55 -12,13 -12,17 -8,21 4,4 17,7 30,6 14,-1 26,-18 54,-26 28,-8 46,4 63,-13 17,-17 44,-42 62,-42 17,-1 44,19 58,35 13,16 21,44 29,53 9,8 21,-4 26,-9 4,-4 14,-20 17,-46 2,-26 -6,-96 -9,-117 -4,-20 -13,-61 13,-103 25,-43 71,-48 93,-47 22,1 85,21 106,42 21,22 42,68 46,98 5,29 5,63 21,76 17,13 39,13 55,4 17,-8 30,-17 34,-42 5,-26 1,-64 5,-85 3,-20 17,-42 33,-46 17,-5 39,25 64,25 25,0 33,-28 34,-47 1,-18 -17,-55 -30,-67 -13,-13 -59,-60 -63,-77 -5,-16 1,-26 4,-29 3,-3 17,-17 30,-17 12,0 50,0 63,0 13,0 55,0 72,-9 17,-8 46,-29 59,-46 13,-17 41,-72 43,-106 1,-34 -25,-55 -38,-72 -14,-17 -48,-48 -52,-83 -4,-35 1,-65 26,-86 26,-21 58,-26 68,-43 10,-16 -7,-44 -26,-50 -19,-7 -48,-29 -57,-40 -8,-12 -9,-45 2,-58 12,-12 22,-22 39,-31 17,-8 31,-11 44,-11 12,0 27,0 27,-9 0,-8 -12,-29 -16,-33 -5,-5 -13,-26 -17,-43 -5,-17 -5,-29 -5,-34 0,-4 7,-8 9,-8l8 0 12 -6 1 40 8 34 19 27c7,9 11,19 11,28 0,8 -12,18 -17,21 -5,3 -38,11 -55,17 -16,6 -29,12 -34,21 -4,8 -4,21 0,29 5,9 34,13 47,18 13,4 27,19 33,29 5,9 18,34 18,51 0,17 -9,34 -17,42 -9,9 -43,26 -51,30 -9,4 -21,13 -21,25 0,13 21,22 34,26 12,4 29,17 33,29 5,13 5,26 -4,34 -8,9 -18,14 -30,17 -12,3 -21,9 -8,13 13,4 28,25 32,34 4,9 15,55 6,80 -8,26 -34,59 -46,76 -13,17 -68,68 -93,72 -26,5 -73,-8 -85,-8 -11,0 -33,2 -38,4 -5,3 -13,10 -13,18 0,9 4,16 17,29 13,12 30,29 42,42 13,13 29,37 34,51 6,14 10,23 9,42 -1,19 -16,45 -30,55 -14,11 -41,15 -53,13 -11,-1 -27,-13 -36,-9 -8,5 -8,24 -8,33 0,8 0,48 -5,65 -4,17 -21,51 -59,67 -38,17 -93,0 -110,-16 -17,-17 -27,-59 -25,-85 2,-26 0,-39 -19,-61 -18,-23 -41,-31 -57,-36 -17,-6 -40,-3 -58,0 -17,4 -27,29 -26,45 1,15 20,71 20,86 0,15 0,46 -4,72 -4,25 -17,55 -30,76 -13,21 -42,46 -59,46 -17,0 -34,0 -55,-25 -21,-25 -19,-30 -26,-42 -6,-12 -8,-26 -16,-26 -9,0 -29,25 -61,43 -33,18 -43,23 -90,35 -46,13 -67,11 -86,3 -19,-9 -31,-34 -34,-47 -4,-13 -9,-34 4,-55 13,-21 21,-21 34,-34 12,-12 21,-21 8,-21 -13,0 -26,9 -46,26 -21,16 -44,39 -81,38 -36,-1 -55,-5 -72,-13 -17,-9 -38,-21 -51,-38 -12,-17 -17,-38 -17,-68 0,-30 5,-52 11,-59 6,-6 19,-30 19,-38 0,-9 -18,-8 -32,-4 -14,4 -27,8 -57,8 -29,0 -80,-25 -89,-55 -8,-30 -29,-82 -16,-99 12,-17 27,-27 37,-37 11,-9 22,-16 17,-25 -4,-8 -12,-8 -19,-10 -6,-1 -27,-5 -38,-6 -11,0 -27,-5 -36,-14 -8,-8 -13,-17 -12,-29 1,-12 4,-34 4,-51 0,-17 -13,-30 -21,-34 -9,-4 -30,-8 -47,-17 -17,-8 -34,-38 -34,-63 0,-26 9,-47 26,-55 17,-9 50,-26 76,-13 25,13 39,18 61,21 21,3 53,4 66,-4 12,-9 27,-29 34,-42 6,-13 21,-43 21,-68 0,-26 -6,-34 -17,-47 -11,-12 -55,-63 -72,-76 -17,-13 -40,-50 -47,-68 -7,-17 -3,-42 5,-55 7,-13 12,-21 25,-29 13,-9 17,-9 21,-13 4,-4 -13,-13 -20,-16 -8,-3 -31,-22 -35,-39 -4,-17 -19,-56 -15,-90 4,-34 28,-73 40,-92 13,-18 45,-42 63,-48 19,-7 57,-13 77,-7 20,5 30,17 47,34 17,17 21,29 34,51 12,21 12,21 21,21 8,0 21,-5 29,-21 9,-17 26,-94 17,-127 -8,-34 0,-47 0,-60 0,-12 17,-51 38,-63 22,-13 60,-26 72,-17 13,8 17,13 26,29 8,17 0,26 13,22 12,-5 28,-14 34,-19 5,-6 20,-18 32,-25 13,-6 27,-7 35,-3 9,4 26,21 34,34 8,13 13,30 25,34 13,4 24,3 34,-4 10,-8 11,-16 17,-22 6,-5 13,-8 13,-8l0 17z"/>
  <path class="fil5" d="M-546 7545c-6,-30 -5,-56 1,-77 5,-21 13,-39 23,-53 12,-17 26,-31 42,-42l3 -1c1,-1 2,-2 4,-3 1,-1 3,-3 5,-4 7,-4 16,-8 27,-13 12,-5 24,-7 38,-7 13,0 26,3 40,10 13,6 25,19 36,37 9,16 13,30 13,43 0,13 -2,25 -8,36 -6,11 -14,21 -23,29 -10,8 -19,15 -29,21 -6,3 -10,6 -13,7 -4,2 -8,5 -14,8 -6,2 -16,7 -28,12 -13,6 -32,15 -56,26l2 4c4,6 10,14 19,25 9,10 22,20 37,27 16,8 35,11 57,11 23,-1 50,-10 79,-28 20,-11 34,-24 44,-37 10,-14 18,-27 22,-41 4,-14 6,-27 5,-40 0,-13 -2,-25 -4,-35 -2,-10 -5,-19 -7,-25 -3,-6 -4,-10 -5,-10 -2,-5 -4,-9 -6,-13 -2,-4 -5,-8 -7,-12 -15,-25 -34,-54 -57,-88 -23,-33 -47,-69 -72,-110 -19,-32 -33,-60 -42,-85 -9,-26 -16,-47 -19,-64 -4,-17 -5,-30 -5,-39 1,-9 1,-13 2,-13 2,-14 6,-27 13,-40 6,-13 17,-24 31,-33 8,-4 17,-8 26,-11 11,-2 21,-2 31,0 9,2 19,6 30,12 11,6 21,17 30,33 10,17 17,33 19,47 3,14 3,26 0,36 -3,10 -8,19 -14,26 -7,6 -14,12 -20,16 -5,2 -8,4 -12,6 -4,2 -6,2 -7,0 0,0 0,-1 0,-3 1,-1 1,-1 1,-2 6,-10 9,-20 10,-31 1,-11 1,-21 0,-30 -1,-11 -4,-21 -7,-32 -1,-4 -2,-8 -4,-12 -2,-4 -4,-8 -6,-12 -4,-7 -10,-12 -16,-16 -7,-4 -14,-4 -21,0 -8,5 -12,14 -13,28 0,13 2,29 7,48 5,19 12,41 22,63 10,23 22,46 36,69 10,18 25,40 42,67 17,26 39,57 66,92 1,3 3,6 6,8 2,3 4,6 7,10 3,4 6,9 9,14 6,10 13,23 20,39 7,15 13,32 19,52 5,27 5,53 0,80 -4,22 -14,46 -30,72 -15,25 -41,48 -76,69 -28,17 -53,28 -77,33 -23,6 -45,7 -64,5 -20,-2 -37,-7 -53,-14 -15,-8 -28,-16 -40,-26 -11,-10 -20,-20 -28,-30 -8,-10 -14,-19 -18,-25l-5 -10c-1,-2 -2,-3 -2,-4 -29,13 -58,27 -88,42 -29,15 -57,30 -84,46 -22,13 -42,26 -60,39 -18,13 -33,26 -45,40 -11,13 -19,26 -23,38 -3,13 -1,25 6,37 1,3 2,5 3,7 2,2 4,4 6,6 -2,1 -2,2 1,3 3,2 7,3 11,5 5,1 9,3 13,4 4,2 7,3 8,5 1,1 -1,3 -4,5 -5,3 -13,6 -23,9 -9,2 -20,3 -30,2 -11,-1 -22,-5 -33,-10 -10,-6 -19,-15 -27,-28 -10,-17 -14,-34 -14,-52 1,-18 6,-36 16,-54 9,-18 23,-36 41,-53 19,-18 40,-34 66,-49 32,-19 70,-35 112,-49 42,-14 86,-28 132,-43zm120 -42c10,-3 18,-7 26,-11 12,-7 20,-15 26,-23 5,-8 9,-15 11,-21 2,-8 2,-16 1,-23 -1,-3 -3,-7 -6,-11 -5,-9 -12,-16 -19,-20 -8,-3 -15,-5 -22,-5 -8,0 -15,2 -21,4 -7,3 -13,5 -17,8 -6,3 -11,7 -15,11 -4,4 -8,7 -11,11 -4,4 -7,8 -10,11 -6,13 -11,25 -14,37 -2,11 -4,22 -4,30 -1,11 -1,20 1,29 13,-4 26,-8 38,-13 12,-4 24,-9 36,-14l0 0z"/>
  <path id="1" class="fil5" d="M-19 7430c-11,8 -22,11 -31,10 -9,-1 -17,-4 -24,-8 -8,-6 -15,-13 -21,-22 -17,-26 -30,-55 -39,-87 -8,-32 -15,-62 -19,-92 -6,-34 -9,-68 -10,-102 -1,-21 -1,-46 0,-74 0,-28 3,-55 8,-82 5,-26 13,-50 23,-71 11,-21 25,-36 43,-44 8,-2 15,-3 22,-3 6,1 13,3 20,6 7,3 14,9 21,19 2,2 2,4 2,4 0,0 -1,1 -2,1l-1 1 -1 0c-4,0 -10,2 -17,6 -8,4 -15,14 -22,31 -7,17 -12,42 -16,74 -3,33 -4,78 -1,134 2,29 4,57 9,86 3,25 7,52 12,80 6,29 13,55 21,80 3,5 4,8 6,11 1,2 3,5 6,6 2,1 4,1 7,-1 11,-7 20,-20 27,-39 7,-20 13,-43 16,-69 3,-27 5,-55 4,-86 -1,-30 -4,-59 -9,-88 0,-2 1,-5 2,-8 1,-4 3,-6 7,-8 1,-1 3,-1 5,0 3,0 5,3 6,9 10,60 14,110 12,149 -1,40 -6,71 -13,96 -7,24 -15,42 -25,54 -11,12 -20,21 -28,27z"/>
  <path id="2" class="fil5" d="M173 7008c1,0 2,0 4,0 3,1 5,4 6,9 11,66 15,120 13,161 -2,41 -8,74 -17,98 -8,24 -19,41 -30,51 -11,10 -21,17 -28,21 -17,9 -32,11 -43,7 -12,-3 -21,-12 -28,-24 -8,-13 -14,-29 -18,-48 -4,-19 -8,-40 -10,-61 -2,-22 -4,-44 -5,-67 -1,-22 -2,-43 -4,-62 0,-9 -2,-17 -4,-24 -2,-6 -4,-12 -5,-17 -1,-2 -2,-4 -2,-7 -1,-3 -1,-6 0,-8 1,-3 2,-6 5,-8 2,-2 6,-3 12,-4 16,-1 29,2 39,11 10,8 18,19 24,33 5,14 9,30 11,48 2,17 3,35 4,52 1,18 1,34 1,50 0,15 1,28 2,37 2,15 4,26 7,33 2,8 4,13 7,15 2,4 5,5 8,4 12,-5 21,-17 29,-36 8,-19 14,-42 17,-69 4,-27 5,-56 5,-88 -1,-32 -4,-62 -9,-91 0,-2 1,-5 2,-8 0,-3 3,-6 7,-8zm-121 -20c-11,9 -21,9 -29,1 -9,-9 -16,-17 -21,-26 -5,-8 -8,-16 -11,-25 -2,-8 -1,-16 5,-24 5,-7 11,-14 20,-20 9,-6 18,-10 27,-13 10,-2 18,-2 25,0 8,2 12,7 13,16 1,9 1,18 -1,28 -2,9 -4,19 -7,28 -3,9 -7,16 -11,23 -3,6 -7,10 -10,12z"/>
  <path id="3" class="fil5" d="M292 6873c11,2 21,6 32,12 10,6 18,17 24,33 4,8 5,16 4,23 -2,7 -4,13 -7,18 -3,5 -7,10 -11,14 -4,4 -7,6 -10,8l-1 0c-1,2 -2,2 -3,1 0,-1 -1,-2 -1,-2 0,-3 -2,-8 -3,-14 -2,-7 -3,-13 -4,-20 -4,-14 -8,-25 -12,-32 -4,-7 -8,-12 -10,-15 -4,-2 -8,-3 -12,-3 -2,2 -4,3 -6,5 -1,2 -4,4 -6,7 -3,2 -5,6 -8,11 -10,18 -16,41 -20,71 -3,29 -3,59 2,89 5,29 13,54 22,74 4,9 8,17 14,24 6,7 12,13 19,16 7,4 14,6 23,5 9,0 18,-3 29,-10 14,-9 25,-20 33,-33 9,-14 16,-27 21,-41 5,-15 9,-30 13,-46 2,-15 4,-32 5,-51 1,-18 2,-36 3,-54 0,-18 1,-36 0,-52 0,-16 -1,-29 -1,-40 1,-1 1,-4 3,-8 1,-3 4,-6 8,-7 2,0 3,0 5,1 2,0 4,4 5,10 2,49 3,91 1,125 -1,34 -3,62 -7,83 -2,19 -7,37 -15,54 -6,15 -15,31 -27,48 -12,17 -28,31 -49,44 -16,9 -30,14 -42,16 -13,2 -24,2 -33,1 -11,-1 -21,-4 -29,-9 -18,-10 -33,-25 -46,-46 -13,-21 -22,-43 -27,-65 -5,-18 -7,-38 -7,-59 0,-22 2,-42 8,-63 6,-21 14,-41 26,-59 11,-19 27,-35 46,-47 5,-4 10,-7 17,-10 5,-3 10,-4 16,-6 6,-1 12,-1 18,-1z"/>
  <path id="4" class="fil5" d="M603 7069c-16,10 -31,15 -44,17 -13,3 -24,3 -33,2 -11,-1 -21,-4 -30,-9 -18,-10 -33,-25 -46,-47 -13,-21 -22,-42 -27,-64 -5,-19 -7,-39 -7,-60 0,-21 3,-42 8,-63 6,-21 15,-40 26,-59 12,-18 27,-34 46,-47 15,-11 28,-17 42,-20 11,-2 23,0 35,5 13,6 23,20 31,43 3,12 5,24 6,36 1,11 0,23 -1,35 -1,12 -5,25 -10,38 -7,13 -14,25 -22,36 -8,10 -17,20 -26,29 -8,9 -17,16 -24,22 -8,7 -14,11 -19,14 5,16 12,29 19,39 7,10 14,18 22,24 5,4 11,6 19,6 6,1 14,0 23,-3 9,-2 19,-9 30,-18 7,-8 14,-16 20,-27 5,-9 11,-20 16,-34 6,-14 10,-29 12,-47 2,-15 4,-32 5,-50 2,-18 2,-37 3,-55 1,-18 1,-35 1,-51 -1,-16 -1,-30 -2,-40 1,-2 2,-4 3,-8 1,-3 4,-6 9,-7 1,0 2,0 4,0 3,1 4,4 5,10 2,50 3,92 1,126 -1,34 -4,62 -7,84 -3,18 -8,36 -15,53 -6,15 -15,31 -27,47 -11,17 -27,31 -46,43zm-108 -140c1,4 2,10 4,16 1,5 2,10 3,14 22,-23 38,-45 47,-66 10,-21 15,-40 17,-57 2,-16 2,-30 -1,-41 -3,-11 -6,-18 -7,-22l-1 -2c-4,-8 -7,-14 -11,-17 -2,-3 -5,-5 -6,-6l-1 -1c-1,-1 -3,-1 -5,-1l-5 3c-4,3 -8,6 -10,11 -3,4 -5,7 -5,9 -10,18 -17,41 -21,71 -4,30 -3,59 2,89z"/>
  <path class="fil5" d="M1268 7379c-5,2 -12,3 -19,4 -8,1 -16,2 -22,3 -9,1 -17,1 -26,1 -17,1 -30,-2 -39,-10 -9,-8 -16,-18 -20,-28 -5,-13 -8,-26 -8,-42 0,-4 0,-10 1,-17 1,-7 3,-15 7,-24 3,-8 8,-16 15,-25 7,-9 16,-18 27,-26 19,-12 34,-19 48,-21 13,-3 24,-2 33,1 9,3 16,8 21,15 5,7 8,14 10,20 2,13 3,25 1,36 -1,10 -5,20 -11,31 -7,10 -19,19 -35,26 -4,2 -6,2 -7,1 -2,-1 -3,-2 -3,-2 -1,-2 -2,-4 -1,-6 1,-6 2,-15 3,-26 1,-10 1,-21 1,-31 -1,-10 -2,-18 -5,-26 -3,-7 -7,-10 -14,-10 -8,0 -14,4 -19,14 -5,10 -9,21 -11,34 -3,12 -3,25 -3,38 1,13 4,23 8,30 3,6 7,10 12,13 5,2 10,4 16,4 6,0 12,0 18,-1 6,-1 12,-2 17,-4 47,-9 77,-3 89,18 4,7 6,16 7,28 2,11 1,25 -3,40 -4,15 -12,31 -23,48 -11,17 -27,34 -48,51 -18,13 -33,21 -46,25 -13,5 -23,6 -32,6 -8,-1 -15,-3 -20,-6 -4,-4 -8,-7 -9,-10 -3,-4 -3,-8 -1,-12 3,-3 7,-5 13,-6 4,0 11,-4 22,-12 11,-8 23,-18 34,-32 11,-13 21,-29 28,-46 8,-18 11,-36 9,-55 0,-2 -1,-4 -2,-6 -3,-3 -7,-5 -13,-3z"/>
  <path id="1" class="fil5" d="M1469 7416c1,1 1,2 1,3 -1,1 -1,2 -2,2 -8,5 -15,8 -21,8 -7,0 -12,-1 -18,-3 -6,-3 -11,-6 -17,-10 -7,-5 -13,-12 -19,-21 -6,-9 -11,-19 -16,-31 -4,-12 -8,-24 -12,-37 -4,-13 -8,-26 -11,-40 -7,-30 -13,-63 -17,-99 -5,-49 -7,-95 -5,-137 2,-17 4,-35 6,-53 3,-18 6,-35 12,-50 5,-15 11,-28 19,-40 8,-11 18,-19 30,-24 6,-2 13,-3 20,-3 6,0 12,2 19,5 7,3 14,9 21,18 1,2 1,3 0,4 0,1 -1,1 -1,1 0,-1 -1,0 -1,0 -5,0 -11,2 -18,6 -7,5 -14,16 -21,33 -6,18 -10,44 -13,79 -3,35 -2,83 2,144 0,5 0,10 1,16 0,5 1,12 2,19 1,7 2,15 3,23 1,-16 3,-34 5,-53 2,-18 5,-36 10,-53 4,-16 10,-31 17,-44 7,-14 17,-24 28,-30 6,-4 12,-6 17,-7 8,-1 16,-1 24,1 6,2 12,5 19,11 8,5 14,14 19,26 5,12 9,27 11,43 2,17 4,33 4,49 1,16 2,31 1,45 1,15 1,26 2,35 1,14 3,25 5,31 3,7 5,11 7,14 3,3 5,4 8,3 11,-4 19,-15 27,-33 7,-18 12,-39 16,-64 3,-25 5,-52 4,-81 -1,-29 -4,-57 -8,-84 0,-2 0,-4 1,-7 1,-4 3,-6 7,-8 1,0 3,-1 4,0 3,1 5,3 6,8 10,61 14,111 11,149 -2,38 -7,68 -15,90 -8,23 -18,38 -28,48 -11,9 -19,16 -26,19 -14,7 -26,10 -36,8 -10,-2 -19,-8 -26,-17 -6,-9 -12,-20 -16,-35 -4,-14 -7,-30 -10,-47 -2,-17 -4,-35 -5,-53 -1,-19 -2,-37 -4,-54l0 -1c0,-18 -2,-32 -4,-40 -2,-9 -4,-15 -7,-19 -3,-4 -6,-5 -9,-4 -5,1 -10,7 -13,17 -5,11 -8,25 -11,42 -3,17 -6,37 -8,58 -2,22 -3,44 -3,67 1,22 1,44 3,65 2,21 5,40 10,56 1,5 2,10 4,15 2,5 4,9 7,13 2,4 5,7 8,8z"/>
  <path id="2" class="fil5" d="M1630 7100c-4,-30 -4,-58 2,-85 2,-11 6,-23 10,-34 5,-12 11,-23 19,-34 8,-10 18,-20 30,-29 12,-8 27,-16 43,-22 16,-5 30,-7 41,-5 12,3 22,8 30,15 8,7 15,16 21,26 6,10 10,20 14,31 18,-16 31,-32 40,-49 8,-16 13,-28 16,-36 1,-1 2,-3 3,-5 2,-3 4,-5 7,-7 4,-2 6,-2 7,0 1,1 1,4 1,6 -5,19 -13,39 -24,61 -11,21 -25,41 -42,59 1,3 1,5 2,7 0,2 1,4 1,5 0,2 0,4 0,5 7,43 7,79 1,107 -6,27 -14,50 -25,66 -12,19 -27,34 -44,45 -19,10 -37,14 -54,12 -17,-2 -32,-9 -45,-20 -13,-11 -24,-27 -33,-48 -10,-20 -17,-44 -21,-71zm172 -111c-9,-30 -20,-51 -33,-61 -13,-11 -24,-13 -35,-7 -10,5 -17,14 -21,27 -3,13 -2,26 5,40 4,8 9,14 16,16 7,2 14,2 21,1 8,0 17,-3 26,-7 7,-2 14,-5 21,-9zm15 75c-1,-7 -2,-14 -3,-21 -1,-6 -2,-13 -4,-19 -11,8 -24,14 -37,19 -11,4 -21,6 -30,7 -9,0 -17,-1 -24,-3 -7,-2 -13,-5 -17,-9 -5,-4 -9,-7 -12,-12 0,10 1,22 2,35 1,14 3,28 6,43 2,14 5,28 9,42 4,14 9,26 14,37 6,10 12,18 20,23 8,5 16,6 26,3 5,-2 11,-6 18,-11 6,-6 12,-15 18,-26 6,-12 11,-26 14,-44 3,-17 3,-38 0,-64z"/>
  <path id="3" class="fil5" d="M2163 6993c-5,8 -11,14 -18,18 -8,4 -14,7 -20,8 -16,5 -30,5 -40,0 -10,-5 -19,-12 -26,-20 -4,22 -10,42 -19,59 -9,17 -21,29 -37,36 -15,6 -29,9 -42,8 -11,-2 -22,-7 -32,-17 -11,-9 -18,-26 -22,-52 -4,-25 -7,-53 -9,-83 -2,-30 -4,-57 -6,-81 0,-9 -1,-16 -3,-22 -2,-6 -4,-12 -5,-16 -1,-2 -2,-4 -2,-6 -1,-3 -1,-6 0,-8 1,-3 2,-5 4,-8 2,-2 5,-3 10,-3 15,-1 27,2 36,9 9,7 16,17 22,29 6,12 9,26 12,41 2,16 3,31 4,47 0,16 1,31 0,45 1,15 1,27 2,36 0,10 1,19 3,27 2,7 4,14 8,19 3,6 8,9 15,9 9,-3 16,-11 21,-22 5,-12 9,-25 11,-42 2,-16 3,-33 3,-52 0,-19 0,-37 -1,-56 -2,-18 -3,-37 -5,-55 -1,-19 -2,-36 -3,-53 -1,-9 -2,-16 -4,-22 -2,-6 -4,-11 -5,-16 -1,-1 -1,-3 -2,-6 0,-3 0,-6 0,-8 1,-3 2,-5 5,-7 2,-2 6,-3 11,-4 14,0 26,3 35,10 9,7 17,17 22,29 6,13 9,27 12,42 2,16 3,32 4,48 1,16 1,31 1,45 -1,15 0,26 1,36 0,10 2,18 3,26 2,6 4,13 7,18 3,6 7,9 13,10 2,0 5,-1 8,-3 3,-1 6,-4 9,-8 5,-10 9,-21 12,-34 3,-13 6,-26 7,-40 2,-14 4,-29 4,-43 1,-15 2,-30 2,-44 0,-32 -1,-66 -3,-101 -2,-24 -6,-45 -11,-61 -5,-16 -13,-24 -22,-24 -9,0 -17,5 -23,13 -6,8 -11,16 -14,24 0,2 0,4 -1,6 -2,3 -5,4 -7,3 -3,-1 -5,-4 -7,-11 0,-3 -1,-6 -1,-9 -2,-16 1,-32 8,-48 7,-16 20,-27 40,-33 11,-3 21,-4 28,-1 8,3 14,6 18,11 6,5 11,12 14,20 11,22 17,47 19,75 3,29 3,58 1,86 -1,31 -3,60 -8,89 -3,24 -8,49 -14,75 -6,25 -14,46 -23,62z"/>
  <polygon class="fil6 str10" points="907,5825 907,6922 1864,6372 "/>
  <polygon class="fil6 str11" points="445,6558 519,6514 594,6470 550,6395 506,6321 432,6365 357,6408 401,6483 "/>
  <rect class="fil6 str11" transform="matrix(0.838726 -0.544554 0.544554 0.838726 476.319 7545.91)" width="76.2" height="237.06"/>
  <rect class="fil6 str11" transform="matrix(0.838726 -0.544554 0.544554 0.838726 607.549 7461.25)" width="76.2" height="237.06"/>
  <circle class="fil2 str12" cx="327" cy="7667" r="51"/>
  <polygon class="fil7 str13" points="-132,7715 -162,7681 2162,6306 2179,6318 "/>
  <circle class="fil2 str12" cx="806" cy="7371" r="51"/>
  <circle class="fil2 str12" cx="1009" cy="7709" r="51"/>
  <circle class="fil2 str12" cx="251" cy="6668" r="51"/>
 </g>
</svg>
