<?xml version="1.0" encoding="UTF-8"?>
<!DOCTYPE svg PUBLIC "-//W3C//DTD SVG 1.1//EN" "http://www.w3.org/Graphics/SVG/1.1/DTD/svg11.dtd">
<!-- Creator: CorelDRAW X7 -->
<svg xmlns="http://www.w3.org/2000/svg" xml:space="preserve" width="33.8666mm" height="25.3998mm" version="1.1" style="shape-rendering:geometricPrecision; text-rendering:geometricPrecision; image-rendering:optimizeQuality; fill-rule:evenodd; clip-rule:evenodd"
viewBox="0 0 3387 2540"
 xmlns:xlink="http://www.w3.org/1999/xlink">
 <defs>
  <style type="text/css">
   <![CDATA[
    .str13 {stroke:#2B2A29;stroke-width:8.46}
    .str4 {stroke:black;stroke-width:8.46}
    .str12 {stroke:#180A21;stroke-width:8.46}
    .str9 {stroke:#CC0033;stroke-width:8.46}
    .str10 {stroke:#CC0033;stroke-width:8.46}
    .str7 {stroke:#EAA639;stroke-width:8.46}
    .str8 {stroke:#F7931E;stroke-width:8.46}
    .str0 {stroke:#FCBF51;stroke-width:8.46}
    .str1 {stroke:#FFCA5F;stroke-width:8.46}
    .str11 {stroke:#180A21;stroke-width:42.33}
    .str2 {stroke:black;stroke-width:16.93}
    .str3 {stroke:black;stroke-width:20}
    .str6 {stroke:black;stroke-width:25.39}
    .str5 {stroke:black;stroke-width:7.62}
    .fil2 {fill:none}
    .fil7 {fill:#180A21}
    .fil6 {fill:#CC0033}
    .fil3 {fill:#EAA639}
    .fil4 {fill:#F7931E}
    .fil0 {fill:#FCBF51}
    .fil1 {fill:#FFCA5F}
    .fil5 {fill:black;fill-rule:nonzero}
   ]]>
  </style>
 </defs>
 <g id="Слой_x0020_1">
  <metadata id="CorelCorpID_0Corel-Layer"/>
  <path class="fil0 str0" d="M1827 1404l844 -489c85,149 130,317 130,489 0,540 -436,978 -974,978 -538,0 -975,-438 -975,-978 0,-540 437,-978 975,-978l0 978z"/>
  <path class="fil1 str1" d="M1827 670l-22 17 -17 11c0,0 0,0 -17,0 -17,0 -47,-30 -51,-34 -4,-4 -13,-25 -25,-25 -13,0 -30,12 -43,25 -12,13 -16,17 -33,26 -17,8 -5,8 -22,8 -17,0 -55,-51 -76,-34 -21,17 -29,51 -25,64 4,12 -4,50 0,76 4,25 13,21 13,34 0,12 -17,63 -26,72 -8,8 -30,29 -46,38 -17,8 -17,8 -30,8 -13,0 -55,-25 -68,-46 -13,-21 -38,-61 -51,-68 -12,-7 -24,-7 -29,-4l-9 4c0,0 -43,18 -46,59 -4,41 -5,55 -5,55l0 60c8,7 47,45 47,50 0,5 0,17 -4,22 -4,4 -31,23 -43,33 -11,10 -21,30 -20,37 1,8 -1,18 16,40 17,21 64,72 76,84 13,13 30,38 34,51 11,32 1,88 -17,114 -17,26 -46,51 -67,60 -22,8 -56,2 -77,0 -21,-3 -64,-13 -76,-13 -11,0 -34,8 -34,25 0,17 26,43 47,55 21,13 51,43 55,68 4,25 -1,35 4,42 5,7 41,-3 64,9 22,12 29,17 34,30 4,12 -30,114 -39,122 -8,9 5,30 13,38 9,9 21,22 55,26 34,4 76,4 93,12 17,9 34,34 30,56 -5,22 -11,53 -13,76 -1,22 13,63 60,63 46,0 55,-29 88,-46 34,-17 67,-15 85,0 18,14 30,28 26,59 -5,31 -26,42 -39,55 -12,13 -12,17 -8,21 4,4 17,7 30,6 14,-1 28,-11 56,-19 28,-8 45,-8 62,-25 17,-17 42,-30 59,-30 17,0 47,7 60,28 12,22 21,44 29,53 9,8 21,-4 26,-9 4,-4 14,-20 17,-46 2,-26 -6,-96 -9,-117 -4,-20 -13,-61 13,-103 25,-43 71,-48 93,-47 22,1 85,21 106,42 21,22 42,68 46,98 5,29 5,63 22,76 16,13 38,13 55,4 17,-8 29,-17 33,-42 5,-26 1,-64 5,-85 4,-20 17,-42 34,-46 16,-5 38,25 63,25 25,0 30,-25 34,-47 4,-21 -17,-55 -30,-67 -12,-13 -59,-60 -63,-76 -4,-17 1,-27 4,-30 3,-3 17,-17 30,-17 12,0 50,0 63,0 13,0 55,0 72,-8 17,-9 46,-30 59,-47 14,-17 41,-72 43,-106 1,-34 -25,-55 -38,-72 -14,-17 -48,-48 -52,-83 -4,-35 1,-65 26,-86 26,-21 58,-26 68,-43 10,-16 -6,-44 -25,-50 -20,-7 -49,-29 -58,-40 -8,-11 -9,-45 3,-58 22,-24 48,-42 82,-42 13,0 28,0 28,-8 0,-9 -13,-30 -17,-34 -5,-5 -13,-26 -17,-43 -5,-17 -5,-29 -5,-34 0,-4 -6,-11 -4,-11l-765 474 0 -770z"/>
  <line class="fil2 str2" x1="-2750" y1="-3792" x2="-2437" y2= "-3490" />
  <line class="fil2 str3" x1="-2593" y1="-3514" x2="-2297" y2= "-3218" />
  <path class="fil2 str2" d="M-2640 -3205c14,0 25,12 25,26 0,14 -11,25 -25,25 -14,0 -25,-11 -25,-25 0,-14 11,-26 25,-26z"/>
  <circle class="fil2 str3" cx="-2094" cy="-3734" r="35"/>
  <path class="fil2 str4" d="M-2217 -3459c0,21 0,34 0,34"/>
  <line class="fil2 str4" x1="-2200" y1="-3442" x2="-2234" y2= "-3442" />
  <polyline class="fil2 str5" points="-1687,-3529 -1687,-3522 -1687,-3516 -1687,-3522 -1694,-3522 -1681,-3522 "/>
  <polyline class="fil2 str4" points="-1696,-3759 -1662,-3721 -1624,-3759 -1586,-3721 -1552,-3759 -1518,-3721 -1480,-3759 -1442,-3721 -1408,-3759 -1374,-3721 -1336,-3759 -1298,-3721 -1264,-3759 -1230,-3721 -1192,-3759 -1154,-3721 -1120,-3759 "/>
  <polyline class="fil2 str4" points="-1239,-3844 -1192,-3810 -1150,-3844 -1103,-3810 -1057,-3844 -1014,-3810 -968,-3844 -921,-3810 -875,-3844 "/>
  <ellipse class="fil1 str1" cx="-2001" cy="-3290" rx="138" ry="135"/>
  <line class="fil2 str4" x1="-2162" y1="10201" x2="-2162" y2= "10167" />
  <line class="fil2 str4" x1="-2179" y1="10184" x2="-2145" y2= "10184" />
  <path class="fil2 str2" d="M-1438 9718c0,-4 0,-51 0,-51"/>
  <line class="fil2 str2" x1="-1463" y1="9693" x2="-1412" y2= "9693" />
  <line class="fil2 str2" x1="-2479" y1="9616" x2="-2479" y2= "9566" />
  <line class="fil2 str2" x1="-2505" y1="9591" x2="-2454" y2= "9591" />
  <line class="fil2 str6" x1="-2331" y1="9849" x2="-2331" y2= "9748" />
  <line class="fil2 str6" x1="-2382" y1="9798" x2="-2280" y2= "9798" />
  <circle class="fil2 str2" cx="-2568" cy="10040" r="25"/>
  <line class="fil2 str2" x1="-1920" y1="9523" x2="-2462" y2= "10285" />
  <polyline class="fil2 str4" points="-1539,10040 -1535,10095 -1476,10099 -1472,10158 -1408,10163 -1408,10222 -1345,10226 -1345,10285 -1294,10294 "/>
  <polygon class="fil1 str1" points="-2375,9261 -2294,9327 -2212,9394 -2148,9314 -2084,9235 -2166,9169 -2247,9103 -2311,9182 "/>
  <polygon class="fil3 str7" points="-1812,10225 -1836,10156 -1859,10086 -1782,10106 -1704,10126 -1758,10176 "/>
  <polygon class="fil3 str7" points="-2032,10029 -2055,9959 -2078,9889 -2001,9910 -1923,9930 -1977,9979 "/>
  <polygon class="fil3 str7" points="-1922,10127 -1945,10058 -1969,9988 -1891,10008 -1814,10028 -1868,10078 "/>
  <line class="fil2 str2" x1="8169" y1="9996" x2="7855" y2= "9694" />
  <line class="fil2 str3" x1="8012" y1="9718" x2="7716" y2= "9422" />
  <path class="fil2 str2" d="M8059 9409c-14,0 -26,-11 -26,-25 0,-15 12,-26 26,-26 14,0 25,11 25,26 0,14 -11,25 -25,25z"/>
  <circle class="fil2 str3" cx="7512" cy="9938" r="35"/>
  <path class="fil2 str4" d="M7635 9663c0,-21 0,-34 0,-34"/>
  <line class="fil2 str4" x1="7618" y1="9646" x2="7652" y2= "9646" />
  <polyline class="fil2 str5" points="7106,9733 7106,9726 7106,9720 7106,9726 7112,9726 7100,9726 "/>
  <polyline class="fil2 str4" points="7115,9963 7081,9925 7043,9963 7004,9925 6971,9963 6937,9925 6899,9963 6861,9925 6827,9963 6793,9925 6755,9963 6717,9925 6683,9963 6649,9925 6611,9963 6573,9925 6539,9963 "/>
  <polyline class="fil2 str4" points="6657,10048 6611,10014 6568,10048 6522,10014 6475,10048 6433,10014 6386,10048 6340,10014 6293,10048 "/>
  <ellipse class="fil1 str1" cx="7419" cy="9494" rx="138" ry="135"/>
  <line class="fil2 str2" x1="-2355" y1="1224" x2="-2838" y2= "1705" />
  <line class="fil2 str2" x1="-1910" y1="975" x2="-2393" y2= "1456" />
  <ellipse class="fil2 str2" cx="-1855" cy="1516" rx="30" ry="31"/>
  <path class="fil4 str8" d="M1827 655c-3,7 -7,14 -13,21 -6,7 -16,12 -21,15 -6,3 -18,5 -28,0 -11,-5 -28,-18 -38,-27 -10,-8 -19,-30 -31,-30 -13,0 -30,12 -43,25 -12,13 -20,22 -31,28 -11,6 -30,5 -36,2 -5,-4 -43,-47 -64,-30 -21,17 -30,51 -25,64 4,12 -5,50 0,76 4,25 12,21 12,34 0,12 -7,45 -20,63 -12,17 -34,36 -45,45 -11,8 -24,10 -36,10 -13,0 -55,-25 -68,-46 -13,-22 -38,-61 -51,-68 -13,-8 -24,-7 -29,-4l-15 7c-4,1 -37,15 -40,56 -4,41 -5,55 -5,55l0 59c0,0 9,9 17,17 9,9 30,30 30,34 0,4 0,17 -4,21 -5,5 -31,24 -43,34 -12,10 -21,30 -20,37 1,8 -1,18 16,39 17,22 64,72 76,85 13,13 30,38 34,51 4,13 4,30 4,38 0,9 -4,51 -21,76 -17,26 -46,51 -68,60 -21,8 -55,2 -76,0 -21,-3 -64,-13 -76,-13 -12,0 -34,8 -34,25 0,17 26,43 47,55 21,13 51,43 55,68 4,25 -1,35 4,42 5,7 34,3 54,8 20,5 39,18 43,30 5,13 -34,110 -38,123 -3,13 5,30 13,38 8,9 21,21 55,26 34,4 76,4 93,12 17,9 34,34 30,56 -5,22 -11,53 -13,76 -2,22 13,63 59,63 47,0 55,-30 89,-46 34,-17 67,-15 85,0 18,14 30,28 25,59 -5,31 -25,42 -38,55 -12,13 -13,17 -8,21 4,4 17,7 30,6 14,-1 26,-18 54,-26 28,-8 46,4 63,-13 17,-17 44,-42 62,-42 17,-1 44,19 57,35 14,16 22,44 30,53 9,8 21,-5 25,-9 5,-4 15,-20 17,-46 3,-27 -5,-96 -8,-117 -4,-20 -13,-61 13,-103 25,-43 70,-48 93,-47 22,1 84,21 106,42 21,21 42,68 46,98 4,29 4,63 21,76 17,13 38,13 55,4 17,-8 30,-17 34,-42 4,-26 1,-65 4,-85 4,-20 17,-42 34,-46 17,-5 38,25 64,25 25,0 33,-28 34,-47 1,-18 -17,-55 -30,-67 -13,-13 -59,-60 -63,-77 -5,-16 1,-26 4,-29 3,-3 17,-17 29,-17 13,0 51,0 64,0 13,0 55,0 72,-9 17,-8 46,-29 59,-46 13,-17 41,-72 43,-106 1,-34 -25,-55 -39,-72 -13,-17 -48,-48 -51,-83 -4,-35 1,-65 26,-86 25,-21 58,-26 68,-43 10,-16 -7,-44 -26,-50 -19,-7 -48,-29 -57,-40 -8,-12 -9,-46 2,-58 12,-12 22,-23 39,-31 17,-8 31,-11 44,-11 12,0 27,0 27,-9 0,-8 -12,-29 -17,-33 -4,-5 -12,-26 -16,-43 -5,-17 -5,-29 -5,-34 0,-4 6,-8 9,-8l8 0 12 -6 1 39 8 35 19 27c6,9 11,19 11,28 0,8 -12,17 -17,21 -5,3 -38,11 -55,17 -16,6 -30,12 -34,21 -4,8 -5,21 0,29 4,9 34,13 47,17 12,5 27,20 32,30 6,9 19,34 19,51 0,17 -9,34 -17,42 -9,9 -43,26 -52,30 -8,4 -20,13 -20,25 0,13 21,21 34,26 12,4 29,17 33,29 5,13 5,26 -4,34 -8,9 -18,14 -30,17 -12,3 -21,9 -8,13 13,4 28,25 32,34 4,9 15,55 6,80 -8,26 -34,59 -46,76 -13,17 -68,68 -94,72 -25,5 -72,-8 -84,-8 -11,0 -33,1 -38,4 -5,3 -13,10 -13,18 0,9 4,16 17,29 13,12 30,29 42,42 13,13 28,37 34,51 6,14 10,23 9,42 -2,19 -16,45 -30,55 -14,11 -42,15 -53,13 -11,-1 -28,-13 -36,-9 -8,5 -8,24 -8,33 0,8 0,48 -5,65 -4,17 -21,51 -59,67 -38,17 -93,0 -110,-16 -17,-17 -27,-59 -25,-85 2,-26 0,-39 -19,-61 -18,-23 -41,-31 -58,-37 -16,-5 -40,-2 -57,1 -18,4 -27,29 -26,45 1,15 20,71 20,86 0,15 0,46 -4,72 -5,25 -17,55 -30,76 -13,21 -42,46 -59,46 -17,0 -34,0 -55,-25 -21,-25 -19,-30 -26,-42 -6,-13 -8,-26 -17,-26 -8,0 -28,25 -60,43 -33,18 -43,22 -90,35 -47,13 -67,11 -86,3 -19,-9 -31,-34 -35,-47 -3,-13 -8,-34 5,-55 12,-21 21,-21 34,-34 12,-12 21,-21 8,-21 -13,0 -26,9 -47,26 -20,16 -43,39 -80,38 -36,-1 -55,-5 -72,-13 -17,-9 -38,-21 -51,-38 -12,-17 -17,-38 -17,-68 0,-30 5,-52 11,-59 6,-6 19,-30 19,-38 0,-9 -18,-8 -32,-4 -15,4 -27,8 -57,8 -30,0 -80,-25 -89,-55 -8,-30 -29,-82 -16,-99 12,-17 27,-27 37,-37 10,-9 22,-16 17,-25 -4,-8 -12,-8 -19,-10 -6,-1 -28,-6 -38,-6 -11,0 -27,-5 -36,-14 -8,-8 -14,-17 -13,-29 1,-12 5,-34 5,-51 0,-17 -13,-30 -21,-34 -9,-4 -30,-8 -47,-17 -17,-8 -34,-38 -34,-63 0,-26 9,-47 25,-55 17,-9 51,-26 77,-13 25,13 39,18 61,21 21,3 53,4 66,-4 12,-9 27,-30 34,-42 6,-13 21,-43 21,-68 0,-26 -6,-34 -17,-47 -11,-12 -55,-63 -72,-76 -17,-13 -40,-50 -47,-68 -7,-17 -3,-42 4,-55 8,-13 13,-21 26,-29 13,-9 17,-9 21,-13 4,-4 -13,-13 -20,-16 -8,-3 -31,-22 -35,-39 -4,-17 -19,-56 -15,-90 4,-34 28,-73 40,-92 13,-19 45,-42 63,-48 19,-7 57,-13 77,-7 20,5 30,17 47,34 17,17 21,29 34,51 12,21 12,21 21,21 8,0 21,-5 29,-21 9,-17 26,-94 17,-127 -8,-34 0,-47 0,-60 0,-12 17,-51 38,-63 22,-13 60,-26 72,-17 13,8 17,13 26,29 8,17 0,26 12,22 13,-5 29,-14 34,-19 6,-6 20,-19 33,-25 13,-6 27,-7 35,-3 9,4 25,21 34,34 8,13 13,30 25,34 13,4 24,3 34,-4 10,-8 11,-16 17,-22 6,-5 13,-8 13,-8l0 17z"/>
  <path class="fil5" d="M466 1845c-6,-30 -6,-56 0,-77 6,-21 14,-39 24,-53 12,-17 25,-31 42,-42l3 -1c1,-1 2,-2 4,-3 1,-1 3,-3 5,-4 7,-4 16,-8 27,-13 12,-5 24,-7 37,-7 14,0 27,3 40,10 14,6 26,19 36,37 10,16 14,30 14,43 0,13 -3,25 -8,36 -6,11 -14,20 -23,29 -10,8 -20,15 -29,20 -6,4 -10,6 -13,8 -4,2 -8,5 -14,8 -7,2 -16,7 -29,12 -12,6 -31,15 -55,26l2 4c3,6 10,14 19,24 9,11 22,21 37,28 16,8 35,11 57,11 23,-1 50,-10 79,-28 19,-11 34,-24 44,-37 10,-14 17,-27 22,-41 4,-14 6,-27 5,-40 0,-13 -2,-25 -4,-35 -2,-10 -5,-19 -7,-25 -3,-6 -4,-10 -5,-10 -2,-5 -4,-9 -6,-13 -2,-4 -5,-8 -7,-12 -15,-25 -34,-55 -57,-88 -23,-33 -47,-69 -72,-110 -19,-32 -33,-60 -42,-85 -10,-26 -16,-47 -19,-64 -4,-17 -5,-30 -5,-39 1,-9 1,-13 2,-14 2,-13 6,-26 12,-39 7,-13 18,-24 32,-33 8,-4 17,-8 26,-11 10,-2 21,-2 31,0 9,2 19,6 30,12 11,6 21,17 30,33 10,17 17,33 19,47 3,14 3,26 0,36 -3,10 -8,19 -14,26 -7,6 -14,12 -20,16 -5,2 -9,4 -12,6 -4,2 -6,2 -7,0 0,0 0,-1 0,-3 0,-1 1,-1 1,-2 6,-10 9,-20 10,-31 1,-11 1,-21 0,-30 -2,-11 -4,-21 -7,-32 -1,-4 -3,-8 -4,-12 -2,-4 -4,-8 -6,-12 -4,-7 -10,-12 -16,-16 -7,-4 -14,-4 -21,0 -8,5 -12,14 -13,27 0,14 2,30 7,49 5,19 12,40 22,63 10,23 22,46 36,69 10,18 24,40 42,67 17,26 39,57 66,92 1,3 3,6 6,8 2,3 4,6 7,10 3,4 6,9 9,14 6,10 13,23 20,39 7,15 13,32 19,52 5,26 5,53 0,80 -4,22 -14,46 -30,72 -15,25 -41,48 -76,69 -28,17 -54,28 -77,33 -24,6 -45,7 -64,5 -20,-2 -37,-7 -53,-14 -15,-8 -28,-16 -40,-26 -11,-10 -21,-20 -28,-30 -8,-10 -14,-19 -18,-26l-5 -9c-1,-2 -2,-3 -2,-4 -29,13 -58,27 -88,42 -29,15 -57,30 -84,46 -22,13 -42,26 -60,39 -18,13 -33,26 -45,40 -12,13 -19,26 -23,38 -3,13 -1,25 6,37 1,3 2,5 3,7 2,2 4,4 6,6 -2,1 -2,2 1,3 3,2 7,3 11,4 5,2 9,4 13,5 4,1 7,3 8,5 0,1 -1,3 -4,5 -6,3 -13,6 -23,9 -9,2 -20,3 -31,2 -11,-1 -21,-5 -32,-10 -10,-6 -19,-15 -27,-28 -10,-17 -14,-34 -14,-52 1,-18 6,-36 16,-55 9,-17 23,-35 41,-52 18,-18 40,-34 65,-49 33,-19 71,-35 113,-49 42,-14 86,-28 132,-43zm120 -42c10,-3 18,-7 26,-11 12,-8 20,-15 26,-23 5,-8 9,-15 10,-21 3,-8 3,-16 2,-23 -1,-3 -3,-7 -6,-11 -5,-9 -12,-16 -19,-20 -8,-3 -15,-5 -23,-5 -7,0 -14,1 -21,4 -6,3 -12,5 -16,8 -6,3 -11,7 -15,11 -5,4 -8,7 -11,11 -4,4 -7,8 -10,10 -6,14 -11,26 -14,38 -2,11 -4,22 -4,30 -1,11 -1,20 1,29 13,-4 26,-8 38,-13 12,-4 24,-9 35,-14l1 0z"/>
  <path id="1" class="fil5" d="M993 1730c-11,8 -22,11 -31,10 -9,-1 -17,-4 -24,-8 -8,-6 -15,-13 -22,-22 -16,-26 -29,-55 -38,-87 -8,-32 -15,-63 -19,-92 -6,-34 -9,-68 -10,-102 -1,-21 -1,-46 -1,-74 1,-28 4,-55 9,-82 5,-26 13,-50 23,-71 11,-21 25,-36 43,-44 7,-2 15,-3 22,-3 6,1 13,3 20,6 7,3 14,9 21,19 1,2 2,4 1,4 0,0 0,1 -1,1l-1 1 -1 0c-4,0 -10,2 -18,6 -7,4 -14,14 -21,31 -7,17 -12,42 -16,74 -3,33 -4,78 -1,134 1,29 4,57 8,86 4,25 8,52 13,80 5,29 13,55 21,80 2,4 4,8 6,11 1,2 3,4 5,6 3,1 5,1 8,-1 11,-7 20,-20 27,-39 7,-20 12,-43 16,-69 3,-27 5,-55 4,-86 -1,-30 -4,-59 -9,-88 0,-2 1,-5 2,-8 0,-4 3,-6 7,-8 1,-1 3,-1 5,0 3,0 5,3 6,9 10,60 14,110 12,149 -2,39 -6,71 -13,96 -7,24 -15,42 -25,54 -11,12 -20,21 -28,27z"/>
  <path id="2" class="fil5" d="M1185 1308c1,0 2,0 4,0 3,1 5,4 6,9 11,66 15,120 13,161 -2,41 -8,74 -17,98 -9,24 -19,41 -30,51 -11,10 -21,17 -28,21 -17,9 -32,11 -43,7 -12,-3 -21,-12 -29,-24 -7,-13 -13,-29 -17,-48 -5,-19 -8,-40 -10,-61 -2,-22 -4,-44 -5,-67 -1,-22 -3,-43 -4,-62 -1,-9 -2,-17 -4,-24 -2,-7 -4,-12 -5,-17 -1,-2 -2,-4 -2,-7 -1,-3 -1,-6 0,-8 0,-3 2,-6 4,-8 3,-2 7,-4 13,-4 16,-1 29,2 39,11 10,8 18,19 23,33 6,14 10,30 12,48 2,17 3,35 4,52 1,18 1,34 1,50 0,15 1,28 2,37 2,15 4,26 6,33 3,8 5,13 8,15 2,4 5,5 8,4 12,-5 21,-17 29,-36 8,-19 14,-42 17,-69 4,-27 5,-56 5,-88 -1,-32 -4,-62 -9,-91 0,-2 1,-5 1,-8 1,-4 4,-6 8,-8zm-121 -20c-11,9 -21,9 -30,1 -8,-9 -15,-17 -20,-26 -5,-8 -8,-16 -11,-25 -3,-8 -1,-16 4,-24 5,-7 12,-14 21,-20 9,-6 18,-10 27,-13 9,-2 18,-2 25,0 8,1 12,7 13,15 1,10 1,19 -1,29 -2,9 -4,19 -7,27 -4,10 -7,17 -11,24 -3,6 -7,10 -10,12z"/>
  <path id="3" class="fil5" d="M1304 1173c11,2 21,5 31,12 11,6 19,17 25,33 4,8 5,16 4,23 -2,6 -4,13 -7,18 -3,5 -7,10 -11,14 -4,4 -7,6 -10,8l-1 0c-1,2 -2,2 -3,1 0,-1 -1,-2 -1,-2 -1,-3 -2,-8 -3,-14 -2,-7 -3,-13 -4,-20 -4,-14 -8,-25 -12,-32 -4,-7 -8,-12 -11,-15 -3,-2 -7,-4 -11,-3 -2,2 -4,3 -6,5 -2,2 -4,4 -7,6 -2,3 -5,7 -7,12 -10,18 -16,41 -20,71 -3,29 -3,59 2,89 5,29 13,54 22,74 3,9 8,17 14,24 6,7 12,13 19,16 7,4 14,6 23,5 8,0 18,-4 28,-10 14,-9 26,-20 34,-34 9,-13 16,-27 21,-40 5,-15 9,-30 13,-46 2,-15 4,-32 5,-51 1,-18 2,-36 3,-54 0,-19 1,-36 0,-52 0,-16 -1,-29 -1,-40 0,-1 1,-4 3,-8 1,-3 4,-6 8,-7 2,0 3,0 5,1 2,0 4,4 5,10 2,49 3,91 1,125 -1,34 -3,62 -7,83 -2,19 -7,37 -15,54 -6,15 -16,31 -27,48 -12,17 -28,31 -49,44 -16,9 -30,14 -43,16 -12,2 -23,2 -32,1 -11,-1 -21,-4 -29,-9 -18,-10 -33,-25 -46,-46 -13,-21 -22,-43 -27,-65 -5,-18 -7,-38 -7,-59 -1,-22 2,-43 8,-64 6,-20 14,-40 26,-58 11,-19 27,-35 46,-47 5,-4 10,-7 16,-10 6,-3 11,-4 17,-6 6,-1 12,-1 18,-1z"/>
  <path id="4" class="fil5" d="M1615 1369c-16,10 -31,15 -44,17 -13,3 -24,3 -33,2 -11,-1 -21,-4 -30,-9 -18,-10 -33,-25 -46,-47 -13,-21 -22,-42 -27,-64 -5,-19 -7,-39 -7,-60 0,-21 2,-42 8,-63 6,-21 15,-40 26,-59 11,-18 27,-34 46,-47 15,-11 28,-17 42,-20 11,-2 23,0 35,5 12,6 22,20 30,43 4,12 6,24 7,36 0,11 0,22 -1,35 -1,12 -5,25 -11,38 -6,13 -13,25 -22,36 -8,10 -16,20 -25,29 -8,9 -17,16 -24,22 -8,7 -14,11 -20,14 6,16 13,29 20,39 7,10 14,18 21,24 6,4 12,6 20,6 6,1 14,0 23,-3 9,-3 19,-9 30,-19 7,-7 13,-16 20,-26 5,-9 11,-20 16,-34 6,-14 9,-29 12,-47 2,-15 4,-32 5,-50 1,-18 2,-37 3,-55 1,-18 1,-35 0,-51 0,-16 0,-30 -1,-40 1,-2 1,-4 2,-8 2,-3 5,-6 9,-7 2,0 3,0 5,0 2,1 4,4 5,10 2,50 3,92 1,126 -1,34 -4,62 -7,83 -3,19 -8,37 -15,54 -6,15 -15,31 -27,47 -11,17 -27,31 -46,43zm-108 -140c1,4 2,10 4,15 1,6 2,11 3,15 22,-23 38,-45 47,-66 9,-21 15,-40 17,-57 2,-16 1,-30 -2,-41 -3,-11 -5,-18 -6,-22l-1 -2c-4,-8 -7,-14 -11,-17 -3,-3 -5,-5 -6,-6l-1 -1c-1,-1 -3,-1 -6,-1l-4 3c-4,3 -8,6 -11,11 -2,4 -4,7 -4,9 -10,18 -17,41 -21,71 -4,30 -3,59 2,89z"/>
  <path class="fil5" d="M2280 1679c-5,2 -12,3 -20,4 -8,1 -15,2 -22,3 -8,1 -16,1 -25,1 -17,1 -31,-2 -40,-10 -9,-8 -15,-18 -19,-28 -5,-13 -8,-26 -8,-42 0,-4 0,-10 1,-17 1,-7 3,-15 6,-24 4,-8 9,-16 16,-25 7,-9 16,-18 27,-26 19,-12 34,-19 47,-21 14,-3 25,-2 34,1 9,3 16,8 21,15 4,7 8,14 9,20 3,13 4,25 2,36 -1,10 -5,20 -12,31 -6,10 -18,19 -35,26 -3,2 -5,2 -6,1 -2,-1 -3,-2 -4,-3 0,-1 -1,-3 -1,-5 2,-6 3,-15 4,-26 0,-10 1,-21 0,-31 0,-10 -1,-18 -4,-26 -3,-7 -7,-11 -14,-11 -8,1 -14,5 -19,15 -6,9 -9,21 -11,34 -3,12 -3,25 -3,38 1,13 4,23 8,30 3,6 7,10 12,13 5,2 10,4 16,4 6,0 11,0 18,-1 5,-1 11,-2 17,-4 47,-9 77,-3 89,18 4,7 6,16 7,28 2,11 0,25 -3,40 -4,15 -12,31 -23,48 -11,17 -27,34 -48,51 -18,13 -33,21 -46,25 -13,5 -23,6 -32,6 -8,-1 -15,-3 -20,-6 -4,-4 -8,-7 -10,-10 -2,-4 -2,-8 0,-12 2,-3 7,-5 13,-6 4,0 11,-4 22,-12 11,-8 22,-18 34,-32 11,-14 21,-29 28,-46 8,-18 11,-36 9,-55 -1,-2 -1,-4 -3,-6 -2,-3 -6,-5 -12,-3z"/>
  <path id="1" class="fil5" d="M2481 1716c1,1 1,2 0,3 0,1 0,2 -1,2 -8,5 -15,8 -21,8 -7,0 -13,-1 -18,-3 -6,-3 -12,-6 -17,-10 -7,-5 -13,-12 -19,-21 -6,-9 -11,-19 -16,-31 -4,-12 -9,-24 -12,-37 -4,-13 -8,-27 -11,-40 -7,-30 -13,-63 -17,-99 -5,-49 -7,-95 -5,-137 2,-18 3,-35 6,-53 2,-18 6,-35 11,-50 6,-15 12,-28 20,-40 8,-11 18,-19 30,-24 6,-3 13,-3 20,-3 6,0 12,2 19,5 7,3 14,9 20,18 2,2 2,3 1,4 0,1 -1,1 -1,1 -1,-1 -1,0 -2,0 -4,0 -10,2 -17,6 -8,5 -14,16 -21,33 -6,18 -11,44 -13,79 -3,35 -2,83 2,144 0,5 0,10 1,16 0,5 1,12 2,19 1,7 2,15 3,23 1,-16 2,-34 5,-53 2,-18 5,-36 10,-53 4,-16 9,-31 17,-44 7,-14 16,-24 28,-30 6,-4 12,-6 17,-7 8,-1 16,-1 23,1 7,2 13,5 20,11 7,5 14,14 19,26 5,12 9,27 11,43 2,16 4,33 4,49 1,16 1,31 1,45 0,15 1,26 2,35 1,14 3,24 5,31 3,7 5,11 7,14 2,3 5,4 8,3 10,-4 19,-15 26,-33 8,-18 13,-39 17,-64 3,-25 5,-52 4,-81 -1,-29 -4,-57 -9,-84 1,-2 1,-4 2,-8 1,-3 3,-5 7,-7 1,0 2,-1 4,0 3,1 5,3 6,8 10,61 14,111 11,149 -2,38 -7,68 -16,90 -8,22 -17,38 -27,48 -11,9 -19,16 -26,19 -14,7 -26,10 -36,8 -10,-2 -19,-8 -26,-17 -7,-9 -12,-20 -16,-35 -4,-14 -7,-30 -10,-47 -2,-17 -4,-35 -5,-53 -1,-19 -3,-37 -4,-54l0 -1c-1,-18 -2,-32 -4,-40 -2,-9 -4,-15 -7,-19 -3,-4 -6,-5 -10,-4 -4,1 -9,7 -13,17 -4,11 -7,25 -10,42 -4,17 -6,37 -8,58 -2,22 -3,44 -3,66 0,23 1,45 3,66 2,21 5,40 10,56 1,5 2,10 4,15 2,4 4,9 6,13 3,4 6,7 9,8z"/>
  <path id="2" class="fil5" d="M2642 1400c-5,-30 -4,-58 2,-85 2,-11 6,-23 10,-34 5,-12 11,-23 19,-34 8,-10 18,-20 30,-29 12,-8 27,-16 43,-22 16,-5 30,-7 41,-5 12,3 22,8 30,15 8,7 15,16 21,26 6,10 10,20 14,30 18,-15 31,-31 39,-48 9,-16 14,-28 17,-36 0,-1 2,-3 3,-5 2,-3 4,-5 7,-7 4,-2 6,-2 7,0 1,1 1,3 1,6 -5,19 -13,39 -24,61 -11,21 -25,41 -42,59 1,3 1,5 2,7 0,2 0,4 1,5 0,2 0,4 0,5 7,43 7,79 1,107 -6,27 -14,50 -25,66 -12,19 -27,34 -44,45 -19,10 -37,14 -54,12 -17,-2 -32,-9 -45,-20 -13,-11 -24,-27 -33,-48 -10,-20 -17,-44 -21,-71zm172 -111c-9,-30 -20,-51 -33,-61 -13,-11 -24,-13 -35,-8 -10,6 -17,15 -21,28 -3,13 -2,26 5,40 4,8 9,14 16,16 7,2 14,2 21,1 8,0 17,-3 26,-7 7,-2 14,-5 21,-9zm15 75c-1,-7 -2,-14 -3,-21 -1,-6 -2,-13 -4,-19 -12,8 -24,14 -37,19 -11,4 -21,6 -30,7 -9,0 -17,-1 -24,-3 -7,-2 -13,-5 -18,-9 -4,-4 -8,-8 -11,-12 0,10 1,22 2,35 1,14 3,28 5,43 3,14 6,28 10,42 4,14 9,26 14,36 5,11 12,18 20,24 7,5 16,6 26,3 5,-2 11,-6 17,-12 7,-6 13,-14 19,-25 6,-12 10,-26 13,-44 3,-17 4,-39 1,-64z"/>
  <path id="3" class="fil5" d="M3175 1293c-5,8 -11,14 -18,18 -8,4 -14,7 -20,8 -16,5 -30,4 -40,-1 -11,-4 -19,-11 -26,-19 -4,22 -10,42 -19,59 -9,17 -21,29 -37,36 -15,6 -29,9 -42,7 -11,-1 -22,-6 -32,-16 -11,-9 -18,-26 -22,-52 -4,-25 -8,-53 -9,-83 -2,-30 -4,-57 -6,-81 0,-9 -1,-16 -3,-22 -2,-6 -4,-12 -5,-16 -1,-2 -2,-4 -2,-6 -1,-3 -1,-6 0,-8 0,-3 2,-6 4,-8 2,-2 5,-3 10,-3 15,-1 27,2 36,9 9,7 16,17 22,29 5,12 9,26 12,41 2,15 3,31 4,47 0,16 0,31 0,45 0,15 1,26 2,36 0,10 1,19 3,27 2,7 4,14 8,19 3,6 8,9 15,9 9,-3 16,-11 21,-22 5,-12 8,-26 11,-42 2,-16 3,-33 3,-52 0,-19 0,-37 -1,-56 -2,-18 -4,-37 -5,-55 -1,-19 -2,-37 -3,-53 -1,-9 -2,-16 -4,-22 -2,-6 -4,-11 -5,-16 -1,-1 -2,-3 -2,-6 0,-3 0,-6 0,-8 1,-3 2,-5 5,-7 2,-2 6,-3 11,-4 14,-1 26,3 35,10 9,7 17,16 22,29 5,13 9,27 11,42 3,16 4,32 5,48 1,16 1,31 1,45 -1,15 0,26 1,36 0,10 2,18 3,26 2,6 4,13 7,18 3,6 7,9 13,10 2,0 5,-1 8,-3 3,-1 6,-4 9,-8 5,-10 9,-21 12,-34 3,-13 5,-26 7,-40 2,-14 4,-29 4,-44 1,-14 2,-29 2,-43 0,-32 -1,-66 -3,-101 -2,-25 -6,-45 -11,-61 -6,-16 -13,-24 -22,-24 -9,0 -17,5 -23,13 -6,8 -11,16 -14,24 0,2 0,4 -2,6 -1,3 -4,4 -6,3 -3,-1 -5,-4 -7,-11 0,-3 -1,-6 -1,-9 -2,-16 1,-32 8,-48 7,-16 20,-27 40,-33 11,-4 21,-4 28,-1 8,3 14,6 18,11 6,5 11,12 14,20 10,22 17,47 19,75 3,29 3,58 1,86 -1,31 -4,60 -8,89 -3,24 -8,49 -14,75 -6,25 -14,46 -23,62z"/>
  <polygon class="fil6 str9" points="1919,125 1919,1222 2876,671 "/>
  <polygon class="fil6 str10" points="1456,858 1531,814 1606,770 1562,695 1518,621 1444,664 1369,708 1413,783 "/>
  <rect class="fil6 str10" transform="matrix(0.838726 -0.544554 0.544554 0.838726 1488.2 1845.86)" width="76.2" height="237.06"/>
  <rect class="fil6 str10" transform="matrix(0.838726 -0.544554 0.544554 0.838726 1619.43 1761.2)" width="76.2" height="237.06"/>
  <circle class="fil2 str11" cx="1339" cy="1967" r="51"/>
  <polygon class="fil7 str12" points="880,2015 850,1981 3174,606 3191,618 "/>
  <circle class="fil2 str11" cx="1818" cy="1671" r="51"/>
  <circle class="fil2 str11" cx="2021" cy="2009" r="51"/>
  <circle class="fil2 str11" cx="1263" cy="968" r="51"/>
  <polyline class="fil2 str13" points="7203,-673 7169,-712 7203,-758 7169,-805 7203,-847 7169,-894 7203,-940 7169,-982 7203,-1029 "/>
  <polyline class="fil2 str4" points="7118,-910 7084,-949 7118,-982 7084,-1016 7118,-1054 7084,-1093 7118,-1126 7084,-1160 7118,-1198 7084,-1236 7118,-1270 7084,-1304 7118,-1342 7084,-1380 7118,-1414 7084,-1448 7118,-1486 "/>
  <line class="fil2 str4" x1="6879" y1="-1490" x2="6879" y2= "-1473" />
  <line class="fil2 str4" x1="6871" y1="-1481" x2="6888" y2= "-1481" />
  <circle class="fil2 str6" cx="7093" cy="-1880" r="34"/>
  <path class="fil2 str4" d="M6801 -2024c0,9 0,34 0,34"/>
  <line class="fil2 str4" x1="6818" y1="-2007" x2="6784" y2= "-2007" />
  <line class="fil2 str4" x1="6725" y1="-3713" x2="6725" y2= "-3679" />
  <line class="fil2 str4" x1="6741" y1="-3696" x2="6708" y2= "-3696" />
  <path class="fil2 str2" d="M6001 -3230c0,4 0,50 0,50"/>
  <line class="fil2 str2" x1="6026" y1="-3205" x2="5975" y2= "-3205" />
  <line class="fil2 str2" x1="7042" y1="-3129" x2="7042" y2= "-3078" />
  <line class="fil2 str2" x1="7067" y1="-3103" x2="7017" y2= "-3103" />
  <line class="fil2 str6" x1="6894" y1="-3362" x2="6894" y2= "-3260" />
  <line class="fil2 str6" x1="6945" y1="-3311" x2="6843" y2= "-3311" />
  <circle class="fil2 str2" cx="6536" cy="-2428" r="25"/>
  <circle class="fil2 str2" cx="7131" cy="-3552" r="25"/>
  <path class="fil2 str2" d="M6873 -2384c-174,174 -297,297 -297,297"/>
  <line class="fil2 str2" x1="6856" y1="-2240" x2="7152" y2= "-2536" />
  <line class="fil2 str2" x1="6483" y1="-3036" x2="7025" y2= "-3798" />
  <polyline class="fil2 str4" points="6102,-3552 6098,-3607 6039,-3611 6035,-3671 5971,-3675 5971,-3734 5908,-3738 5908,-3798 5857,-3806 "/>
  <polygon class="fil1 str1" points="6938,-2773 6856,-2840 6775,-2906 6711,-2827 6647,-2748 6728,-2681 6810,-2615 6874,-2694 "/>
  <circle class="fil1 str1" cx="6648" cy="-1791" r="135"/>
  <polygon class="fil3 str7" points="6375,-3738 6398,-3668 6422,-3598 6344,-3618 6267,-3638 6321,-3688 "/>
  <polygon class="fil3 str7" points="6594,-3541 6618,-3472 6641,-3402 6564,-3422 6486,-3442 6540,-3492 "/>
  <polygon class="fil3 str7" points="6484,-3640 6508,-3570 6531,-3500 6454,-3520 6376,-3540 6430,-3590 "/>
 </g>
</svg>
