<?xml version="1.0" encoding="UTF-8"?>
<!DOCTYPE svg PUBLIC "-//W3C//DTD SVG 1.1//EN" "http://www.w3.org/Graphics/SVG/1.1/DTD/svg11.dtd">
<!-- Creator: CorelDRAW X7 -->
<svg xmlns="http://www.w3.org/2000/svg" xml:space="preserve" width="21.1666mm" height="8.4666mm" version="1.1" style="shape-rendering:geometricPrecision; text-rendering:geometricPrecision; image-rendering:optimizeQuality; fill-rule:evenodd; clip-rule:evenodd"
viewBox="0 0 2117 847"
 xmlns:xlink="http://www.w3.org/1999/xlink">
 <defs>
  <style type="text/css">
   <![CDATA[
    .str8 {stroke:#2B2A29;stroke-width:8.46}
    .str4 {stroke:black;stroke-width:8.46}
    .str13 {stroke:#180A21;stroke-width:8.46}
    .str10 {stroke:#CC0033;stroke-width:8.46}
    .str11 {stroke:#CC0033;stroke-width:8.46}
    .str7 {stroke:#EAA639;stroke-width:8.46}
    .str9 {stroke:#F7931E;stroke-width:8.46}
    .str0 {stroke:#FCBF51;stroke-width:8.46}
    .str1 {stroke:#FFCA5F;stroke-width:8.46}
    .str12 {stroke:#180A21;stroke-width:42.33}
    .str2 {stroke:black;stroke-width:16.93}
    .str3 {stroke:black;stroke-width:20}
    .str6 {stroke:black;stroke-width:25.39}
    .str5 {stroke:black;stroke-width:7.62}
    .fil2 {fill:none}
    .fil7 {fill:#180A21}
    .fil6 {fill:#CC0033}
    .fil3 {fill:#EAA639}
    .fil4 {fill:#F7931E}
    .fil0 {fill:#FCBF51}
    .fil1 {fill:#FFCA5F}
    .fil5 {fill:black;fill-rule:nonzero}
   ]]>
  </style>
 </defs>
 <g id="Слой_x0020_1">
  <metadata id="CorelCorpID_0Corel-Layer"/>
  <path class="fil0 str0" d="M1027 6681l844 -489c85,148 130,317 130,489 0,540 -436,977 -974,977 -539,0 -975,-437 -975,-977 0,-541 436,-978 975,-978l0 978z"/>
  <path class="fil1 str1" d="M1027 5947l-22 16 -17 12c0,0 0,0 -17,0 -17,0 -47,-30 -51,-34 -4,-4 -13,-25 -25,-25 -13,0 -30,12 -43,25 -12,13 -17,17 -34,25 -17,9 -4,9 -21,9 -17,0 -55,-51 -76,-34 -21,17 -30,51 -25,63 4,13 -5,51 0,77 4,25 12,21 12,33 0,13 -17,64 -25,72 -9,9 -30,30 -47,39 -17,8 -17,8 -29,8 -13,0 -55,-25 -68,-47 -13,-21 -38,-60 -51,-67 -13,-8 -25,-7 -29,-5l-9 5c-1,0 -43,18 -47,59 -3,41 -4,55 -4,55l0 59c8,8 47,46 47,51 0,4 0,17 -4,21 -5,4 -31,24 -43,34 -12,10 -21,30 -20,37 1,8 -1,18 16,39 17,21 64,72 76,85 13,13 30,38 34,51 11,31 1,88 -17,114 -17,25 -46,51 -68,59 -21,9 -55,3 -76,0 -21,-2 -64,-12 -76,-12 -12,0 -34,8 -34,25 0,17 26,42 47,55 21,13 51,42 55,68 4,25 -1,35 4,42 5,7 41,-3 63,9 23,11 30,17 34,29 5,13 -29,115 -38,123 -8,8 4,30 13,38 8,9 21,21 55,26 34,4 76,4 93,12 17,9 34,34 30,56 -5,22 -11,53 -13,75 -2,23 13,64 59,64 47,0 55,-30 89,-47 34,-17 67,-14 85,0 18,15 30,28 25,60 -5,31 -25,42 -38,55 -13,12 -13,17 -8,21 4,4 17,7 30,6 14,-1 28,-11 56,-19 28,-8 45,-8 62,-25 17,-17 42,-30 59,-30 17,0 47,7 59,28 13,21 22,44 30,53 9,8 21,-5 25,-9 5,-4 15,-20 17,-46 3,-27 -5,-97 -8,-117 -4,-21 -13,-61 13,-104 25,-42 70,-47 93,-46 22,1 84,21 106,42 21,21 42,68 46,98 4,29 4,63 21,76 17,12 38,12 55,4 17,-9 30,-17 34,-42 4,-26 1,-65 4,-85 4,-20 17,-42 34,-47 17,-4 38,26 64,26 25,0 29,-26 34,-47 4,-21 -17,-55 -30,-68 -13,-12 -59,-59 -63,-76 -5,-17 1,-27 4,-29 3,-3 17,-17 29,-17 13,0 51,0 64,0 13,0 55,0 72,-9 17,-8 46,-30 59,-46 13,-17 41,-72 42,-106 2,-34 -24,-55 -38,-72 -13,-17 -48,-48 -51,-83 -4,-35 1,-65 26,-86 25,-22 58,-27 68,-43 10,-16 -7,-44 -26,-51 -19,-6 -48,-28 -57,-39 -8,-12 -9,-46 2,-58 23,-24 48,-42 83,-42 12,0 27,0 27,-9 0,-8 -12,-29 -17,-34 -4,-4 -12,-25 -17,-42 -4,-17 -4,-30 -4,-34 0,-4 -6,-12 -4,-12l-766 474 1 -769z"/>
  <line class="fil2 str2" x1="125" y1="107" x2="438" y2= "409" />
  <line class="fil2 str3" x1="281" y1="385" x2="578" y2= "682" />
  <path class="fil2 str2" d="M235 694c14,0 25,12 25,26 0,14 -11,25 -25,25 -14,0 -26,-11 -26,-25 0,-14 12,-26 26,-26z"/>
  <circle class="fil2 str3" cx="781" cy="165" r="35"/>
  <path class="fil2 str4" d="M658 440c0,22 0,34 0,34"/>
  <line class="fil2 str4" x1="675" y1="457" x2="641" y2= "457" />
  <polyline class="fil2 str5" points="1187,371 1187,377 1187,383 1187,377 1181,377 1194,377 "/>
  <polyline class="fil2 str4" points="1179,140 1213,178 1251,140 1289,178 1323,140 1357,178 1395,140 1433,178 1467,140 1501,178 1539,140 1577,178 1611,140 1644,178 1683,140 1721,178 1755,140 "/>
  <polyline class="fil2 str4" points="1636,55 1683,89 1725,55 1771,89 1818,55 1860,89 1907,55 1954,89 2000,55 "/>
  <ellipse class="fil1 str1" cx="874" cy="610" rx="138" ry="135"/>
  <line class="fil2 str4" x1="-2686" y1="9155" x2="-2686" y2= "9121" />
  <line class="fil2 str4" x1="-2703" y1="9138" x2="-2669" y2= "9138" />
  <path class="fil2 str2" d="M-1962 8672c0,-4 0,-51 0,-51"/>
  <line class="fil2 str2" x1="-1987" y1="8647" x2="-1937" y2= "8647" />
  <line class="fil2 str2" x1="-3003" y1="8570" x2="-3003" y2= "8520" />
  <line class="fil2 str2" x1="-3029" y1="8545" x2="-2978" y2= "8545" />
  <line class="fil2 str6" x1="-2855" y1="8803" x2="-2855" y2= "8702" />
  <line class="fil2 str6" x1="-2906" y1="8753" x2="-2804" y2= "8753" />
  <circle class="fil2 str2" cx="-3092" cy="8994" r="25"/>
  <line class="fil2 str2" x1="-2445" y1="8477" x2="-2986" y2= "9239" />
  <polyline class="fil2 str4" points="-2064,8994 -2059,9049 -2000,9053 -1996,9112 -1932,9117 -1932,9176 -1869,9180 -1869,9239 -1818,9248 "/>
  <polygon class="fil1 str1" points="-2899,8215 -2818,8281 -2736,8348 -2672,8269 -2608,8189 -2690,8123 -2771,8057 -2835,8136 "/>
  <polygon class="fil3 str7" points="-2336,9179 -2360,9110 -2383,9040 -2306,9060 -2228,9080 -2282,9130 "/>
  <polygon class="fil3 str7" points="-2556,8983 -2579,8913 -2603,8844 -2525,8864 -2447,8884 -2502,8934 "/>
  <polygon class="fil3 str7" points="-2446,9081 -2469,9012 -2493,8942 -2415,8962 -2338,8982 -2392,9032 "/>
  <polyline class="fil2 str8" points="5505,-1775 5471,-1813 5505,-1860 5471,-1907 5505,-1949 5471,-1995 5505,-2042 5471,-2084 5505,-2131 "/>
  <polyline class="fil2 str4" points="5420,-2012 5386,-2051 5420,-2084 5386,-2118 5420,-2156 5386,-2194 5420,-2228 5386,-2262 5420,-2300 5386,-2338 5420,-2372 5386,-2406 5420,-2444 5386,-2482 5420,-2516 5386,-2550 5420,-2588 "/>
  <line class="fil2 str4" x1="5181" y1="-2592" x2="5181" y2= "-2575" />
  <line class="fil2 str4" x1="5173" y1="-2583" x2="5189" y2= "-2583" />
  <circle class="fil2 str6" cx="5395" cy="-2982" r="34"/>
  <path class="fil2 str4" d="M5102 -3126c0,9 0,34 0,34"/>
  <line class="fil2 str4" x1="5119" y1="-3109" x2="5085" y2= "-3109" />
  <line class="fil2 str4" x1="5026" y1="-4815" x2="5026" y2= "-4781" />
  <line class="fil2 str4" x1="5043" y1="-4798" x2="5009" y2= "-4798" />
  <path class="fil2 str2" d="M4302 -4332c0,4 0,51 0,51"/>
  <line class="fil2 str2" x1="4328" y1="-4307" x2="4277" y2= "-4307" />
  <line class="fil2 str2" x1="5344" y1="-4231" x2="5344" y2= "-4180" />
  <line class="fil2 str2" x1="5369" y1="-4205" x2="5318" y2= "-4205" />
  <line class="fil2 str6" x1="5196" y1="-4464" x2="5196" y2= "-4362" />
  <line class="fil2 str6" x1="5246" y1="-4413" x2="5145" y2= "-4413" />
  <circle class="fil2 str2" cx="4838" cy="-3530" r="25"/>
  <circle class="fil2 str2" cx="5433" cy="-4654" r="25"/>
  <path class="fil2 str2" d="M5174 -3486c-173,174 -296,297 -296,297"/>
  <line class="fil2 str2" x1="5157" y1="-3342" x2="5454" y2= "-3638" />
  <line class="fil2 str2" x1="4785" y1="-4138" x2="5327" y2= "-4900" />
  <polyline class="fil2 str4" points="4404,-4654 4400,-4709 4340,-4713 4336,-4773 4273,-4777 4273,-4836 4209,-4840 4209,-4900 4158,-4908 "/>
  <polygon class="fil1 str1" points="5239,-3875 5158,-3942 5077,-4008 5013,-3929 4949,-3850 5030,-3783 5111,-3717 5175,-3796 "/>
  <circle class="fil1 str1" cx="4950" cy="-2893" r="135"/>
  <polygon class="fil3 str7" points="4677,-4840 4700,-4770 4723,-4700 4646,-4720 4568,-4740 4623,-4790 "/>
  <polygon class="fil3 str7" points="4896,-4643 4919,-4574 4943,-4504 4865,-4524 4788,-4544 4842,-4594 "/>
  <polygon class="fil3 str7" points="4786,-4742 4810,-4672 4833,-4602 4756,-4622 4678,-4642 4732,-4692 "/>
  <line class="fil2 str2" x1="5488" y1="9116" x2="5175" y2= "8814" />
  <line class="fil2 str3" x1="5331" y1="8838" x2="5035" y2= "8542" />
  <path class="fil2 str2" d="M5378 8529c-14,0 -25,-11 -25,-25 0,-14 11,-26 25,-26 14,0 25,12 25,26 0,14 -11,25 -25,25z"/>
  <circle class="fil2 str3" cx="4832" cy="9058" r="35"/>
  <path class="fil2 str4" d="M4955 8783c0,-21 0,-34 0,-34"/>
  <line class="fil2 str4" x1="4938" y1="8766" x2="4972" y2= "8766" />
  <polyline class="fil2 str5" points="4425,8853 4425,8847 4425,8840 4425,8847 4432,8847 4419,8847 "/>
  <polyline class="fil2 str4" points="4434,9084 4400,9046 4362,9084 4324,9046 4290,9084 4256,9046 4218,9084 4180,9046 4146,9084 4112,9046 4074,9084 4036,9046 4002,9084 3968,9046 3930,9084 3892,9046 3858,9084 "/>
  <polyline class="fil2 str4" points="3977,9168 3930,9135 3888,9168 3841,9135 3795,9168 3752,9135 3706,9168 3659,9135 3613,9168 "/>
  <ellipse class="fil1 str1" cx="4739" cy="8614" rx="138" ry="135"/>
  <line class="fil2 str2" x1="-2990" y1="377" x2="-3473" y2= "859" />
  <line class="fil2 str2" x1="-2545" y1="128" x2="-3028" y2= "610" />
  <ellipse class="fil2 str2" cx="-2490" cy="670" rx="30" ry="31"/>
  <path class="fil4 str9" d="M1027 5932c-3,7 -7,14 -13,21 -6,7 -16,12 -22,15 -5,3 -17,5 -28,0 -10,-5 -27,-19 -37,-27 -10,-8 -19,-31 -32,-31 -12,0 -29,13 -42,26 -13,13 -20,22 -31,28 -11,6 -30,5 -36,1 -5,-3 -43,-46 -64,-29 -21,17 -30,51 -26,63 5,13 -4,51 0,77 5,25 13,21 13,33 0,13 -7,46 -20,64 -13,17 -34,36 -45,44 -11,9 -24,11 -37,11 -12,0 -55,-25 -67,-47 -13,-21 -38,-60 -51,-67 -13,-8 -24,-7 -30,-5l-14 7c-4,2 -37,16 -41,57 -3,41 -4,55 -4,55l0 59c0,0 9,9 17,17 8,9 30,30 30,34 0,4 0,17 -5,21 -4,4 -30,24 -42,34 -12,10 -22,30 -20,37 1,8 -1,18 16,39 17,21 63,72 76,85 13,13 30,38 34,51 4,12 4,29 4,38 0,8 -4,51 -21,76 -17,25 -47,51 -68,59 -21,9 -55,3 -76,0 -21,-2 -65,-13 -76,-12 -12,0 -34,8 -34,25 0,17 25,42 47,55 21,13 50,42 55,68 4,25 -1,35 4,42 5,7 34,3 54,8 20,4 39,17 43,30 4,13 -34,110 -38,123 -4,13 4,30 13,38 8,8 21,21 55,25 34,5 76,5 93,13 17,9 34,34 29,56 -4,22 -10,53 -12,75 -2,23 13,64 59,64 47,0 55,-30 89,-47 34,-17 67,-14 85,0 18,15 30,28 25,60 -5,31 -25,42 -38,55 -13,12 -13,17 -8,21 4,4 16,6 30,6 13,-1 26,-18 54,-26 28,-8 46,4 63,-13 17,-17 44,-42 62,-43 17,0 44,20 57,36 14,16 21,44 30,52 8,9 21,-4 25,-8 4,-4 14,-20 17,-47 3,-26 -5,-96 -9,-116 -3,-21 -12,-61 13,-104 26,-42 71,-47 94,-46 22,1 84,21 105,42 22,21 43,68 47,97 4,30 4,64 21,77 17,12 38,12 55,4 17,-9 30,-17 34,-42 4,-26 0,-65 4,-85 4,-21 17,-43 34,-47 17,-4 38,26 64,26 25,0 32,-28 33,-47 2,-18 -16,-55 -29,-68 -13,-12 -59,-59 -64,-76 -4,-17 2,-27 5,-29 3,-3 17,-17 29,-17 13,0 51,0 64,0 12,0 55,0 72,-9 17,-8 46,-30 59,-46 13,-17 41,-72 42,-106 2,-34 -25,-55 -38,-72 -13,-17 -48,-49 -52,-83 -4,-35 1,-65 27,-87 25,-21 57,-26 68,-42 10,-16 -7,-44 -26,-51 -19,-6 -48,-28 -57,-40 -9,-11 -9,-45 2,-57 11,-12 22,-23 39,-31 17,-9 31,-11 43,-11 13,0 28,0 28,-9 0,-8 -13,-30 -17,-34 -4,-4 -12,-25 -17,-42 -4,-17 -4,-30 -4,-34 0,-4 6,-8 9,-8l8 0 12 -6 1 39 8 34 19 28c6,9 11,19 11,27 0,9 -12,18 -17,22 -5,3 -39,11 -55,16 -17,6 -30,13 -34,22 -4,8 -5,20 0,29 4,9 34,13 47,17 12,4 27,20 32,29 6,9 18,35 18,52 0,17 -8,33 -17,42 -8,8 -42,26 -51,30 -8,4 -21,12 -21,25 0,13 22,21 34,25 13,5 30,17 34,30 4,13 4,25 -4,34 -9,8 -18,14 -30,17 -12,3 -21,8 -8,13 13,4 28,25 32,34 3,9 14,54 6,80 -9,25 -34,59 -47,76 -12,17 -67,68 -93,72 -25,4 -72,-9 -84,-8 -12,0 -34,1 -39,4 -4,2 -12,9 -12,18 0,8 4,16 17,28 12,13 29,30 42,43 13,12 28,36 34,50 6,14 9,24 8,43 -1,19 -15,44 -29,55 -14,10 -42,14 -53,13 -11,-1 -28,-13 -36,-9 -9,4 -9,24 -9,32 0,9 0,49 -4,65 -4,17 -21,51 -59,68 -38,17 -93,0 -110,-17 -17,-17 -28,-58 -26,-84 2,-26 1,-39 -18,-62 -19,-22 -41,-30 -58,-36 -17,-6 -40,-3 -57,1 -18,4 -27,29 -27,44 1,16 21,71 21,86 -1,15 0,47 -5,72 -4,26 -16,55 -29,77 -13,21 -42,46 -59,46 -17,0 -34,0 -55,-25 -22,-26 -19,-30 -26,-43 -6,-12 -8,-25 -17,-25 -8,0 -28,25 -61,43 -32,18 -43,22 -89,35 -47,13 -68,11 -86,2 -19,-8 -31,-33 -35,-46 -3,-13 -8,-34 4,-55 13,-21 22,-21 34,-34 13,-13 22,-21 9,-21 -13,0 -26,9 -47,25 -20,16 -44,39 -80,38 -37,-1 -55,-4 -72,-12 -17,-9 -38,-22 -51,-38 -13,-17 -17,-39 -17,-68 0,-30 5,-52 11,-59 5,-6 19,-30 19,-39 0,-8 -18,-7 -33,-3 -14,3 -27,8 -56,8 -30,0 -81,-26 -89,-55 -9,-30 -29,-83 -17,-100 13,-16 28,-26 38,-36 10,-9 21,-17 17,-25 -4,-9 -13,-9 -19,-10 -7,-1 -28,-6 -39,-6 -10,0 -27,-5 -35,-14 -9,-8 -14,-17 -13,-29 1,-13 4,-34 4,-51 0,-17 -12,-30 -21,-34 -8,-4 -29,-9 -46,-17 -17,-9 -34,-38 -34,-64 0,-25 8,-46 25,-55 17,-8 51,-25 76,-12 26,12 40,18 61,21 22,3 54,4 66,-4 13,-9 28,-30 34,-43 7,-13 21,-42 21,-67 0,-26 -5,-35 -16,-47 -12,-12 -55,-64 -72,-76 -17,-13 -40,-51 -47,-68 -7,-17 -3,-42 4,-55 8,-13 13,-21 26,-30 12,-8 17,-8 21,-12 4,-5 -13,-13 -21,-16 -7,-3 -30,-22 -34,-39 -4,-17 -20,-57 -15,-91 4,-33 27,-72 40,-91 12,-19 45,-42 63,-49 18,-6 57,-12 77,-6 20,5 30,17 46,33 17,17 22,30 34,51 13,21 13,21 21,21 9,0 22,-4 30,-21 9,-17 26,-93 17,-127 -8,-34 0,-46 0,-59 0,-13 17,-51 38,-64 21,-12 59,-25 72,-16 13,8 17,12 26,29 8,17 0,26 12,21 13,-4 29,-13 34,-19 6,-5 20,-18 33,-24 13,-7 26,-7 35,-3 8,4 25,21 34,34 8,12 12,29 25,34 13,4 24,2 34,-5 10,-7 11,-15 17,-21 5,-6 13,-8 13,-8l0 17z"/>
  <path class="fil5" d="M-334 7122c-6,-31 -6,-56 0,-77 6,-21 14,-39 24,-53 11,-17 25,-31 42,-42l3 -2c1,0 2,-1 3,-3 2,-1 3,-2 6,-3 6,-4 16,-9 27,-13 11,-5 24,-7 37,-8 14,0 27,4 40,10 13,7 25,20 36,38 9,15 14,30 14,43 0,13 -3,25 -8,36 -6,11 -14,20 -23,28 -10,9 -20,15 -29,21 -6,4 -11,6 -14,8 -3,2 -8,4 -14,7 -6,3 -15,7 -28,13 -12,6 -31,14 -56,25l3 5c3,5 10,13 19,24 9,11 21,20 37,28 15,7 35,11 57,10 23,0 49,-10 79,-27 19,-11 34,-24 44,-37 10,-14 17,-27 21,-41 5,-14 7,-28 6,-41 -1,-12 -2,-24 -4,-34 -2,-11 -5,-19 -8,-25 -2,-6 -4,-10 -4,-10 -2,-5 -4,-9 -6,-13 -3,-4 -5,-8 -8,-12 -15,-26 -33,-55 -56,-88 -23,-33 -47,-70 -72,-110 -19,-32 -33,-61 -43,-86 -9,-25 -15,-46 -19,-63 -3,-17 -5,-30 -4,-39 0,-9 1,-14 1,-14 2,-13 7,-26 13,-39 7,-14 17,-24 32,-33 8,-5 16,-8 25,-11 11,-2 22,-2 32,0 9,1 19,5 30,12 11,6 21,17 30,32 10,18 17,34 19,48 3,14 2,26 0,36 -3,10 -8,19 -14,25 -7,7 -14,12 -21,16 -4,3 -8,5 -11,7 -4,2 -6,2 -7,0 0,0 0,-2 0,-3 0,-1 1,-2 1,-2 5,-10 9,-21 10,-32 1,-10 1,-20 -1,-30 -1,-10 -3,-21 -6,-31 -1,-4 -3,-8 -4,-12 -2,-4 -4,-8 -7,-12 -4,-7 -9,-13 -16,-17 -6,-3 -13,-3 -20,1 -8,5 -12,14 -13,27 -1,14 2,30 7,49 5,19 12,40 22,63 10,23 22,46 36,69 10,18 24,40 41,66 18,27 40,58 66,93 2,3 4,5 6,8 3,2 5,5 8,10 3,4 6,8 9,13 6,11 12,24 19,39 8,16 14,33 20,52 5,27 5,54 0,80 -5,23 -15,47 -30,72 -16,26 -41,49 -76,70 -28,17 -54,28 -77,33 -24,5 -45,7 -65,5 -19,-2 -36,-7 -52,-14 -15,-8 -29,-17 -40,-27 -11,-10 -21,-20 -29,-30 -7,-10 -13,-18 -17,-25l-6 -9c-1,-2 -1,-3 -1,-5 -29,14 -58,28 -88,43 -29,14 -58,30 -84,45 -23,13 -42,27 -61,40 -18,13 -33,26 -44,39 -12,14 -19,27 -23,39 -3,13 -2,25 5,37 2,2 3,4 4,6 1,3 3,4 6,6 -2,2 -2,3 1,4 3,1 6,3 11,4 4,2 9,3 13,5 4,1 6,3 7,4 1,2 0,4 -3,5 -6,4 -14,7 -23,9 -10,3 -20,3 -31,3 -11,-1 -21,-5 -32,-11 -10,-5 -20,-15 -27,-27 -10,-17 -15,-34 -14,-53 1,-18 6,-36 15,-54 10,-18 24,-35 42,-53 18,-17 40,-33 65,-48 33,-19 70,-36 113,-49 42,-14 86,-28 132,-43zm120 -42c9,-4 18,-7 25,-12 12,-7 21,-14 26,-22 6,-8 9,-15 11,-22 3,-7 3,-15 1,-23 -1,-3 -2,-6 -5,-10 -5,-10 -12,-16 -20,-20 -7,-4 -14,-5 -22,-5 -7,0 -14,1 -21,4 -7,2 -12,5 -16,7 -6,4 -11,7 -15,11 -5,4 -9,8 -12,11 -3,5 -7,8 -9,11 -7,13 -11,26 -14,37 -2,12 -4,22 -5,31 -1,10 0,20 2,29 13,-4 25,-9 38,-13 12,-5 24,-9 35,-14l1 0z"/>
  <path id="1" class="fil5" d="M193 7006c-12,9 -22,12 -31,11 -10,-1 -18,-4 -25,-9 -8,-5 -15,-12 -21,-21 -16,-26 -29,-55 -38,-87 -8,-32 -15,-63 -20,-92 -5,-34 -8,-68 -9,-102 -1,-21 -2,-46 -1,-74 1,-28 4,-56 9,-82 5,-27 12,-50 23,-71 11,-22 25,-36 43,-44 7,-2 14,-3 21,-3 7,1 13,2 21,6 7,3 14,9 21,19 1,2 2,4 1,4 0,0 0,0 -1,1l-1 0 -1 1c-4,0 -10,1 -18,6 -7,4 -14,14 -21,31 -7,17 -12,41 -16,74 -4,33 -4,78 -1,134 1,29 4,57 8,86 4,25 8,52 13,80 5,29 12,55 21,80 2,4 4,8 5,10 2,3 4,5 6,7 3,1 5,1 8,-2 11,-6 20,-19 27,-39 7,-19 12,-42 16,-69 3,-26 4,-55 3,-85 0,-30 -3,-60 -8,-88 0,-2 0,-5 1,-8 1,-4 4,-6 8,-8 1,-1 3,-1 4,-1 4,1 6,4 7,9 9,61 13,111 12,150 -2,39 -6,71 -13,95 -7,25 -15,43 -26,55 -10,12 -19,21 -27,26z"/>
  <path id="2" class="fil5" d="M384 6585c2,-1 3,-1 5,0 3,1 5,4 6,9 11,66 15,119 13,161 -3,41 -8,73 -17,97 -9,24 -19,42 -30,52 -12,10 -21,17 -28,21 -17,8 -32,11 -43,7 -12,-4 -21,-12 -29,-25 -7,-12 -13,-28 -18,-47 -4,-19 -7,-40 -9,-62 -2,-21 -4,-43 -5,-66 -2,-22 -3,-43 -4,-62 -1,-10 -2,-18 -4,-24 -2,-7 -4,-12 -6,-17 -1,-2 -1,-4 -2,-7 0,-3 0,-6 1,-9 0,-3 2,-5 4,-7 3,-3 7,-4 12,-4 17,-1 30,2 40,10 10,9 18,20 23,34 6,14 10,30 12,47 2,18 3,36 4,53 1,17 1,34 1,50 0,15 1,27 2,37 2,15 4,26 6,33 3,7 5,12 7,15 3,3 6,5 9,4 11,-5 21,-17 29,-36 8,-19 13,-42 17,-69 3,-27 5,-57 4,-88 0,-32 -3,-62 -8,-91 0,-2 0,-5 1,-8 1,-4 4,-6 7,-8zm-120 -20c-11,9 -21,9 -30,0 -8,-8 -15,-17 -21,-26 -4,-7 -7,-15 -10,-24 -3,-9 -1,-17 4,-24 5,-7 12,-14 21,-20 9,-6 18,-10 27,-13 9,-2 17,-3 25,-1 8,2 12,7 13,16 1,9 1,19 -1,28 -2,10 -5,19 -8,28 -3,9 -6,17 -10,23 -4,7 -7,11 -10,13z"/>
  <path id="3" class="fil5" d="M504 6450c11,1 21,5 31,12 10,6 19,17 25,32 4,9 5,17 3,23 -1,7 -3,13 -6,19 -3,5 -7,10 -11,14 -4,4 -8,6 -10,8l-1 0c-2,1 -3,1 -3,0 -1,0 -1,-1 -1,-2 -1,-3 -2,-7 -3,-14 -2,-6 -3,-13 -5,-20 -3,-14 -7,-24 -11,-32 -4,-7 -8,-11 -11,-14 -4,-3 -7,-4 -11,-3 -2,1 -4,3 -6,5 -2,1 -4,4 -7,6 -2,3 -5,7 -7,11 -10,18 -17,42 -20,72 -4,29 -3,59 2,88 5,30 12,55 22,75 3,8 8,16 14,24 5,7 12,12 18,16 7,4 15,5 24,5 8,0 18,-4 28,-10 14,-9 25,-20 34,-34 9,-13 16,-27 21,-40 5,-15 9,-31 12,-47 3,-15 5,-31 6,-50 1,-18 2,-37 2,-55 1,-18 1,-35 1,-51 0,-16 -1,-29 -1,-40 0,-2 1,-4 2,-8 2,-4 5,-6 9,-7 1,0 3,0 5,0 2,1 4,4 4,10 3,50 3,92 2,126 -1,33 -4,61 -7,83 -2,19 -7,37 -15,54 -7,15 -16,31 -28,48 -11,16 -28,31 -48,44 -16,9 -30,14 -43,16 -13,1 -24,2 -33,1 -11,-2 -20,-4 -28,-9 -18,-10 -34,-25 -47,-47 -12,-21 -21,-42 -27,-64 -4,-18 -7,-38 -7,-60 0,-21 3,-42 9,-63 5,-21 14,-40 26,-59 11,-18 26,-34 46,-47 5,-3 10,-7 16,-10 5,-2 11,-4 17,-5 6,-1 12,-2 18,-1z"/>
  <path id="4" class="fil5" d="M815 6646c-16,9 -31,15 -44,17 -13,2 -24,3 -33,2 -11,-2 -21,-5 -30,-9 -18,-10 -33,-26 -46,-47 -13,-21 -22,-43 -27,-64 -5,-19 -7,-39 -7,-60 -1,-21 2,-42 8,-63 6,-21 14,-41 26,-59 11,-19 27,-34 46,-47 14,-11 28,-18 41,-20 12,-2 24,-1 36,5 12,6 22,20 30,43 3,11 6,23 6,36 1,11 1,22 0,35 -1,12 -5,25 -11,37 -6,13 -14,25 -22,36 -8,11 -16,21 -25,30 -9,8 -17,16 -24,22 -8,6 -15,11 -20,14 6,16 12,29 19,39 7,10 15,18 22,23 5,4 12,6 20,7 6,0 14,-1 23,-3 9,-3 19,-9 29,-19 7,-7 14,-16 20,-27 6,-9 11,-20 17,-33 5,-14 9,-30 12,-47 2,-15 4,-32 5,-50 1,-19 2,-37 3,-55 0,-18 0,-35 0,-52 0,-16 -1,-29 -1,-39 0,-2 1,-5 2,-8 1,-4 4,-6 9,-7 2,-1 3,0 5,0 2,1 4,4 5,10 2,50 2,91 1,125 -2,34 -4,62 -7,84 -3,19 -8,37 -16,54 -6,15 -14,30 -26,47 -12,16 -27,31 -46,43zm-108 -140c1,4 2,9 3,15 2,6 3,11 4,15 22,-24 38,-46 47,-67 9,-21 15,-40 17,-56 2,-17 1,-30 -2,-41 -3,-11 -5,-18 -6,-22l-2 -2c-3,-8 -6,-14 -10,-18 -3,-2 -5,-4 -6,-5l-1 -1c-1,-1 -3,-1 -6,-1l-4 3c-5,2 -8,6 -11,10 -3,5 -4,8 -5,9 -9,18 -16,42 -20,72 -4,29 -3,59 2,89z"/>
  <path class="fil5" d="M1479 6956c-4,1 -11,3 -19,4 -8,1 -15,2 -22,3 -8,0 -16,1 -25,1 -18,1 -31,-3 -40,-11 -9,-8 -15,-17 -20,-28 -4,-12 -7,-26 -8,-41 1,-4 1,-10 2,-17 1,-8 3,-16 6,-24 4,-8 9,-17 15,-25 7,-10 17,-18 28,-26 19,-12 34,-20 47,-22 14,-2 25,-1 34,2 9,3 16,8 20,15 5,7 9,14 10,20 3,12 4,24 2,36 -1,10 -5,20 -12,31 -6,10 -18,19 -35,26 -3,1 -5,2 -7,1 -1,-1 -2,-2 -3,-3 -1,-1 -1,-3 -1,-5 1,-7 2,-15 3,-26 1,-11 2,-21 1,-31 0,-10 -2,-19 -4,-26 -3,-7 -8,-11 -14,-11 -8,0 -14,5 -20,15 -5,9 -9,20 -11,33 -2,13 -3,26 -2,39 1,13 3,23 7,29 4,6 8,11 13,13 5,3 10,4 16,5 5,0 11,0 17,-1 6,-1 12,-2 18,-4 47,-9 77,-3 89,18 3,7 6,16 7,27 1,12 0,26 -4,40 -4,16 -11,32 -22,49 -11,17 -27,34 -48,51 -18,12 -34,21 -46,25 -13,4 -23,6 -32,6 -8,-1 -15,-3 -20,-7 -5,-4 -8,-7 -10,-10 -2,-3 -2,-7 -1,-11 3,-3 8,-5 14,-6 3,0 11,-4 22,-12 11,-8 22,-19 34,-32 11,-14 20,-29 28,-47 8,-17 11,-35 8,-54 0,-2 -1,-4 -2,-6 -2,-4 -6,-5 -13,-3z"/>
  <path id="1" class="fil5" d="M1681 6993c1,0 1,1 0,3 0,1 0,1 -1,2 -8,5 -15,7 -21,7 -7,1 -13,0 -18,-3 -6,-2 -12,-5 -17,-9 -7,-5 -14,-12 -19,-21 -6,-9 -11,-20 -16,-31 -5,-12 -9,-25 -13,-38 -3,-13 -7,-26 -10,-39 -7,-31 -13,-64 -17,-99 -6,-50 -7,-95 -5,-137 1,-18 3,-36 6,-54 2,-17 6,-34 11,-49 5,-15 12,-29 20,-40 8,-11 18,-19 30,-25 6,-2 13,-3 20,-2 6,0 12,2 19,5 7,3 14,9 20,17 1,2 2,4 1,5 -1,0 -1,0 -1,0 -1,0 -1,0 -2,1 -4,0 -10,2 -17,6 -8,4 -15,15 -21,33 -6,17 -11,44 -14,79 -2,35 -2,83 3,144 0,5 0,10 1,16 0,5 1,11 2,19 1,7 2,15 3,23 1,-17 2,-34 4,-53 3,-19 6,-37 10,-53 5,-17 10,-32 18,-45 7,-13 16,-23 27,-29 7,-4 13,-6 18,-7 8,-1 16,-1 23,1 6,2 13,5 20,10 7,6 13,14 19,26 5,13 9,27 11,44 2,16 4,32 4,48 1,16 1,32 1,46 0,14 1,26 2,35 1,14 3,24 5,31 2,6 5,11 7,13 2,4 5,5 8,4 10,-5 19,-16 26,-33 7,-18 13,-39 16,-64 4,-25 5,-53 4,-82 0,-28 -3,-56 -8,-83 0,-2 1,-5 2,-8 0,-3 3,-5 7,-7 1,-1 2,-1 4,-1 3,1 5,4 6,9 10,61 13,110 11,149 -2,38 -8,68 -16,90 -8,22 -17,38 -28,48 -10,9 -19,15 -25,19 -14,7 -26,9 -36,7 -11,-2 -19,-7 -26,-16 -7,-9 -12,-21 -16,-35 -4,-15 -8,-30 -10,-47 -3,-18 -4,-35 -6,-54 -1,-18 -2,-36 -3,-54l0 0c-1,-19 -2,-32 -4,-41 -2,-8 -5,-14 -7,-18 -4,-4 -7,-5 -10,-4 -5,1 -9,6 -13,17 -4,10 -7,24 -11,42 -3,17 -5,36 -7,58 -2,22 -3,44 -3,66 0,23 1,44 3,66 2,21 5,40 9,56 1,5 3,10 5,15 1,4 3,8 6,12 3,4 6,7 9,9z"/>
  <path id="2" class="fil5" d="M1842 6677c-5,-30 -4,-58 1,-85 3,-12 6,-23 11,-35 5,-11 11,-22 19,-33 8,-10 18,-20 30,-29 12,-9 26,-16 43,-22 16,-6 30,-7 41,-5 12,2 22,7 30,15 8,7 15,16 21,26 5,10 10,20 13,30 18,-16 32,-32 40,-48 9,-16 14,-28 17,-36 0,-1 1,-3 3,-5 1,-3 3,-5 6,-7 4,-2 7,-2 8,-1 1,2 1,4 1,7 -5,19 -13,39 -24,60 -11,22 -25,42 -42,60 0,3 1,5 1,7 1,2 1,4 1,5 1,2 1,3 1,5 7,43 7,78 1,106 -6,28 -15,50 -25,67 -12,19 -27,34 -45,44 -19,10 -37,14 -54,12 -16,-1 -31,-8 -44,-19 -13,-12 -24,-28 -34,-48 -9,-20 -16,-44 -20,-71zm172 -112c-10,-30 -21,-50 -33,-60 -13,-11 -25,-13 -35,-8 -11,6 -18,15 -21,28 -4,13 -2,26 5,40 3,8 9,13 16,15 7,2 14,3 21,2 8,-1 16,-3 26,-7 7,-3 14,-6 21,-10zm15 76c-1,-7 -2,-14 -3,-21 -1,-7 -2,-13 -4,-19 -12,8 -24,14 -37,19 -11,4 -22,6 -31,6 -9,1 -16,0 -23,-2 -7,-2 -13,-5 -18,-9 -5,-4 -9,-8 -12,-12 1,10 2,21 3,35 1,14 3,28 5,42 2,15 6,29 10,43 4,14 8,26 14,36 5,10 12,18 19,23 8,6 17,7 27,3 5,-1 11,-5 17,-11 7,-6 13,-14 19,-26 6,-11 10,-25 13,-43 3,-17 3,-39 1,-64z"/>
  <path id="3" class="fil5" d="M2375 6570c-5,8 -12,14 -19,18 -7,4 -13,6 -19,8 -16,4 -30,4 -40,-1 -11,-5 -19,-11 -26,-19 -4,22 -10,42 -19,59 -9,17 -22,29 -37,35 -15,7 -29,10 -42,8 -11,-1 -22,-6 -32,-16 -11,-9 -18,-27 -22,-52 -5,-25 -8,-53 -9,-83 -2,-30 -4,-57 -7,-81 0,-9 -1,-17 -3,-23 -2,-6 -3,-11 -5,-15 0,-2 -1,-4 -2,-7 0,-2 0,-5 1,-8 0,-2 1,-5 4,-7 2,-2 5,-3 10,-4 15,0 27,3 36,10 9,7 16,16 22,29 5,12 9,25 11,41 3,15 4,31 4,47 1,15 1,30 1,45 0,14 1,26 2,35 0,11 1,20 3,28 1,7 4,13 7,19 4,6 9,9 15,9 10,-4 17,-11 22,-22 5,-12 8,-26 11,-42 2,-16 3,-33 3,-52 0,-19 0,-37 -1,-56 -2,-18 -4,-37 -5,-56 -1,-18 -2,-36 -4,-52 0,-9 -1,-16 -3,-22 -2,-7 -4,-12 -5,-16 -1,-2 -2,-4 -2,-7 0,-2 0,-5 0,-7 1,-3 2,-5 4,-7 3,-3 6,-4 11,-4 15,-1 27,2 36,9 9,7 16,17 22,30 5,12 9,26 11,42 2,16 4,32 5,48 1,15 1,31 1,45 -1,14 -1,26 0,35 1,10 2,19 4,27 1,6 4,12 6,18 4,6 8,9 14,9 2,0 5,-1 8,-2 3,-1 6,-4 9,-9 4,-9 8,-20 12,-33 3,-13 5,-27 7,-41 2,-14 3,-28 4,-43 1,-15 1,-29 2,-43 0,-32 -1,-66 -3,-101 -2,-25 -6,-45 -12,-61 -5,-17 -12,-25 -21,-24 -10,0 -17,4 -23,13 -6,8 -11,16 -14,24 0,2 -1,4 -2,5 -1,4 -4,5 -7,3 -3,0 -5,-3 -6,-10 0,-3 -1,-6 -2,-10 -1,-15 2,-31 9,-47 6,-16 20,-27 40,-33 11,-4 20,-4 28,-1 7,2 13,6 18,11 6,5 10,11 14,20 10,21 17,46 19,75 3,29 3,57 1,86 -1,30 -4,60 -8,88 -3,25 -8,50 -14,75 -6,26 -14,47 -23,63z"/>
  <polygon class="fil6 str10" points="1119,5402 1119,6499 2076,5948 "/>
  <polygon class="fil6 str11" points="656,6134 731,6091 806,6047 762,5972 718,5897 643,5941 569,5985 612,6060 "/>
  <rect class="fil6 str11" transform="matrix(0.838726 -0.544554 0.544554 0.838726 687.989 7122.58)" width="76.2" height="237.06"/>
  <rect class="fil6 str11" transform="matrix(0.838726 -0.544554 0.544554 0.838726 819.219 7037.92)" width="76.2" height="237.06"/>
  <circle class="fil2 str12" cx="539" cy="7244" r="51"/>
  <polygon class="fil7 str13" points="80,7292 50,7258 2374,5882 2391,5895 "/>
  <circle class="fil2 str12" cx="1017" cy="6947" r="51"/>
  <circle class="fil2 str12" cx="1221" cy="7286" r="51"/>
  <circle class="fil2 str12" cx="463" cy="6245" r="51"/>
 </g>
</svg>
