<?xml version="1.0" encoding="UTF-8"?>
<!DOCTYPE svg PUBLIC "-//W3C//DTD SVG 1.1//EN" "http://www.w3.org/Graphics/SVG/1.1/DTD/svg11.dtd">
<!-- Creator: CorelDRAW X7 -->
<svg xmlns="http://www.w3.org/2000/svg" xml:space="preserve" width="16.9332mm" height="12.6998mm" version="1.1" style="shape-rendering:geometricPrecision; text-rendering:geometricPrecision; image-rendering:optimizeQuality; fill-rule:evenodd; clip-rule:evenodd"
viewBox="0 0 1693 1270"
 xmlns:xlink="http://www.w3.org/1999/xlink">
 <defs>
  <style type="text/css">
   <![CDATA[
    .str8 {stroke:#2B2A29;stroke-width:8.46}
    .str4 {stroke:black;stroke-width:8.46}
    .str13 {stroke:#180A21;stroke-width:8.46}
    .str10 {stroke:#CC0033;stroke-width:8.46}
    .str11 {stroke:#CC0033;stroke-width:8.46}
    .str7 {stroke:#EAA639;stroke-width:8.46}
    .str9 {stroke:#F7931E;stroke-width:8.46}
    .str0 {stroke:#FCBF51;stroke-width:8.46}
    .str1 {stroke:#FFCA5F;stroke-width:8.46}
    .str12 {stroke:#180A21;stroke-width:42.33}
    .str2 {stroke:black;stroke-width:16.93}
    .str3 {stroke:black;stroke-width:20}
    .str6 {stroke:black;stroke-width:25.39}
    .str5 {stroke:black;stroke-width:7.62}
    .fil2 {fill:none}
    .fil7 {fill:#180A21}
    .fil6 {fill:#CC0033}
    .fil3 {fill:#EAA639}
    .fil4 {fill:#F7931E}
    .fil0 {fill:#FCBF51}
    .fil1 {fill:#FFCA5F}
    .fil5 {fill:black;fill-rule:nonzero}
   ]]>
  </style>
 </defs>
 <g id="Слой_x0020_1">
  <metadata id="CorelCorpID_0Corel-Layer"/>
  <path class="fil0 str0" d="M815 6892l844 -489c85,149 130,318 130,489 0,540 -436,978 -974,978 -538,0 -975,-438 -975,-978 0,-540 437,-978 975,-978l0 978z"/>
  <path class="fil1 str1" d="M815 6158l-22 17 -17 11c0,0 0,0 -17,0 -17,0 -46,-29 -51,-33 -4,-5 -12,-26 -25,-26 -13,0 -30,13 -42,26 -13,12 -17,17 -34,25 -17,8 -5,8 -21,8 -17,0 -56,-50 -77,-33 -21,16 -29,50 -25,63 4,13 -4,51 0,76 4,26 13,21 13,34 0,13 -17,64 -26,72 -8,9 -29,30 -46,38 -17,9 -17,9 -30,9 -13,0 -55,-26 -68,-47 -12,-21 -38,-60 -51,-68 -12,-7 -24,-6 -29,-4l-9 4c0,1 -43,18 -46,60 -4,41 -4,55 -4,55l0 59c7,8 46,45 46,51 0,4 0,17 -4,21 -4,4 -31,24 -42,34 -12,10 -22,29 -21,37 2,7 -1,18 16,39 17,21 64,72 77,85 12,12 29,38 33,50 11,32 1,89 -17,115 -16,25 -46,51 -67,59 -21,8 -56,3 -76,0 -21,-3 -65,-13 -77,-13 -11,0 -34,9 -34,26 0,17 26,42 47,55 21,12 51,42 55,67 4,26 -1,36 4,43 5,7 41,-4 64,8 23,12 29,17 34,30 4,13 -30,114 -38,123 -9,8 4,29 12,38 9,8 21,21 55,25 34,4 77,4 93,13 17,8 34,34 30,56 -5,22 -11,53 -13,75 -1,23 13,64 60,64 46,0 55,-30 89,-47 33,-17 66,-14 84,0 18,14 30,28 26,59 -5,31 -26,43 -38,55 -13,13 -13,17 -9,21 4,5 17,7 30,6 14,-1 28,-11 56,-19 28,-8 45,-8 62,-25 17,-17 43,-29 59,-29 17,0 47,7 60,28 12,21 21,44 29,52 9,9 22,-4 26,-8 4,-5 14,-21 17,-47 2,-26 -6,-96 -9,-116 -3,-21 -12,-62 13,-104 25,-42 71,-48 93,-47 22,2 85,22 106,43 21,21 42,68 46,97 5,30 5,64 22,76 17,13 38,13 55,5 17,-9 29,-17 34,-43 4,-25 0,-64 4,-84 4,-21 17,-43 34,-47 17,-4 38,25 63,25 26,0 30,-25 34,-46 4,-21 -17,-55 -30,-68 -12,-13 -59,-59 -63,-76 -4,-17 1,-27 4,-30 3,-2 17,-17 30,-17 12,0 51,0 63,0 13,0 55,0 72,-8 17,-9 46,-30 59,-47 14,-16 41,-71 43,-106 1,-34 -25,-55 -38,-71 -13,-17 -48,-49 -52,-84 -4,-34 1,-65 26,-86 26,-21 58,-26 68,-42 10,-16 -6,-44 -25,-51 -19,-7 -49,-29 -57,-40 -9,-11 -10,-45 2,-57 22,-24 48,-43 82,-43 13,0 28,0 28,-8 0,-9 -13,-30 -17,-34 -4,-4 -13,-25 -17,-42 -4,-17 -4,-30 -4,-34 0,-4 -7,-12 -4,-12l-766 474 0 -770z"/>
  <line class="fil2 str2" x1="-3597" y1="-4427" x2="-3283" y2= "-4125" />
  <line class="fil2 str3" x1="-3440" y1="-4149" x2="-3144" y2= "-3853" />
  <path class="fil2 str2" d="M-3487 -3840c14,0 26,12 26,26 0,14 -12,25 -26,25 -14,0 -25,-11 -25,-25 0,-14 11,-26 25,-26z"/>
  <circle class="fil2 str3" cx="-2941" cy="-4369" r="35"/>
  <path class="fil2 str4" d="M-3063 -4094c0,21 0,34 0,34"/>
  <line class="fil2 str4" x1="-3046" y1="-4077" x2="-3080" y2= "-4077" />
  <polyline class="fil2 str5" points="-2534,-4164 -2534,-4157 -2534,-4151 -2534,-4157 -2541,-4157 -2528,-4157 "/>
  <polyline class="fil2 str4" points="-2543,-4394 -2509,-4356 -2471,-4394 -2433,-4356 -2399,-4394 -2365,-4356 -2327,-4394 -2289,-4356 -2255,-4394 -2221,-4356 -2183,-4394 -2145,-4356 -2111,-4394 -2077,-4356 -2039,-4394 -2001,-4356 -1967,-4394 "/>
  <polyline class="fil2 str4" points="-2085,-4479 -2039,-4445 -1997,-4479 -1950,-4445 -1903,-4479 -1861,-4445 -1815,-4479 -1768,-4445 -1721,-4479 "/>
  <ellipse class="fil1 str1" cx="-2847" cy="-3925" rx="138" ry="135"/>
  <line class="fil2 str4" x1="-3008" y1="9566" x2="-3008" y2= "9532" />
  <line class="fil2 str4" x1="-3025" y1="9549" x2="-2992" y2= "9549" />
  <path class="fil2 str2" d="M-2285 9083c0,-4 0,-51 0,-51"/>
  <line class="fil2 str2" x1="-2310" y1="9058" x2="-2259" y2= "9058" />
  <line class="fil2 str2" x1="-3326" y1="8981" x2="-3326" y2= "8931" />
  <line class="fil2 str2" x1="-3351" y1="8956" x2="-3301" y2= "8956" />
  <line class="fil2 str6" x1="-3178" y1="9214" x2="-3178" y2= "9113" />
  <line class="fil2 str6" x1="-3229" y1="9163" x2="-3127" y2= "9163" />
  <circle class="fil2 str2" cx="-3415" cy="9405" r="25"/>
  <line class="fil2 str2" x1="-2767" y1="8888" x2="-3309" y2= "9650" />
  <polyline class="fil2 str4" points="-2386,9405 -2382,9460 -2323,9464 -2318,9523 -2255,9528 -2255,9587 -2191,9591 -2191,9650 -2141,9659 "/>
  <polygon class="fil1 str1" points="-3221,8626 -3140,8692 -3059,8759 -2995,8679 -2931,8600 -3012,8534 -3093,8468 -3157,8547 "/>
  <polygon class="fil3 str7" points="-2659,9590 -2682,9521 -2706,9451 -2628,9471 -2551,9491 -2605,9541 "/>
  <polygon class="fil3 str7" points="-2878,9394 -2902,9324 -2925,9254 -2848,9275 -2770,9295 -2824,9344 "/>
  <polygon class="fil3 str7" points="-2768,9492 -2792,9423 -2815,9353 -2738,9373 -2660,9393 -2714,9443 "/>
  <polyline class="fil2 str8" points="3244,2037 3210,1999 3244,1953 3210,1906 3244,1864 3210,1817 3244,1771 3210,1728 3244,1682 "/>
  <polyline class="fil2 str4" points="3159,1800 3125,1762 3159,1728 3125,1694 3159,1656 3125,1618 3159,1584 3125,1550 3159,1512 3125,1474 3159,1440 3125,1406 3159,1368 3125,1330 3159,1296 3125,1263 3159,1224 "/>
  <line class="fil2 str4" x1="2920" y1="1221" x2="2920" y2= "1238" />
  <line class="fil2 str4" x1="2912" y1="1229" x2="2929" y2= "1229" />
  <circle class="fil2 str6" cx="3134" cy="831" r="34"/>
  <path class="fil2 str4" d="M2842 687c0,8 0,34 0,34"/>
  <line class="fil2 str4" x1="2859" y1="704" x2="2825" y2= "704" />
  <line class="fil2 str4" x1="1101" y1="319" x2="1101" y2= "353" />
  <line class="fil2 str4" x1="1118" y1="336" x2="1084" y2= "336" />
  <path class="fil2 str2" d="M377 802c0,4 0,51 0,51"/>
  <line class="fil2 str2" x1="403" y1="827" x2="352" y2= "827" />
  <line class="fil2 str2" x1="1419" y1="903" x2="1419" y2= "954" />
  <line class="fil2 str2" x1="1444" y1="929" x2="1393" y2= "929" />
  <line class="fil2 str6" x1="1270" y1="671" x2="1270" y2= "772" />
  <line class="fil2 str6" x1="1321" y1="721" x2="1220" y2= "721" />
  <circle class="fil2 str2" cx="2577" cy="282" r="25"/>
  <circle class="fil2 str2" cx="1507" cy="480" r="25"/>
  <path class="fil2 str2" d="M2914 327c-174,174 -297,296 -297,296"/>
  <line class="fil2 str2" x1="2897" y1="471" x2="3193" y2= "175" />
  <line class="fil2 str2" x1="860" y1="997" x2="1402" y2= "235" />
  <polyline class="fil2 str4" points="479,480 475,425 415,421 411,362 348,357 348,298 284,294 284,235 233,226 "/>
  <polygon class="fil1 str1" points="2979,-63 2897,-129 2816,-195 2752,-116 2688,-37 2769,29 2851,96 2915,17 "/>
  <circle class="fil1 str1" cx="2689" cy="920" r="135"/>
  <polygon class="fil3 str7" points="751,294 775,364 798,434 721,414 643,394 697,344 "/>
  <polygon class="fil3 str7" points="971,491 994,561 1018,630 940,610 863,590 917,540 "/>
  <polygon class="fil3 str7" points="861,392 884,462 908,532 830,512 753,492 807,442 "/>
  <line class="fil2 str2" x1="7322" y1="9361" x2="7009" y2= "9059" />
  <line class="fil2 str3" x1="7165" y1="9083" x2="6869" y2= "8787" />
  <path class="fil2 str2" d="M7212 8774c-14,0 -26,-11 -26,-25 0,-15 12,-26 26,-26 14,0 25,11 25,26 0,14 -11,25 -25,25z"/>
  <circle class="fil2 str3" cx="6666" cy="9303" r="35"/>
  <path class="fil2 str4" d="M6789 9028c0,-21 0,-34 0,-34"/>
  <line class="fil2 str4" x1="6772" y1="9011" x2="6805" y2= "9011" />
  <polyline class="fil2 str5" points="6259,9098 6259,9091 6259,9085 6259,9091 6266,9091 6253,9091 "/>
  <polyline class="fil2 str4" points="6268,9328 6234,9290 6196,9328 6158,9290 6124,9328 6090,9290 6052,9328 6014,9290 5980,9328 5946,9290 5908,9328 5870,9290 5836,9328 5802,9290 5764,9328 5726,9290 5692,9328 "/>
  <polyline class="fil2 str4" points="5811,9413 5764,9379 5722,9413 5675,9379 5629,9413 5586,9379 5540,9413 5493,9379 5447,9413 "/>
  <ellipse class="fil1 str1" cx="6573" cy="8859" rx="138" ry="135"/>
  <line class="fil2 str2" x1="-3202" y1="589" x2="-3684" y2= "1070" />
  <line class="fil2 str2" x1="-2757" y1="340" x2="-3240" y2= "821" />
  <ellipse class="fil2 str2" cx="-2702" cy="881" rx="30" ry="31"/>
  <path class="fil4 str9" d="M815 6143c-3,8 -7,14 -13,21 -6,7 -16,13 -21,16 -6,2 -18,5 -28,0 -11,-6 -28,-19 -38,-27 -10,-8 -19,-31 -31,-31 -13,0 -30,13 -43,25 -12,13 -20,23 -31,29 -11,6 -30,5 -35,1 -6,-3 -44,-46 -65,-30 -21,17 -30,51 -25,64 4,13 -5,51 0,76 4,26 12,21 12,34 0,13 -7,46 -19,63 -13,18 -35,36 -46,45 -11,8 -23,11 -36,11 -13,0 -55,-26 -68,-47 -13,-21 -38,-60 -51,-68 -12,-7 -23,-7 -29,-4l-15 7c-4,2 -37,15 -40,57 -4,41 -5,55 -5,55l0 59c0,0 9,8 17,17 9,8 30,29 30,34 0,4 0,17 -4,21 -5,4 -31,24 -43,34 -11,10 -21,29 -20,37 1,7 -1,18 16,39 17,21 64,72 76,85 13,12 30,38 34,50 4,13 4,30 4,38 0,9 -4,51 -21,77 -17,25 -46,50 -67,59 -22,8 -56,3 -77,0 -21,-3 -64,-13 -76,-13 -11,0 -34,9 -34,26 0,17 26,42 47,55 21,12 51,42 55,67 4,26 -1,36 4,43 5,7 35,3 55,7 20,5 38,18 42,31 5,12 -34,109 -38,123 -3,13 5,29 13,38 9,8 21,21 55,25 34,4 76,4 93,13 17,8 34,34 30,56 -5,22 -11,52 -13,75 -2,23 13,63 59,63 47,0 55,-29 89,-46 34,-17 67,-14 85,0 18,14 30,28 25,59 -4,31 -25,43 -38,55 -12,13 -12,17 -8,21 4,5 17,7 30,6 14,-1 26,-17 54,-25 28,-8 46,3 63,-14 17,-17 44,-41 62,-42 17,-1 44,20 58,36 13,16 21,44 29,52 9,9 21,-4 26,-8 4,-5 14,-21 17,-47 2,-26 -6,-96 -9,-117 -4,-20 -13,-61 13,-103 25,-42 71,-48 93,-47 22,1 85,22 106,43 21,21 42,67 46,97 5,30 5,64 21,76 17,13 39,13 55,4 17,-8 30,-16 34,-42 5,-25 1,-64 5,-85 3,-20 17,-42 33,-46 17,-4 39,25 64,25 25,0 33,-28 34,-46 1,-19 -17,-55 -30,-68 -13,-13 -59,-59 -63,-76 -5,-17 1,-27 4,-30 3,-3 17,-17 30,-17 12,0 50,0 63,0 13,0 55,0 72,-8 17,-9 46,-30 59,-47 13,-17 41,-72 43,-106 1,-34 -25,-55 -38,-72 -14,-16 -48,-48 -52,-83 -4,-34 1,-65 26,-86 26,-21 58,-26 68,-42 10,-16 -7,-44 -26,-51 -19,-7 -48,-29 -57,-40 -8,-11 -9,-45 2,-57 12,-13 22,-23 39,-32 17,-8 31,-11 44,-11 12,0 27,0 27,-8 0,-9 -12,-30 -16,-34 -5,-4 -13,-25 -17,-42 -5,-17 -5,-30 -5,-34 0,-5 7,-9 9,-9l8 0 12 -6 1 40 8 34 19 28c7,9 11,19 11,27 0,8 -12,18 -17,21 -5,4 -38,11 -55,17 -16,6 -29,13 -34,21 -4,9 -4,21 0,30 5,8 34,13 47,17 13,4 27,20 33,29 5,9 18,34 18,51 0,17 -9,34 -17,43 -9,8 -43,25 -51,29 -9,5 -21,13 -21,26 0,12 21,21 34,25 12,4 29,17 33,30 5,12 5,25 -4,34 -8,8 -18,13 -30,17 -12,3 -21,8 -8,12 13,4 28,25 32,34 4,9 15,55 6,80 -8,26 -34,60 -46,77 -13,17 -68,67 -93,72 -26,4 -73,-9 -85,-9 -11,1 -33,2 -38,4 -5,3 -13,10 -13,19 0,8 4,15 17,28 13,13 30,30 42,42 13,13 29,37 34,51 6,14 10,24 9,42 -1,19 -16,45 -30,55 -14,11 -41,15 -53,14 -11,-1 -27,-14 -36,-9 -8,4 -8,24 -8,32 0,8 0,48 -5,65 -4,17 -21,51 -59,68 -38,17 -93,0 -110,-17 -17,-17 -27,-59 -25,-85 2,-26 0,-39 -19,-61 -18,-22 -41,-30 -57,-36 -17,-6 -40,-3 -58,1 -17,3 -27,28 -26,44 1,15 20,71 20,86 0,15 0,47 -4,72 -4,25 -17,55 -30,76 -13,21 -42,47 -59,47 -17,0 -34,0 -55,-26 -21,-25 -19,-30 -26,-42 -6,-12 -8,-25 -16,-25 -9,0 -29,24 -61,42 -33,18 -43,23 -90,36 -46,12 -67,10 -86,2 -19,-8 -31,-34 -34,-46 -4,-13 -9,-34 4,-55 13,-22 21,-22 34,-34 12,-13 21,-22 8,-22 -13,0 -26,10 -46,26 -21,16 -44,39 -81,38 -36,-1 -55,-4 -72,-13 -17,-8 -38,-21 -51,-38 -12,-17 -17,-38 -17,-68 0,-29 5,-52 11,-58 6,-7 19,-30 19,-39 0,-8 -18,-8 -32,-4 -14,4 -27,8 -57,8 -29,0 -80,-25 -89,-55 -8,-29 -29,-82 -16,-99 12,-17 27,-27 37,-36 11,-10 22,-17 17,-26 -4,-8 -12,-8 -19,-9 -6,-2 -27,-6 -38,-6 -11,-1 -27,-6 -36,-14 -8,-9 -13,-18 -12,-30 1,-12 4,-34 4,-51 0,-17 -13,-29 -21,-34 -9,-4 -30,-8 -47,-16 -17,-9 -34,-39 -34,-64 0,-25 9,-47 26,-55 17,-8 50,-25 76,-13 25,13 39,18 61,22 21,3 53,4 66,-5 12,-8 27,-29 34,-42 6,-13 21,-42 21,-68 0,-25 -6,-34 -17,-46 -11,-13 -55,-64 -72,-77 -17,-12 -40,-50 -47,-67 -7,-18 -3,-42 5,-55 7,-13 12,-22 25,-30 13,-8 17,-8 21,-13 4,-4 -13,-12 -20,-15 -8,-4 -31,-23 -35,-40 -4,-17 -19,-56 -15,-90 4,-34 28,-73 40,-91 13,-19 45,-43 63,-49 19,-7 57,-12 77,-7 20,6 30,17 47,34 17,17 21,30 34,51 12,21 12,21 21,21 8,0 21,-4 29,-21 9,-17 26,-93 17,-127 -8,-34 0,-47 0,-59 0,-13 17,-51 38,-64 22,-13 60,-25 72,-17 13,9 17,13 26,30 8,17 0,25 13,21 12,-4 28,-14 34,-19 5,-5 20,-18 32,-25 13,-6 27,-7 35,-3 9,5 26,22 34,34 8,13 13,30 25,34 13,4 24,3 34,-4 10,-7 11,-16 17,-21 6,-6 13,-9 13,-9l0 17z"/>
  <path class="fil5" d="M-546 7333c-6,-30 -5,-55 1,-77 5,-21 13,-38 23,-53 12,-16 26,-30 42,-41l3 -2c1,-1 2,-2 4,-3 1,-1 3,-2 5,-4 7,-4 16,-8 27,-13 12,-4 24,-7 38,-7 13,0 26,3 40,10 13,7 25,19 36,37 9,16 13,30 13,44 0,13 -2,25 -8,36 -6,10 -14,20 -23,28 -10,8 -19,15 -29,21 -6,3 -10,6 -13,8 -4,2 -8,4 -14,7 -6,3 -16,7 -28,13 -13,6 -32,14 -56,25l2 5c4,5 10,13 19,24 9,11 22,20 37,28 16,7 35,11 57,10 23,-1 50,-10 79,-28 20,-11 34,-23 44,-37 10,-13 18,-27 22,-41 4,-14 6,-27 5,-40 0,-13 -2,-24 -4,-35 -2,-10 -5,-18 -7,-25 -3,-6 -4,-9 -5,-10 -2,-4 -4,-9 -6,-12 -2,-4 -5,-8 -7,-13 -15,-25 -34,-54 -57,-87 -23,-33 -47,-70 -72,-110 -19,-32 -33,-61 -42,-86 -9,-25 -16,-46 -19,-64 -4,-17 -5,-30 -5,-39 1,-8 1,-13 2,-13 2,-13 6,-27 13,-40 6,-13 17,-24 31,-32 8,-5 17,-9 26,-11 11,-2 21,-3 31,-1 9,2 19,6 30,12 11,7 21,18 30,33 10,18 17,34 19,47 3,14 3,26 0,37 -3,10 -8,18 -14,25 -7,7 -14,12 -20,16 -5,3 -8,5 -12,7 -4,1 -6,1 -7,0 0,-1 0,-2 0,-3 1,-1 1,-2 1,-2 6,-10 9,-21 10,-32 1,-11 1,-21 0,-30 -1,-11 -4,-21 -7,-31 -1,-4 -2,-9 -4,-13 -2,-4 -4,-8 -6,-12 -4,-7 -10,-12 -16,-16 -7,-4 -14,-4 -21,1 -8,4 -12,13 -13,27 0,13 2,30 7,49 5,19 12,40 22,63 10,23 22,46 36,69 10,18 25,40 42,66 17,26 39,57 66,93 1,2 3,5 6,8 2,2 4,5 7,9 3,4 6,9 9,14 6,11 13,24 20,39 7,16 13,33 19,52 5,27 5,53 0,80 -4,22 -14,46 -30,72 -15,26 -41,49 -76,70 -28,16 -53,27 -77,33 -23,5 -45,7 -64,5 -20,-2 -37,-7 -53,-15 -15,-7 -28,-16 -40,-26 -11,-10 -20,-20 -28,-30 -8,-10 -14,-18 -18,-25l-5 -10c-1,-1 -2,-3 -2,-4 -29,13 -58,28 -88,42 -29,15 -57,30 -84,46 -22,13 -42,26 -60,39 -18,14 -33,27 -45,40 -11,13 -19,26 -23,39 -3,13 -1,25 6,37 1,2 2,4 3,6 2,2 4,4 6,6 -2,1 -2,3 1,4 3,1 7,2 11,4 5,2 9,3 13,4 4,2 7,3 8,5 1,2 -1,3 -4,5 -5,4 -13,6 -23,9 -9,2 -20,3 -30,2 -11,-1 -22,-4 -33,-10 -10,-6 -19,-15 -27,-28 -10,-16 -14,-34 -14,-52 1,-18 6,-36 16,-54 9,-18 23,-36 41,-53 19,-17 40,-33 66,-48 32,-20 70,-36 112,-50 42,-13 86,-28 132,-43zm120 -42c10,-3 18,-7 26,-11 12,-7 20,-15 26,-22 5,-8 9,-15 11,-22 2,-8 2,-15 1,-23 -1,-3 -3,-6 -6,-11 -5,-9 -12,-16 -19,-19 -8,-4 -15,-6 -22,-6 -8,1 -15,2 -21,4 -7,3 -13,5 -17,8 -6,3 -11,7 -15,11 -4,4 -8,8 -11,11 -4,4 -7,8 -10,11 -6,13 -11,25 -14,37 -2,12 -4,22 -4,31 -1,10 -1,20 1,28 13,-4 26,-8 38,-13 12,-4 24,-9 36,-13l0 -1z"/>
  <path id="1" class="fil5" d="M-19 7218c-11,8 -22,12 -31,10 -9,-1 -17,-4 -24,-8 -8,-5 -15,-12 -21,-22 -17,-25 -30,-54 -39,-86 -8,-32 -15,-63 -19,-92 -6,-34 -9,-68 -10,-102 -1,-22 -1,-46 0,-75 0,-28 3,-55 8,-81 5,-27 13,-51 23,-72 11,-21 25,-35 43,-43 8,-2 15,-4 22,-3 6,0 13,2 20,5 7,4 14,10 21,19 2,3 2,4 2,5 0,0 -1,0 -2,1l-1 0 -1 0c-4,0 -10,2 -17,6 -8,4 -15,15 -22,32 -7,16 -12,41 -16,74 -3,33 -4,77 -1,134 2,28 4,57 9,85 3,25 7,52 12,81 6,28 13,55 21,79 3,5 4,9 6,11 1,3 3,5 6,6 2,2 4,1 7,-1 11,-7 20,-20 27,-39 7,-19 13,-42 16,-69 3,-27 5,-55 4,-85 -1,-31 -4,-60 -9,-88 0,-3 1,-5 2,-9 1,-3 3,-6 7,-7 1,-1 3,-1 5,-1 3,1 5,4 6,9 10,60 14,110 12,150 -1,39 -6,71 -13,95 -7,24 -15,42 -25,55 -11,12 -20,21 -28,26z"/>
  <path id="2" class="fil5" d="M173 6797c1,-1 2,-1 4,-1 3,1 5,4 6,9 11,66 15,120 13,161 -2,41 -8,74 -17,98 -8,24 -19,41 -30,51 -11,11 -21,18 -28,21 -17,9 -32,12 -43,8 -12,-4 -21,-12 -28,-25 -8,-13 -14,-28 -18,-48 -4,-19 -8,-39 -10,-61 -2,-22 -4,-44 -5,-66 -1,-23 -2,-43 -4,-62 0,-10 -2,-18 -4,-25 -2,-6 -4,-12 -5,-17 -1,-1 -2,-3 -2,-7 -1,-2 -1,-5 0,-8 1,-3 2,-5 5,-8 2,-2 6,-3 12,-4 16,-1 29,3 39,11 10,8 18,20 24,34 5,14 9,29 11,47 2,18 3,35 4,53 1,17 1,33 1,49 0,16 1,28 2,37 2,16 4,27 7,34 2,7 4,12 7,15 2,3 5,4 8,3 12,-4 21,-16 29,-35 8,-20 14,-43 17,-70 4,-27 5,-56 5,-88 -1,-31 -4,-62 -9,-91 0,-2 1,-4 2,-8 0,-3 3,-6 7,-7zm-121 -21c-11,9 -21,9 -29,1 -9,-8 -16,-17 -21,-26 -5,-8 -8,-15 -11,-24 -2,-9 -1,-17 5,-25 5,-7 11,-13 20,-19 9,-6 18,-11 27,-13 10,-3 18,-3 25,-1 8,2 12,7 13,16 1,9 1,19 -1,28 -2,10 -4,19 -7,28 -3,9 -7,17 -11,23 -3,6 -7,11 -10,12z"/>
  <path id="3" class="fil5" d="M292 6661c11,2 21,6 32,12 10,7 18,18 24,33 4,9 5,16 4,23 -2,7 -4,13 -7,18 -3,6 -7,10 -11,14 -4,4 -7,7 -10,8l-1 1c-1,1 -2,1 -3,0 0,-1 -1,-1 -1,-2 0,-3 -2,-8 -3,-14 -2,-6 -3,-13 -4,-20 -4,-14 -8,-25 -12,-32 -4,-7 -8,-12 -10,-14 -4,-3 -8,-4 -12,-3 -2,1 -4,3 -6,4 -1,2 -4,4 -6,7 -3,3 -5,6 -8,11 -10,18 -16,42 -20,71 -3,30 -3,59 2,89 5,30 13,54 22,75 4,8 8,16 14,23 6,7 12,13 19,17 7,3 14,5 23,5 9,-1 18,-4 29,-10 14,-9 25,-21 33,-34 9,-14 16,-27 21,-40 5,-15 9,-31 13,-47 2,-15 4,-32 5,-50 1,-19 2,-37 3,-55 0,-18 1,-35 0,-51 0,-17 -1,-30 -1,-40 1,-2 1,-5 3,-8 1,-4 4,-6 8,-7 2,-1 3,0 5,0 2,1 4,4 5,10 2,50 3,91 1,125 -1,34 -3,62 -7,84 -2,18 -7,36 -15,54 -6,15 -15,31 -27,47 -12,17 -28,32 -49,45 -16,8 -30,13 -42,15 -13,2 -24,3 -33,1 -11,-1 -21,-4 -29,-8 -18,-10 -33,-26 -46,-47 -13,-21 -22,-42 -27,-64 -5,-19 -7,-39 -7,-60 0,-21 2,-42 8,-63 6,-21 14,-41 26,-59 11,-19 27,-34 46,-47 5,-4 10,-7 17,-10 5,-2 10,-4 16,-5 6,-2 12,-2 18,-2z"/>
  <path id="4" class="fil5" d="M603 6857c-16,10 -31,16 -44,18 -13,2 -24,2 -33,1 -11,-1 -21,-4 -30,-9 -18,-10 -33,-25 -46,-46 -13,-21 -22,-43 -27,-65 -5,-18 -7,-38 -7,-59 0,-22 3,-43 8,-64 6,-20 15,-40 26,-59 12,-18 27,-34 46,-47 15,-10 28,-17 42,-20 11,-2 23,0 35,6 13,5 23,20 31,43 3,11 5,23 6,35 1,11 0,23 -1,35 -1,13 -5,25 -10,38 -7,13 -14,25 -22,36 -8,11 -17,21 -26,29 -8,9 -17,16 -24,23 -8,6 -14,11 -19,14 5,16 12,28 19,39 7,10 14,17 22,23 5,4 11,6 19,6 6,1 14,0 23,-2 9,-3 19,-9 30,-19 7,-7 14,-16 20,-27 5,-9 11,-20 16,-34 6,-13 10,-29 12,-47 2,-14 4,-31 5,-50 2,-18 2,-36 3,-55 1,-18 1,-35 1,-51 -1,-16 -1,-29 -2,-40 1,-1 2,-4 3,-7 1,-4 4,-6 9,-8 1,0 2,0 4,1 3,0 4,4 5,10 2,49 3,91 1,125 -1,34 -4,62 -7,84 -3,18 -8,36 -15,53 -6,15 -15,31 -27,48 -11,16 -27,30 -46,42zm-108 -140c1,5 2,10 4,16 1,6 2,11 3,14 22,-23 38,-45 47,-66 10,-21 15,-40 17,-56 2,-17 2,-31 -1,-42 -3,-11 -6,-18 -7,-21l-1 -3c-4,-8 -7,-13 -11,-17 -2,-2 -5,-4 -6,-6l-1 0c-1,-1 -3,-1 -5,-1l-5 2c-4,3 -8,6 -10,11 -3,4 -5,7 -5,9 -10,18 -17,42 -21,71 -4,30 -3,60 2,89z"/>
  <path class="fil5" d="M1268 7168c-5,1 -12,2 -19,3 -8,2 -16,3 -22,3 -9,1 -17,1 -26,2 -17,1 -30,-3 -39,-11 -9,-8 -16,-17 -20,-28 -5,-12 -8,-26 -8,-41 0,-5 0,-10 1,-18 1,-7 3,-15 7,-23 3,-8 8,-17 15,-26 7,-9 16,-17 27,-26 19,-12 34,-19 48,-21 13,-2 24,-2 33,1 9,3 16,8 21,16 5,7 8,13 10,19 2,13 3,25 1,37 -1,9 -5,20 -11,30 -7,11 -19,20 -35,27 -4,1 -6,1 -7,1 -2,-1 -3,-2 -3,-3 -1,-2 -2,-3 -1,-5 1,-7 2,-16 3,-26 1,-11 1,-21 1,-31 -1,-10 -2,-19 -5,-26 -3,-8 -7,-11 -14,-11 -8,0 -14,5 -19,14 -5,10 -9,21 -11,34 -3,13 -3,26 -3,39 1,13 4,22 8,29 3,6 7,10 12,13 5,3 10,4 16,4 6,1 12,0 18,-1 6,-1 12,-2 17,-3 47,-10 77,-4 89,18 4,6 6,15 7,27 2,12 1,25 -3,40 -4,15 -12,31 -23,48 -11,17 -27,34 -48,51 -18,13 -33,22 -46,26 -13,4 -23,6 -32,5 -8,0 -15,-2 -20,-6 -4,-4 -8,-7 -9,-10 -3,-4 -3,-8 -1,-11 3,-3 7,-5 13,-6 4,0 11,-4 22,-12 11,-8 23,-19 34,-33 11,-13 21,-29 28,-46 8,-17 11,-36 9,-55 0,-1 -1,-3 -2,-5 -3,-4 -7,-5 -13,-3z"/>
  <path id="1" class="fil5" d="M1469 7204c1,1 1,2 1,3 -1,1 -1,2 -2,3 -8,5 -15,7 -21,7 -7,0 -12,-1 -18,-3 -6,-2 -11,-5 -17,-9 -7,-5 -13,-13 -19,-22 -6,-9 -11,-19 -16,-31 -4,-11 -8,-24 -12,-37 -4,-13 -8,-26 -11,-39 -7,-31 -13,-64 -17,-99 -5,-50 -7,-95 -5,-137 2,-18 4,-36 6,-54 3,-18 6,-34 12,-49 5,-16 11,-29 19,-40 8,-11 18,-20 30,-25 6,-2 13,-3 20,-3 6,1 12,3 19,6 7,3 14,9 21,17 1,2 1,4 0,5 0,0 -1,0 -1,0 0,0 -1,0 -1,0 -5,0 -11,3 -18,7 -7,4 -14,15 -21,33 -6,17 -10,43 -13,79 -3,35 -2,83 2,144 0,4 0,10 1,16 0,5 1,11 2,18 1,7 2,15 3,24 1,-17 3,-35 5,-53 2,-19 5,-37 10,-53 4,-17 10,-32 17,-45 7,-13 17,-23 28,-30 6,-3 12,-6 17,-6 8,-2 16,-1 24,1 6,1 12,5 19,10 8,5 14,14 19,26 5,13 9,27 11,43 2,17 4,33 4,49 1,16 2,31 1,46 1,14 1,26 2,34 1,14 3,25 5,31 3,7 5,12 7,14 3,3 5,4 8,3 11,-4 19,-15 27,-33 7,-17 12,-39 16,-64 3,-25 5,-52 4,-81 -1,-29 -4,-57 -8,-84 0,-2 0,-4 1,-7 1,-3 3,-6 7,-8 1,0 3,0 4,0 3,1 5,4 6,8 10,61 14,111 11,149 -2,38 -7,68 -15,91 -8,22 -18,38 -28,47 -11,10 -19,16 -26,19 -14,7 -26,10 -36,8 -10,-2 -19,-7 -26,-16 -6,-9 -12,-21 -16,-35 -4,-15 -7,-31 -10,-48 -2,-17 -4,-35 -5,-53 -1,-18 -2,-36 -4,-54l0 -1c0,-18 -2,-31 -4,-40 -2,-9 -4,-15 -7,-18 -3,-4 -6,-6 -9,-4 -5,0 -10,6 -13,17 -5,10 -8,24 -11,41 -3,18 -6,37 -8,59 -2,22 -3,44 -3,66 1,22 1,44 3,65 2,21 5,40 10,57 1,5 2,10 4,14 2,5 4,9 7,13 2,4 5,7 8,8z"/>
  <path id="2" class="fil5" d="M1630 6889c-4,-30 -4,-59 2,-86 2,-11 6,-22 10,-34 5,-12 11,-23 19,-33 8,-11 18,-20 30,-29 12,-9 27,-17 43,-23 16,-5 30,-7 41,-4 12,2 22,7 30,14 8,7 15,16 21,26 6,10 10,21 14,31 18,-16 31,-32 40,-48 8,-16 13,-29 16,-37 1,-1 2,-2 3,-5 2,-2 4,-5 7,-6 4,-2 6,-3 7,-1 1,2 1,4 1,7 -5,18 -13,38 -24,60 -11,22 -25,41 -42,59 1,3 1,6 2,8 0,2 1,3 1,5 0,1 0,3 0,4 7,43 7,79 1,107 -6,28 -14,50 -25,67 -12,19 -27,34 -44,44 -19,10 -37,14 -54,12 -17,-2 -32,-8 -45,-20 -13,-11 -24,-27 -33,-47 -10,-21 -17,-44 -21,-71zm172 -112c-9,-30 -20,-50 -33,-61 -13,-10 -24,-13 -35,-7 -10,5 -17,15 -21,27 -3,13 -2,27 5,40 4,9 9,14 16,16 7,2 14,3 21,2 8,-1 17,-4 26,-8 7,-2 14,-5 21,-9zm15 75c-1,-7 -2,-14 -3,-20 -1,-7 -2,-13 -4,-20 -11,9 -24,15 -37,19 -11,4 -21,7 -30,7 -9,0 -17,-1 -24,-3 -7,-2 -13,-5 -17,-8 -5,-4 -9,-8 -12,-12 0,9 1,21 2,35 1,13 3,28 6,42 2,14 5,28 9,43 4,13 9,26 14,36 6,10 12,18 20,23 8,5 16,6 26,3 5,-1 11,-5 18,-11 6,-6 12,-15 18,-26 6,-11 11,-26 14,-43 3,-18 3,-39 0,-65z"/>
  <path id="3" class="fil5" d="M2163 6781c-5,9 -11,15 -18,19 -8,4 -14,6 -20,8 -16,4 -30,4 -40,-1 -10,-5 -19,-11 -26,-19 -4,22 -10,41 -19,58 -9,17 -21,29 -37,36 -15,7 -29,9 -42,8 -11,-1 -22,-7 -32,-16 -11,-10 -18,-27 -22,-52 -4,-26 -7,-54 -9,-83 -2,-30 -4,-57 -6,-81 0,-9 -1,-17 -3,-23 -2,-6 -4,-11 -5,-16 -1,-1 -2,-3 -2,-6 -1,-3 -1,-5 0,-8 1,-3 2,-5 4,-7 2,-2 5,-4 10,-4 15,-1 27,2 36,9 9,7 16,17 22,29 6,12 9,26 12,41 2,16 3,32 4,47 0,16 1,31 0,45 1,15 1,27 2,36 0,10 1,20 3,28 2,7 4,13 8,19 3,6 8,8 15,8 9,-3 16,-10 21,-22 5,-11 9,-25 11,-41 2,-16 3,-34 3,-52 0,-19 0,-38 -1,-56 -2,-19 -3,-37 -5,-56 -1,-19 -2,-36 -3,-53 -1,-8 -2,-16 -4,-22 -2,-6 -4,-11 -5,-16 -1,-1 -1,-3 -2,-6 0,-3 0,-5 0,-8 1,-2 2,-5 5,-7 2,-2 6,-3 11,-3 14,-1 26,2 35,9 9,7 17,17 22,29 6,13 9,27 12,43 2,16 3,31 4,47 1,16 1,31 1,46 -1,14 0,26 1,35 0,10 2,19 3,26 2,7 4,13 7,19 3,5 7,9 13,9 2,0 5,-1 8,-2 3,-2 6,-5 9,-9 5,-9 9,-21 12,-34 3,-13 6,-26 7,-40 2,-14 4,-28 4,-43 1,-15 2,-29 2,-43 0,-33 -1,-67 -3,-102 -2,-24 -6,-44 -11,-61 -5,-16 -13,-24 -22,-24 -9,1 -17,5 -23,13 -6,8 -11,16 -14,25 0,2 0,3 -1,5 -2,4 -5,5 -7,3 -3,0 -5,-4 -7,-10 0,-3 -1,-6 -1,-10 -2,-15 1,-31 8,-48 7,-16 20,-27 40,-33 11,-3 21,-3 28,-1 8,3 14,7 18,11 6,5 11,12 14,20 11,22 17,47 19,76 3,28 3,57 1,86 -1,30 -3,59 -8,88 -3,24 -8,49 -14,75 -6,25 -14,46 -23,62z"/>
  <polygon class="fil6 str10" points="907,5614 907,6710 1864,6160 "/>
  <polygon class="fil6 str11" points="445,6346 519,6302 594,6259 550,6184 506,6109 432,6153 357,6197 401,6271 "/>
  <rect class="fil6 str11" transform="matrix(0.838726 -0.544554 0.544554 0.838726 476.319 7334.24)" width="76.2" height="237.06"/>
  <rect class="fil6 str11" transform="matrix(0.838726 -0.544554 0.544554 0.838726 607.549 7249.58)" width="76.2" height="237.06"/>
  <circle class="fil2 str12" cx="327" cy="7455" r="51"/>
  <polygon class="fil7 str13" points="-132,7504 -162,7470 2162,6094 2179,6107 "/>
  <circle class="fil2 str12" cx="806" cy="7159" r="51"/>
  <circle class="fil2 str12" cx="1009" cy="7498" r="51"/>
  <circle class="fil2 str12" cx="251" cy="6456" r="51"/>
  <polyline class="fil2 str8" points="6356,-1308 6322,-1347 6356,-1393 6322,-1440 6356,-1482 6322,-1529 6356,-1575 6322,-1617 6356,-1664 "/>
  <polyline class="fil2 str4" points="6272,-1545 6238,-1584 6272,-1617 6238,-1651 6272,-1689 6238,-1728 6272,-1761 6238,-1795 6272,-1833 6238,-1871 6272,-1905 6238,-1939 6272,-1977 6238,-2015 6272,-2049 6238,-2083 6272,-2121 "/>
  <line class="fil2 str4" x1="6033" y1="-2125" x2="6033" y2= "-2108" />
  <line class="fil2 str4" x1="6024" y1="-2116" x2="6041" y2= "-2116" />
  <circle class="fil2 str6" cx="6246" cy="-2515" r="34"/>
  <path class="fil2 str4" d="M5954 -2659c0,9 0,34 0,34"/>
  <line class="fil2 str4" x1="5971" y1="-2642" x2="5937" y2= "-2642" />
  <line class="fil2 str4" x1="5878" y1="-4348" x2="5878" y2= "-4314" />
  <line class="fil2 str4" x1="5895" y1="-4331" x2="5861" y2= "-4331" />
  <path class="fil2 str2" d="M5154 -3865c0,4 0,50 0,50"/>
  <line class="fil2 str2" x1="5179" y1="-3840" x2="5129" y2= "-3840" />
  <line class="fil2 str2" x1="6195" y1="-3764" x2="6195" y2= "-3713" />
  <line class="fil2 str2" x1="6221" y1="-3738" x2="6170" y2= "-3738" />
  <line class="fil2 str6" x1="6047" y1="-3997" x2="6047" y2= "-3895" />
  <line class="fil2 str6" x1="6098" y1="-3946" x2="5996" y2= "-3946" />
  <circle class="fil2 str2" cx="5690" cy="-3063" r="25"/>
  <circle class="fil2 str2" cx="6284" cy="-4187" r="25"/>
  <path class="fil2 str2" d="M6026 -3019c-174,174 -296,297 -296,297"/>
  <line class="fil2 str2" x1="6009" y1="-2875" x2="6305" y2= "-3171" />
  <line class="fil2 str2" x1="5637" y1="-3671" x2="6178" y2= "-4433" />
  <polyline class="fil2 str4" points="5256,-4187 5251,-4242 5192,-4246 5188,-4306 5124,-4310 5124,-4369 5061,-4373 5061,-4433 5010,-4441 "/>
  <polygon class="fil1 str1" points="6091,-3408 6010,-3475 5928,-3541 5864,-3462 5800,-3383 5882,-3316 5963,-3250 6027,-3329 "/>
  <circle class="fil1 str1" cx="5802" cy="-2426" r="135"/>
  <polygon class="fil3 str7" points="5528,-4373 5552,-4303 5575,-4233 5498,-4253 5420,-4273 5474,-4323 "/>
  <polygon class="fil3 str7" points="5748,-4176 5771,-4107 5795,-4037 5717,-4057 5639,-4077 5694,-4127 "/>
  <polygon class="fil3 str7" points="5638,-4275 5661,-4205 5685,-4135 5607,-4155 5530,-4175 5584,-4225 "/>
 </g>
</svg>
