<?xml version="1.0" encoding="UTF-8"?>
<!DOCTYPE svg PUBLIC "-//W3C//DTD SVG 1.1//EN" "http://www.w3.org/Graphics/SVG/1.1/DTD/svg11.dtd">
<!-- Creator: CorelDRAW X7 -->
<svg xmlns="http://www.w3.org/2000/svg" xml:space="preserve" width="16.9332mm" height="33.8666mm" version="1.1" style="shape-rendering:geometricPrecision; text-rendering:geometricPrecision; image-rendering:optimizeQuality; fill-rule:evenodd; clip-rule:evenodd"
viewBox="0 0 1693 3387"
 xmlns:xlink="http://www.w3.org/1999/xlink">
 <defs>
  <style type="text/css">
   <![CDATA[
    .str8 {stroke:#2B2A29;stroke-width:8.46}
    .str4 {stroke:black;stroke-width:8.46}
    .str13 {stroke:#180A21;stroke-width:8.46}
    .str10 {stroke:#CC0033;stroke-width:8.46}
    .str11 {stroke:#CC0033;stroke-width:8.46}
    .str7 {stroke:#EAA639;stroke-width:8.46}
    .str9 {stroke:#F7931E;stroke-width:8.46}
    .str0 {stroke:#FCBF51;stroke-width:8.46}
    .str1 {stroke:#FFCA5F;stroke-width:8.46}
    .str12 {stroke:#180A21;stroke-width:42.33}
    .str2 {stroke:black;stroke-width:16.93}
    .str3 {stroke:black;stroke-width:20}
    .str6 {stroke:black;stroke-width:25.39}
    .str5 {stroke:black;stroke-width:7.62}
    .fil2 {fill:none}
    .fil7 {fill:#180A21}
    .fil6 {fill:#CC0033}
    .fil3 {fill:#EAA639}
    .fil4 {fill:#F7931E}
    .fil0 {fill:#FCBF51}
    .fil1 {fill:#FFCA5F}
    .fil5 {fill:black;fill-rule:nonzero}
   ]]>
  </style>
 </defs>
 <g id="Слой_x0020_1">
  <metadata id="CorelCorpID_0Corel-Layer"/>
  <path class="fil0 str0" d="M815 7951l844 -489c85,148 130,317 130,489 0,540 -436,977 -974,977 -538,0 -975,-437 -975,-977 0,-541 437,-978 975,-978l0 978z"/>
  <path class="fil1 str1" d="M815 7217l-22 16 -17 12c0,0 0,0 -17,0 -17,0 -46,-30 -51,-34 -4,-4 -12,-25 -25,-25 -13,0 -30,12 -42,25 -13,13 -17,17 -34,25 -17,9 -5,9 -21,9 -17,0 -56,-51 -77,-34 -21,17 -29,51 -25,63 4,13 -4,51 0,77 4,25 13,21 13,33 0,13 -17,64 -26,72 -8,9 -29,30 -46,39 -17,8 -17,8 -30,8 -13,0 -55,-25 -68,-47 -12,-21 -38,-60 -51,-67 -12,-8 -24,-7 -29,-5l-9 5c0,0 -43,18 -46,59 -4,41 -4,55 -4,55l0 59c7,8 46,46 46,51 0,4 0,17 -4,21 -4,4 -31,24 -42,34 -12,10 -22,30 -21,37 2,8 -1,18 16,39 17,21 64,72 77,85 12,13 29,38 33,51 11,31 1,88 -17,114 -16,25 -46,51 -67,59 -21,9 -56,3 -76,0 -21,-2 -65,-12 -77,-12 -11,0 -34,8 -34,25 0,17 26,42 47,55 21,13 51,42 55,68 4,25 -1,35 4,42 5,7 41,-3 64,9 23,11 29,17 34,29 4,13 -30,115 -38,123 -9,8 4,30 12,38 9,9 21,21 55,26 34,4 77,4 93,12 17,9 34,34 30,56 -5,22 -11,53 -13,75 -1,23 13,64 60,64 46,0 55,-30 89,-47 33,-17 66,-14 84,0 18,15 30,28 26,60 -5,31 -26,42 -38,55 -13,12 -13,17 -9,21 4,4 17,7 30,6 14,-1 28,-11 56,-19 28,-8 45,-8 62,-25 17,-17 43,-30 59,-30 17,0 47,7 60,28 12,21 21,44 29,53 9,8 22,-5 26,-9 4,-4 14,-20 17,-46 2,-27 -6,-97 -9,-117 -3,-21 -12,-61 13,-104 25,-42 71,-47 93,-46 22,1 85,21 106,42 21,21 42,68 46,98 5,29 5,63 22,76 17,12 38,12 55,4 17,-9 29,-17 34,-42 4,-26 0,-65 4,-85 4,-20 17,-42 34,-47 17,-4 38,26 63,26 26,0 30,-26 34,-47 4,-21 -17,-55 -30,-68 -12,-12 -59,-59 -63,-76 -4,-17 1,-27 4,-29 3,-3 17,-17 30,-17 12,0 51,0 63,0 13,0 55,0 72,-9 17,-8 46,-30 59,-46 14,-17 41,-72 43,-106 1,-34 -25,-55 -38,-72 -13,-17 -48,-48 -52,-83 -4,-35 1,-65 26,-86 26,-22 58,-27 68,-43 10,-16 -6,-44 -25,-51 -19,-6 -49,-28 -57,-39 -9,-12 -10,-46 2,-58 22,-24 48,-42 82,-42 13,0 28,0 28,-9 0,-8 -13,-29 -17,-34 -4,-4 -13,-25 -17,-42 -4,-17 -4,-30 -4,-34 0,-4 -7,-12 -4,-12l-766 474 0 -769z"/>
  <line class="fil2 str2" x1="-3597" y1="-3368" x2="-3283" y2= "-3067" />
  <line class="fil2 str3" x1="-3440" y1="-3091" x2="-3144" y2= "-2794" />
  <path class="fil2 str2" d="M-3487 -2782c14,0 26,12 26,26 0,14 -12,25 -26,25 -14,0 -25,-11 -25,-25 0,-14 11,-26 25,-26z"/>
  <circle class="fil2 str3" cx="-2941" cy="-3311" r="35"/>
  <path class="fil2 str4" d="M-3063 -3036c0,22 0,34 0,34"/>
  <line class="fil2 str4" x1="-3046" y1="-3019" x2="-3080" y2= "-3019" />
  <polyline class="fil2 str5" points="-2534,-3105 -2534,-3099 -2534,-3093 -2534,-3099 -2541,-3099 -2528,-3099 "/>
  <polyline class="fil2 str4" points="-2543,-3336 -2509,-3298 -2471,-3336 -2433,-3298 -2399,-3336 -2365,-3298 -2327,-3336 -2289,-3298 -2255,-3336 -2221,-3298 -2183,-3336 -2145,-3298 -2111,-3336 -2077,-3298 -2039,-3336 -2001,-3298 -1967,-3336 "/>
  <polyline class="fil2 str4" points="-2085,-3421 -2039,-3387 -1997,-3421 -1950,-3387 -1903,-3421 -1861,-3387 -1815,-3421 -1768,-3387 -1721,-3421 "/>
  <ellipse class="fil1 str1" cx="-2847" cy="-2866" rx="138" ry="135"/>
  <line class="fil2 str4" x1="-3008" y1="10624" x2="-3008" y2= "10590" />
  <line class="fil2 str4" x1="-3025" y1="10607" x2="-2992" y2= "10607" />
  <path class="fil2 str2" d="M-2285 10141c0,-4 0,-50 0,-50"/>
  <line class="fil2 str2" x1="-2310" y1="10116" x2="-2259" y2= "10116" />
  <line class="fil2 str2" x1="-3326" y1="10040" x2="-3326" y2= "9989" />
  <line class="fil2 str2" x1="-3351" y1="10014" x2="-3301" y2= "10014" />
  <line class="fil2 str6" x1="-3178" y1="10273" x2="-3178" y2= "10171" />
  <line class="fil2 str6" x1="-3229" y1="10222" x2="-3127" y2= "10222" />
  <circle class="fil2 str2" cx="-3415" cy="10463" r="25"/>
  <line class="fil2 str2" x1="-2767" y1="9947" x2="-3309" y2= "10709" />
  <polyline class="fil2 str4" points="-2386,10463 -2382,10518 -2323,10522 -2318,10582 -2255,10586 -2255,10645 -2191,10649 -2191,10709 -2141,10717 "/>
  <polygon class="fil1 str1" points="-3221,9684 -3140,9751 -3059,9817 -2995,9738 -2931,9659 -3012,9592 -3093,9526 -3157,9605 "/>
  <polygon class="fil3 str7" points="-2659,10649 -2682,10579 -2706,10509 -2628,10529 -2551,10549 -2605,10599 "/>
  <polygon class="fil3 str7" points="-2878,10452 -2902,10383 -2925,10313 -2848,10333 -2770,10353 -2824,10403 "/>
  <polygon class="fil3 str7" points="-2768,10551 -2792,10481 -2815,10411 -2738,10431 -2660,10451 -2714,10501 "/>
  <polyline class="fil2 str8" points="1524,3254 1490,3216 1524,3170 1490,3123 1524,3081 1490,3034 1524,2988 1490,2945 1524,2899 "/>
  <polyline class="fil2 str4" points="1439,3017 1406,2979 1439,2945 1406,2911 1439,2873 1406,2835 1439,2801 1406,2768 1439,2729 1406,2691 1439,2657 1406,2624 1439,2585 1406,2547 1439,2514 1406,2480 1439,2442 "/>
  <line class="fil2 str4" x1="1201" y1="2438" x2="1201" y2= "2455" />
  <line class="fil2 str4" x1="1192" y1="2446" x2="1209" y2= "2446" />
  <circle class="fil2 str6" cx="1414" cy="2048" r="34"/>
  <path class="fil2 str4" d="M1122 1904c0,8 0,34 0,34"/>
  <line class="fil2 str4" x1="1139" y1="1921" x2="1105" y2= "1921" />
  <line class="fil2 str4" x1="1046" y1="215" x2="1046" y2= "249" />
  <line class="fil2 str4" x1="1063" y1="232" x2="1029" y2= "232" />
  <path class="fil2 str2" d="M322 697c0,5 0,51 0,51"/>
  <line class="fil2 str2" x1="347" y1="723" x2="296" y2= "723" />
  <line class="fil2 str2" x1="1363" y1="799" x2="1363" y2= "850" />
  <line class="fil2 str2" x1="1389" y1="824" x2="1338" y2= "824" />
  <line class="fil2 str6" x1="1215" y1="566" x2="1215" y2= "668" />
  <line class="fil2 str6" x1="1266" y1="617" x2="1164" y2= "617" />
  <circle class="fil2 str2" cx="858" cy="1500" r="25"/>
  <circle class="fil2 str2" cx="1452" cy="376" r="25"/>
  <path class="fil2 str2" d="M1194 1544c-174,174 -296,296 -296,296"/>
  <line class="fil2 str2" x1="1177" y1="1688" x2="1473" y2= "1392" />
  <line class="fil2 str2" x1="804" y1="892" x2="1346" y2= "130" />
  <polyline class="fil2 str4" points="423,376 419,321 360,316 356,257 292,253 292,194 229,189 229,130 178,122 "/>
  <polygon class="fil1 str1" points="1259,1155 1177,1088 1096,1022 1032,1101 968,1180 1050,1246 1131,1313 1195,1234 "/>
  <circle class="fil1 str1" cx="970" cy="2137" r="135"/>
  <polygon class="fil3 str7" points="696,190 720,260 743,330 666,310 588,289 642,240 "/>
  <polygon class="fil3 str7" points="916,386 939,456 962,526 885,506 807,486 861,436 "/>
  <polygon class="fil3 str7" points="806,288 829,358 853,428 775,408 698,387 752,338 "/>
  <line class="fil2 str2" x1="7322" y1="10419" x2="7009" y2= "10117" />
  <line class="fil2 str3" x1="7165" y1="10141" x2="6869" y2= "9845" />
  <path class="fil2 str2" d="M7212 9832c-14,0 -26,-11 -26,-25 0,-14 12,-26 26,-26 14,0 25,12 25,26 0,14 -11,25 -25,25z"/>
  <circle class="fil2 str3" cx="6666" cy="10361" r="35"/>
  <path class="fil2 str4" d="M6789 10086c0,-21 0,-34 0,-34"/>
  <line class="fil2 str4" x1="6772" y1="10069" x2="6805" y2= "10069" />
  <polyline class="fil2 str5" points="6259,10156 6259,10150 6259,10143 6259,10150 6266,10150 6253,10150 "/>
  <polyline class="fil2 str4" points="6268,10387 6234,10349 6196,10387 6158,10349 6124,10387 6090,10349 6052,10387 6014,10349 5980,10387 5946,10349 5908,10387 5870,10349 5836,10387 5802,10349 5764,10387 5726,10349 5692,10387 "/>
  <polyline class="fil2 str4" points="5811,10472 5764,10438 5722,10472 5675,10438 5629,10472 5586,10438 5540,10472 5493,10438 5447,10472 "/>
  <ellipse class="fil1 str1" cx="6573" cy="9917" rx="138" ry="135"/>
  <line class="fil2 str2" x1="-3202" y1="1647" x2="-3684" y2= "2129" />
  <line class="fil2 str2" x1="-2757" y1="1398" x2="-3240" y2= "1880" />
  <ellipse class="fil2 str2" cx="-2702" cy="1940" rx="30" ry="31"/>
  <path class="fil4 str9" d="M815 7202c-3,7 -7,14 -13,21 -6,7 -16,12 -21,15 -6,3 -18,5 -28,0 -11,-5 -28,-19 -38,-27 -10,-8 -19,-31 -31,-31 -13,0 -30,13 -43,26 -12,13 -20,22 -31,28 -11,6 -30,5 -35,1 -6,-3 -44,-46 -65,-29 -21,17 -30,51 -25,63 4,13 -5,51 0,77 4,25 12,21 12,33 0,13 -7,46 -19,64 -13,17 -35,36 -46,44 -11,9 -23,11 -36,11 -13,0 -55,-25 -68,-47 -13,-21 -38,-60 -51,-67 -12,-8 -23,-7 -29,-5l-15 7c-4,2 -37,16 -40,57 -4,41 -5,55 -5,55l0 59c0,0 9,9 17,17 9,9 30,30 30,34 0,4 0,17 -4,21 -5,4 -31,24 -43,34 -11,10 -21,30 -20,37 1,8 -1,18 16,39 17,21 64,72 76,85 13,13 30,38 34,51 4,12 4,29 4,38 0,8 -4,51 -21,76 -17,25 -46,51 -67,59 -22,9 -56,3 -77,0 -21,-2 -64,-13 -76,-12 -11,0 -34,8 -34,25 0,17 26,42 47,55 21,13 51,42 55,68 4,25 -1,35 4,42 5,7 35,3 55,8 20,4 38,17 42,30 5,13 -34,110 -38,123 -3,13 5,30 13,38 9,8 21,21 55,25 34,5 76,5 93,13 17,9 34,34 30,56 -5,22 -11,53 -13,75 -2,23 13,64 59,64 47,0 55,-30 89,-47 34,-17 67,-14 85,0 18,15 30,28 25,60 -4,31 -25,42 -38,55 -12,12 -12,17 -8,21 4,4 17,6 30,6 14,-1 26,-18 54,-26 28,-8 46,4 63,-13 17,-17 44,-42 62,-43 17,0 44,20 58,36 13,16 21,44 29,52 9,9 21,-4 26,-8 4,-4 14,-20 17,-47 2,-26 -6,-96 -9,-116 -4,-21 -13,-61 13,-104 25,-42 71,-47 93,-46 22,1 85,21 106,42 21,21 42,68 46,97 5,30 5,64 21,77 17,12 39,12 55,4 17,-9 30,-17 34,-42 5,-26 1,-65 5,-85 3,-21 17,-43 33,-47 17,-4 39,26 64,26 25,0 33,-28 34,-47 1,-18 -17,-55 -30,-68 -13,-12 -59,-59 -63,-76 -5,-17 1,-27 4,-29 3,-3 17,-17 30,-17 12,0 50,0 63,0 13,0 55,0 72,-9 17,-8 46,-30 59,-46 13,-17 41,-72 43,-106 1,-34 -25,-55 -38,-72 -14,-17 -48,-49 -52,-83 -4,-35 1,-65 26,-87 26,-21 58,-26 68,-42 10,-16 -7,-44 -26,-51 -19,-6 -48,-28 -57,-40 -8,-11 -9,-45 2,-57 12,-12 22,-23 39,-31 17,-9 31,-11 44,-11 12,0 27,0 27,-9 0,-8 -12,-30 -16,-34 -5,-4 -13,-25 -17,-42 -5,-17 -5,-30 -5,-34 0,-4 7,-8 9,-8l8 0 12 -6 1 39 8 34 19 28c7,9 11,19 11,27 0,9 -12,18 -17,22 -5,3 -38,11 -55,16 -16,6 -29,13 -34,22 -4,8 -4,20 0,29 5,9 34,13 47,17 13,4 27,20 33,29 5,9 18,35 18,52 0,17 -9,33 -17,42 -9,8 -43,26 -51,30 -9,4 -21,12 -21,25 0,13 21,21 34,25 12,5 29,17 33,30 5,13 5,25 -4,34 -8,8 -18,14 -30,17 -12,3 -21,8 -8,13 13,4 28,25 32,34 4,9 15,54 6,80 -8,25 -34,59 -46,76 -13,17 -68,68 -93,72 -26,4 -73,-9 -85,-8 -11,0 -33,1 -38,4 -5,2 -13,9 -13,18 0,8 4,16 17,28 13,13 30,30 42,43 13,12 29,36 34,50 6,14 10,24 9,43 -1,19 -16,44 -30,55 -14,10 -41,14 -53,13 -11,-1 -27,-13 -36,-9 -8,4 -8,24 -8,32 0,9 0,49 -5,65 -4,17 -21,51 -59,68 -38,17 -93,0 -110,-17 -17,-17 -27,-58 -25,-84 2,-26 0,-39 -19,-62 -18,-22 -41,-30 -57,-36 -17,-6 -40,-3 -58,1 -17,4 -27,29 -26,44 1,16 20,71 20,86 0,15 0,47 -4,72 -4,26 -17,55 -30,77 -13,21 -42,46 -59,46 -17,0 -34,0 -55,-25 -21,-26 -19,-30 -26,-43 -6,-12 -8,-25 -16,-25 -9,0 -29,25 -61,43 -33,18 -43,22 -90,35 -46,13 -67,11 -86,2 -19,-8 -31,-33 -34,-46 -4,-13 -9,-34 4,-55 13,-21 21,-21 34,-34 12,-13 21,-21 8,-21 -13,0 -26,9 -46,25 -21,16 -44,39 -81,38 -36,-1 -55,-4 -72,-12 -17,-9 -38,-22 -51,-38 -12,-17 -17,-39 -17,-68 0,-30 5,-52 11,-59 6,-6 19,-30 19,-39 0,-8 -18,-7 -32,-3 -14,3 -27,8 -57,8 -29,0 -80,-26 -89,-55 -8,-30 -29,-83 -16,-100 12,-16 27,-26 37,-36 11,-9 22,-17 17,-25 -4,-9 -12,-9 -19,-10 -6,-1 -27,-6 -38,-6 -11,0 -27,-5 -36,-14 -8,-8 -13,-17 -12,-29 1,-13 4,-34 4,-51 0,-17 -13,-30 -21,-34 -9,-4 -30,-9 -47,-17 -17,-9 -34,-38 -34,-64 0,-25 9,-46 26,-55 17,-8 50,-25 76,-12 25,12 39,18 61,21 21,3 53,4 66,-4 12,-9 27,-30 34,-43 6,-13 21,-42 21,-67 0,-26 -6,-35 -17,-47 -11,-12 -55,-64 -72,-76 -17,-13 -40,-51 -47,-68 -7,-17 -3,-42 5,-55 7,-13 12,-21 25,-30 13,-8 17,-8 21,-12 4,-5 -13,-13 -20,-16 -8,-3 -31,-22 -35,-39 -4,-17 -19,-57 -15,-91 4,-33 28,-72 40,-91 13,-19 45,-42 63,-49 19,-6 57,-12 77,-6 20,5 30,17 47,33 17,17 21,30 34,51 12,21 12,21 21,21 8,0 21,-4 29,-21 9,-17 26,-93 17,-127 -8,-34 0,-46 0,-59 0,-13 17,-51 38,-64 22,-12 60,-25 72,-16 13,8 17,12 26,29 8,17 0,26 13,21 12,-4 28,-13 34,-19 5,-5 20,-18 32,-24 13,-7 27,-7 35,-3 9,4 26,21 34,34 8,12 13,29 25,34 13,4 24,2 34,-5 10,-7 11,-15 17,-21 6,-6 13,-8 13,-8l0 17z"/>
  <path class="fil5" d="M-546 8392c-6,-31 -5,-56 1,-77 5,-21 13,-39 23,-53 12,-17 26,-31 42,-42l3 -2c1,0 2,-1 4,-3 1,-1 3,-2 5,-3 7,-4 16,-9 27,-13 12,-5 24,-7 38,-8 13,0 26,4 40,10 13,7 25,20 36,38 9,15 13,30 13,43 0,13 -2,25 -8,36 -6,11 -14,20 -23,28 -10,9 -19,15 -29,21 -6,4 -10,6 -13,8 -4,2 -8,4 -14,7 -6,3 -16,7 -28,13 -13,6 -32,14 -56,25l2 5c4,5 10,13 19,24 9,11 22,20 37,28 16,7 35,11 57,10 23,0 50,-10 79,-27 20,-11 34,-24 44,-37 10,-14 18,-27 22,-41 4,-14 6,-28 5,-41 0,-12 -2,-24 -4,-34 -2,-11 -5,-19 -7,-25 -3,-6 -4,-10 -5,-10 -2,-5 -4,-9 -6,-13 -2,-4 -5,-8 -7,-12 -15,-26 -34,-55 -57,-88 -23,-33 -47,-70 -72,-110 -19,-32 -33,-61 -42,-86 -9,-25 -16,-46 -19,-63 -4,-17 -5,-30 -5,-39 1,-9 1,-14 2,-14 2,-13 6,-26 13,-39 6,-14 17,-24 31,-33 8,-5 17,-8 26,-11 11,-2 21,-2 31,0 9,1 19,5 30,12 11,6 21,17 30,32 10,18 17,34 19,48 3,14 3,26 0,36 -3,10 -8,19 -14,25 -7,7 -14,12 -20,16 -5,3 -8,5 -12,7 -4,2 -6,2 -7,0 0,0 0,-2 0,-3 1,-1 1,-2 1,-2 6,-10 9,-21 10,-32 1,-10 1,-20 0,-30 -1,-10 -4,-21 -7,-31 -1,-4 -2,-8 -4,-12 -2,-4 -4,-8 -6,-12 -4,-7 -10,-13 -16,-17 -7,-3 -14,-3 -21,1 -8,5 -12,14 -13,27 0,14 2,30 7,49 5,19 12,40 22,63 10,23 22,46 36,69 10,18 25,40 42,66 17,27 39,58 66,93 1,3 3,5 6,8 2,2 4,5 7,10 3,4 6,8 9,13 6,11 13,24 20,39 7,16 13,33 19,52 5,27 5,54 0,80 -4,23 -14,47 -30,72 -15,26 -41,49 -76,70 -28,17 -53,28 -77,33 -23,5 -45,7 -64,5 -20,-2 -37,-7 -53,-14 -15,-8 -28,-17 -40,-27 -11,-10 -20,-20 -28,-30 -8,-10 -14,-18 -18,-25l-5 -9c-1,-2 -2,-3 -2,-5 -29,14 -58,28 -88,43 -29,14 -57,30 -84,45 -22,13 -42,27 -60,40 -18,13 -33,26 -45,39 -11,14 -19,27 -23,39 -3,13 -1,25 6,37 1,2 2,4 3,6 2,3 4,4 6,6 -2,2 -2,3 1,4 3,1 7,3 11,4 5,2 9,3 13,5 4,1 7,3 8,4 1,2 -1,4 -4,5 -5,4 -13,7 -23,9 -9,3 -20,3 -30,3 -11,-1 -22,-5 -33,-11 -10,-5 -19,-15 -27,-27 -10,-17 -14,-34 -14,-53 1,-18 6,-36 16,-54 9,-18 23,-35 41,-53 19,-17 40,-33 66,-48 32,-19 70,-36 112,-49 42,-14 86,-28 132,-43zm120 -42c10,-4 18,-7 26,-12 12,-7 20,-14 26,-22 5,-8 9,-15 11,-22 2,-7 2,-15 1,-23 -1,-3 -3,-6 -6,-10 -5,-10 -12,-16 -19,-20 -8,-4 -15,-5 -22,-5 -8,0 -15,1 -21,4 -7,2 -13,5 -17,7 -6,4 -11,7 -15,11 -4,4 -8,8 -11,11 -4,5 -7,8 -10,11 -6,13 -11,26 -14,37 -2,12 -4,22 -4,31 -1,10 -1,20 1,29 13,-4 26,-9 38,-13 12,-5 24,-9 36,-14l0 0z"/>
  <path id="1" class="fil5" d="M-19 8276c-11,9 -22,12 -31,11 -9,-1 -17,-4 -24,-9 -8,-5 -15,-12 -21,-21 -17,-26 -30,-55 -39,-87 -8,-32 -15,-63 -19,-92 -6,-34 -9,-68 -10,-102 -1,-21 -1,-46 0,-74 0,-28 3,-56 8,-82 5,-27 13,-50 23,-71 11,-22 25,-36 43,-44 8,-2 15,-3 22,-3 6,1 13,2 20,6 7,3 14,9 21,19 2,2 2,4 2,4 0,0 -1,0 -2,1l-1 0 -1 1c-4,0 -10,1 -17,6 -8,4 -15,14 -22,31 -7,17 -12,41 -16,74 -3,33 -4,78 -1,134 2,29 4,57 9,86 3,25 7,52 12,80 6,29 13,55 21,80 3,4 4,8 6,10 1,3 3,5 6,7 2,1 4,1 7,-2 11,-6 20,-19 27,-39 7,-19 13,-42 16,-69 3,-26 5,-55 4,-85 -1,-30 -4,-60 -9,-88 0,-2 1,-5 2,-8 1,-4 3,-6 7,-8 1,-1 3,-1 5,-1 3,1 5,4 6,9 10,61 14,111 12,150 -1,39 -6,71 -13,95 -7,25 -15,43 -25,55 -11,12 -20,21 -28,26z"/>
  <path id="2" class="fil5" d="M173 7855c1,-1 2,-1 4,0 3,1 5,4 6,9 11,66 15,119 13,161 -2,41 -8,73 -17,97 -8,24 -19,42 -30,52 -11,10 -21,17 -28,21 -17,8 -32,11 -43,7 -12,-4 -21,-12 -28,-25 -8,-12 -14,-28 -18,-47 -4,-19 -8,-40 -10,-62 -2,-21 -4,-43 -5,-66 -1,-22 -2,-43 -4,-62 0,-10 -2,-18 -4,-24 -2,-7 -4,-12 -5,-17 -1,-2 -2,-4 -2,-7 -1,-3 -1,-6 0,-9 1,-3 2,-5 5,-7 2,-3 6,-4 12,-4 16,-1 29,2 39,10 10,9 18,20 24,34 5,14 9,30 11,47 2,18 3,36 4,53 1,17 1,34 1,50 0,15 1,27 2,37 2,15 4,26 7,33 2,7 4,12 7,15 2,3 5,5 8,4 12,-5 21,-17 29,-36 8,-19 14,-42 17,-69 4,-27 5,-57 5,-88 -1,-32 -4,-62 -9,-91 0,-2 1,-5 2,-8 0,-4 3,-6 7,-8zm-121 -20c-11,9 -21,9 -29,0 -9,-8 -16,-17 -21,-26 -5,-7 -8,-15 -11,-24 -2,-9 -1,-17 5,-24 5,-7 11,-14 20,-20 9,-6 18,-10 27,-13 10,-2 18,-3 25,-1 8,2 12,7 13,16 1,9 1,19 -1,28 -2,10 -4,19 -7,28 -3,9 -7,17 -11,23 -3,7 -7,11 -10,13z"/>
  <path id="3" class="fil5" d="M292 7720c11,1 21,5 32,12 10,6 18,17 24,32 4,9 5,17 4,23 -2,7 -4,13 -7,19 -3,5 -7,10 -11,14 -4,4 -7,6 -10,8l-1 0c-1,1 -2,1 -3,0 0,0 -1,-1 -1,-2 0,-3 -2,-7 -3,-14 -2,-6 -3,-13 -4,-20 -4,-14 -8,-24 -12,-32 -4,-7 -8,-11 -10,-14 -4,-3 -8,-4 -12,-3 -2,1 -4,3 -6,5 -1,1 -4,4 -6,6 -3,3 -5,7 -8,11 -10,18 -16,42 -20,72 -3,29 -3,59 2,88 5,30 13,55 22,75 4,8 8,16 14,24 6,7 12,12 19,16 7,4 14,5 23,5 9,0 18,-4 29,-10 14,-9 25,-20 33,-34 9,-13 16,-27 21,-40 5,-15 9,-31 13,-47 2,-15 4,-31 5,-50 1,-18 2,-37 3,-55 0,-18 1,-35 0,-51 0,-16 -1,-29 -1,-40 1,-2 1,-4 3,-8 1,-4 4,-6 8,-7 2,0 3,0 5,0 2,1 4,4 5,10 2,50 3,92 1,126 -1,33 -3,61 -7,83 -2,19 -7,37 -15,54 -6,15 -15,31 -27,48 -12,16 -28,31 -49,44 -16,9 -30,14 -42,16 -13,1 -24,2 -33,1 -11,-2 -21,-4 -29,-9 -18,-10 -33,-25 -46,-47 -13,-21 -22,-42 -27,-64 -5,-18 -7,-38 -7,-60 0,-21 2,-42 8,-63 6,-21 14,-40 26,-59 11,-18 27,-34 46,-47 5,-3 10,-7 17,-10 5,-2 10,-4 16,-5 6,-1 12,-2 18,-1z"/>
  <path id="4" class="fil5" d="M603 7916c-16,9 -31,15 -44,17 -13,2 -24,3 -33,2 -11,-2 -21,-5 -30,-9 -18,-10 -33,-26 -46,-47 -13,-21 -22,-43 -27,-64 -5,-19 -7,-39 -7,-60 0,-21 3,-42 8,-63 6,-21 15,-41 26,-59 12,-19 27,-34 46,-47 15,-11 28,-18 42,-20 11,-2 23,-1 35,5 13,6 23,20 31,43 3,11 5,23 6,36 1,11 0,22 -1,35 -1,12 -5,25 -10,37 -7,13 -14,25 -22,36 -8,11 -17,21 -26,30 -8,8 -17,16 -24,22 -8,6 -14,11 -19,14 5,16 12,29 19,39 7,10 14,18 22,23 5,4 11,6 19,7 6,0 14,-1 23,-3 9,-3 19,-9 30,-19 7,-7 14,-16 20,-27 5,-9 11,-20 16,-33 6,-14 10,-30 12,-47 2,-15 4,-32 5,-50 2,-19 2,-37 3,-55 1,-18 1,-35 1,-52 -1,-16 -1,-29 -2,-39 1,-2 2,-5 3,-8 1,-4 4,-6 9,-7 1,-1 2,0 4,0 3,1 4,4 5,10 2,50 3,91 1,125 -1,34 -4,62 -7,84 -3,19 -8,37 -15,54 -6,15 -15,30 -27,47 -11,16 -27,31 -46,43zm-108 -140c1,4 2,9 4,15 1,6 2,11 3,15 22,-24 38,-46 47,-67 10,-21 15,-40 17,-56 2,-17 2,-30 -1,-41 -3,-11 -6,-18 -7,-22l-1 -2c-4,-8 -7,-14 -11,-18 -2,-2 -5,-4 -6,-5l-1 -1c-1,-1 -3,-1 -5,-1l-5 3c-4,2 -8,6 -10,10 -3,5 -5,8 -5,9 -10,18 -17,42 -21,72 -4,29 -3,59 2,89z"/>
  <path class="fil5" d="M1268 8226c-5,1 -12,3 -19,4 -8,1 -16,2 -22,3 -9,0 -17,1 -26,1 -17,1 -30,-3 -39,-11 -9,-8 -16,-17 -20,-28 -5,-12 -8,-26 -8,-41 0,-4 0,-10 1,-17 1,-8 3,-16 7,-24 3,-8 8,-17 15,-25 7,-10 16,-18 27,-26 19,-12 34,-20 48,-22 13,-2 24,-1 33,2 9,3 16,8 21,15 5,7 8,14 10,20 2,12 3,24 1,36 -1,10 -5,20 -11,31 -7,10 -19,19 -35,26 -4,1 -6,2 -7,1 -2,-1 -3,-2 -3,-3 -1,-1 -2,-3 -1,-5 1,-7 2,-15 3,-26 1,-11 1,-21 1,-31 -1,-10 -2,-19 -5,-26 -3,-7 -7,-11 -14,-11 -8,0 -14,5 -19,15 -5,9 -9,20 -11,33 -3,13 -3,26 -3,39 1,13 4,23 8,29 3,6 7,11 12,13 5,3 10,4 16,5 6,0 12,0 18,-1 6,-1 12,-2 17,-4 47,-9 77,-3 89,18 4,7 6,16 7,27 2,12 1,26 -3,40 -4,16 -12,32 -23,49 -11,17 -27,34 -48,51 -18,12 -33,21 -46,25 -13,4 -23,6 -32,6 -8,-1 -15,-3 -20,-7 -4,-4 -8,-7 -9,-10 -3,-3 -3,-7 -1,-11 3,-3 7,-5 13,-6 4,0 11,-4 22,-12 11,-8 23,-19 34,-32 11,-14 21,-29 28,-47 8,-17 11,-35 9,-54 0,-2 -1,-4 -2,-6 -3,-4 -7,-5 -13,-3z"/>
  <path id="1" class="fil5" d="M1469 8263c1,0 1,1 1,3 -1,1 -1,1 -2,2 -8,5 -15,7 -21,7 -7,1 -12,0 -18,-3 -6,-2 -11,-5 -17,-9 -7,-5 -13,-12 -19,-21 -6,-9 -11,-20 -16,-31 -4,-12 -8,-25 -12,-38 -4,-13 -8,-26 -11,-39 -7,-31 -13,-64 -17,-99 -5,-50 -7,-95 -5,-137 2,-18 4,-36 6,-54 3,-17 6,-34 12,-49 5,-15 11,-29 19,-40 8,-11 18,-19 30,-25 6,-2 13,-3 20,-2 6,0 12,2 19,5 7,3 14,9 21,17 1,2 1,4 0,5 0,0 -1,0 -1,0 0,0 -1,0 -1,1 -5,0 -11,2 -18,6 -7,4 -14,15 -21,33 -6,17 -10,44 -13,79 -3,35 -2,83 2,144 0,5 0,10 1,16 0,5 1,11 2,19 1,7 2,15 3,23 1,-17 3,-34 5,-53 2,-19 5,-37 10,-53 4,-17 10,-32 17,-45 7,-13 17,-23 28,-29 6,-4 12,-6 17,-7 8,-1 16,-1 24,1 6,2 12,5 19,10 8,6 14,14 19,26 5,13 9,27 11,44 2,16 4,32 4,48 1,16 2,32 1,46 1,14 1,26 2,35 1,14 3,24 5,31 3,6 5,11 7,13 3,4 5,5 8,4 11,-5 19,-16 27,-33 7,-18 12,-39 16,-64 3,-25 5,-53 4,-82 -1,-28 -4,-56 -8,-83 0,-2 0,-5 1,-8 1,-3 3,-5 7,-7 1,-1 3,-1 4,-1 3,1 5,4 6,9 10,61 14,110 11,149 -2,38 -7,68 -15,90 -8,22 -18,38 -28,48 -11,9 -19,15 -26,19 -14,7 -26,9 -36,7 -10,-2 -19,-7 -26,-16 -6,-9 -12,-21 -16,-35 -4,-15 -7,-30 -10,-47 -2,-18 -4,-35 -5,-54 -1,-18 -2,-36 -4,-54l0 0c0,-19 -2,-32 -4,-41 -2,-8 -4,-14 -7,-18 -3,-4 -6,-5 -9,-4 -5,1 -10,6 -13,17 -5,10 -8,24 -11,42 -3,17 -6,36 -8,58 -2,22 -3,44 -3,66 1,23 1,44 3,66 2,21 5,40 10,56 1,5 2,10 4,15 2,4 4,8 7,12 2,4 5,7 8,9z"/>
  <path id="2" class="fil5" d="M1630 7947c-4,-30 -4,-58 2,-85 2,-12 6,-23 10,-35 5,-11 11,-22 19,-33 8,-10 18,-20 30,-29 12,-9 27,-16 43,-22 16,-6 30,-7 41,-5 12,2 22,7 30,15 8,7 15,16 21,26 6,10 10,20 14,30 18,-16 31,-32 40,-48 8,-16 13,-28 16,-36 1,-1 2,-3 3,-5 2,-3 4,-5 7,-7 4,-2 6,-2 7,-1 1,2 1,4 1,7 -5,19 -13,39 -24,60 -11,22 -25,42 -42,60 1,3 1,5 2,7 0,2 1,4 1,5 0,2 0,3 0,5 7,43 7,78 1,106 -6,28 -14,50 -25,67 -12,19 -27,34 -44,44 -19,10 -37,14 -54,12 -17,-1 -32,-8 -45,-19 -13,-12 -24,-28 -33,-48 -10,-20 -17,-44 -21,-71zm172 -112c-9,-30 -20,-50 -33,-60 -13,-11 -24,-13 -35,-8 -10,6 -17,15 -21,28 -3,13 -2,26 5,40 4,8 9,13 16,15 7,2 14,3 21,2 8,-1 17,-3 26,-7 7,-3 14,-6 21,-10zm15 76c-1,-7 -2,-14 -3,-21 -1,-7 -2,-13 -4,-19 -11,8 -24,14 -37,19 -11,4 -21,6 -30,6 -9,1 -17,0 -24,-2 -7,-2 -13,-5 -17,-9 -5,-4 -9,-8 -12,-12 0,10 1,21 2,35 1,14 3,28 6,42 2,15 5,29 9,43 4,14 9,26 14,36 6,10 12,18 20,23 8,6 16,7 26,3 5,-1 11,-5 18,-11 6,-6 12,-14 18,-26 6,-11 11,-25 14,-43 3,-17 3,-39 0,-64z"/>
  <path id="3" class="fil5" d="M2163 7840c-5,8 -11,14 -18,18 -8,4 -14,6 -20,8 -16,4 -30,4 -40,-1 -10,-5 -19,-11 -26,-19 -4,22 -10,42 -19,59 -9,17 -21,29 -37,35 -15,7 -29,10 -42,8 -11,-1 -22,-6 -32,-16 -11,-9 -18,-27 -22,-52 -4,-25 -7,-53 -9,-83 -2,-30 -4,-57 -6,-81 0,-9 -1,-17 -3,-23 -2,-6 -4,-11 -5,-15 -1,-2 -2,-4 -2,-7 -1,-2 -1,-5 0,-8 1,-2 2,-5 4,-7 2,-2 5,-3 10,-4 15,0 27,3 36,10 9,7 16,16 22,29 6,12 9,25 12,41 2,15 3,31 4,47 0,15 1,30 0,45 1,14 1,26 2,35 0,11 1,20 3,28 2,7 4,13 8,19 3,6 8,9 15,9 9,-4 16,-11 21,-22 5,-12 9,-26 11,-42 2,-16 3,-33 3,-52 0,-19 0,-37 -1,-56 -2,-18 -3,-37 -5,-56 -1,-18 -2,-36 -3,-52 -1,-9 -2,-16 -4,-22 -2,-7 -4,-12 -5,-16 -1,-2 -1,-4 -2,-7 0,-2 0,-5 0,-7 1,-3 2,-5 5,-7 2,-3 6,-4 11,-4 14,-1 26,2 35,9 9,7 17,17 22,30 6,12 9,26 12,42 2,16 3,32 4,48 1,15 1,31 1,45 -1,14 0,26 1,35 0,10 2,19 3,27 2,6 4,12 7,18 3,6 7,9 13,9 2,0 5,-1 8,-2 3,-1 6,-4 9,-9 5,-9 9,-20 12,-33 3,-13 6,-27 7,-41 2,-14 4,-28 4,-43 1,-15 2,-29 2,-43 0,-32 -1,-66 -3,-101 -2,-25 -6,-45 -11,-61 -5,-17 -13,-25 -22,-24 -9,0 -17,4 -23,13 -6,8 -11,16 -14,24 0,2 0,4 -1,5 -2,4 -5,5 -7,3 -3,0 -5,-3 -7,-10 0,-3 -1,-6 -1,-10 -2,-15 1,-31 8,-47 7,-16 20,-27 40,-33 11,-4 21,-4 28,-1 8,2 14,6 18,11 6,5 11,11 14,20 11,21 17,46 19,75 3,29 3,57 1,86 -1,30 -3,60 -8,88 -3,25 -8,50 -14,75 -6,26 -14,47 -23,63z"/>
  <polygon class="fil6 str10" points="907,6672 907,7769 1864,7218 "/>
  <polygon class="fil6 str11" points="445,7404 519,7361 594,7317 550,7242 506,7167 432,7211 357,7255 401,7330 "/>
  <rect class="fil6 str11" transform="matrix(0.838726 -0.544554 0.544554 0.838726 476.319 8392.58)" width="76.2" height="237.06"/>
  <rect class="fil6 str11" transform="matrix(0.838726 -0.544554 0.544554 0.838726 607.549 8307.92)" width="76.2" height="237.06"/>
  <circle class="fil2 str12" cx="327" cy="8514" r="51"/>
  <polygon class="fil7 str13" points="-132,8562 -162,8528 2162,7152 2179,7165 "/>
  <circle class="fil2 str12" cx="806" cy="8217" r="51"/>
  <circle class="fil2 str12" cx="1009" cy="8556" r="51"/>
  <circle class="fil2 str12" cx="251" cy="7515" r="51"/>
  <polyline class="fil2 str8" points="6356,-250 6322,-288 6356,-335 6322,-381 6356,-424 6322,-470 6356,-517 6322,-559 6356,-606 "/>
  <polyline class="fil2 str4" points="6272,-487 6238,-525 6272,-559 6238,-593 6272,-631 6238,-669 6272,-703 6238,-737 6272,-775 6238,-813 6272,-847 6238,-881 6272,-919 6238,-957 6272,-991 6238,-1025 6272,-1063 "/>
  <line class="fil2 str4" x1="6033" y1="-1067" x2="6033" y2= "-1050" />
  <line class="fil2 str4" x1="6024" y1="-1058" x2="6041" y2= "-1058" />
  <circle class="fil2 str6" cx="6246" cy="-1457" r="34"/>
  <path class="fil2 str4" d="M5954 -1600c0,8 0,33 0,33"/>
  <line class="fil2 str4" x1="5971" y1="-1584" x2="5937" y2= "-1584" />
  <line class="fil2 str4" x1="5878" y1="-3290" x2="5878" y2= "-3256" />
  <line class="fil2 str4" x1="5895" y1="-3273" x2="5861" y2= "-3273" />
  <path class="fil2 str2" d="M5154 -2807c0,4 0,51 0,51"/>
  <line class="fil2 str2" x1="5179" y1="-2782" x2="5129" y2= "-2782" />
  <line class="fil2 str2" x1="6195" y1="-2705" x2="6195" y2= "-2655" />
  <line class="fil2 str2" x1="6221" y1="-2680" x2="6170" y2= "-2680" />
  <line class="fil2 str6" x1="6047" y1="-2938" x2="6047" y2= "-2837" />
  <line class="fil2 str6" x1="6098" y1="-2887" x2="5996" y2= "-2887" />
  <circle class="fil2 str2" cx="5690" cy="-2005" r="25"/>
  <circle class="fil2 str2" cx="6284" cy="-3129" r="25"/>
  <path class="fil2 str2" d="M6026 -1960c-174,173 -296,296 -296,296"/>
  <line class="fil2 str2" x1="6009" y1="-1816" x2="6305" y2= "-2113" />
  <line class="fil2 str2" x1="5637" y1="-2612" x2="6178" y2= "-3374" />
  <polyline class="fil2 str4" points="5256,-3129 5251,-3184 5192,-3188 5188,-3247 5124,-3251 5124,-3311 5061,-3315 5061,-3374 5010,-3383 "/>
  <polygon class="fil1 str1" points="6091,-2350 6010,-2416 5928,-2483 5864,-2403 5800,-2324 5882,-2258 5963,-2192 6027,-2271 "/>
  <circle class="fil1 str1" cx="5802" cy="-1368" r="135"/>
  <polygon class="fil3 str7" points="5528,-3314 5552,-3245 5575,-3175 5498,-3195 5420,-3215 5474,-3265 "/>
  <polygon class="fil3 str7" points="5748,-3118 5771,-3048 5795,-2978 5717,-2999 5639,-3019 5694,-3068 "/>
  <polygon class="fil3 str7" points="5638,-3216 5661,-3147 5685,-3077 5607,-3097 5530,-3117 5584,-3167 "/>
 </g>
</svg>
