<?xml version="1.0" encoding="UTF-8"?>
<!DOCTYPE svg PUBLIC "-//W3C//DTD SVG 1.1//EN" "http://www.w3.org/Graphics/SVG/1.1/DTD/svg11.dtd">
<!-- Creator: CorelDRAW X7 -->
<svg xmlns="http://www.w3.org/2000/svg" xml:space="preserve" width="8.4666mm" height="25.3998mm" version="1.1" style="shape-rendering:geometricPrecision; text-rendering:geometricPrecision; image-rendering:optimizeQuality; fill-rule:evenodd; clip-rule:evenodd"
viewBox="0 0 847 2540"
 xmlns:xlink="http://www.w3.org/1999/xlink">
 <defs>
  <style type="text/css">
   <![CDATA[
    .str8 {stroke:#2B2A29;stroke-width:8.46}
    .str4 {stroke:black;stroke-width:8.46}
    .str13 {stroke:#180A21;stroke-width:8.46}
    .str10 {stroke:#CC0033;stroke-width:8.46}
    .str11 {stroke:#CC0033;stroke-width:8.46}
    .str7 {stroke:#EAA639;stroke-width:8.46}
    .str9 {stroke:#F7931E;stroke-width:8.46}
    .str0 {stroke:#FCBF51;stroke-width:8.46}
    .str1 {stroke:#FFCA5F;stroke-width:8.46}
    .str12 {stroke:#180A21;stroke-width:42.33}
    .str2 {stroke:black;stroke-width:16.93}
    .str3 {stroke:black;stroke-width:20}
    .str6 {stroke:black;stroke-width:25.39}
    .str5 {stroke:black;stroke-width:7.62}
    .fil2 {fill:none}
    .fil7 {fill:#180A21}
    .fil6 {fill:#CC0033}
    .fil3 {fill:#EAA639}
    .fil4 {fill:#F7931E}
    .fil0 {fill:#FCBF51}
    .fil1 {fill:#FFCA5F}
    .fil5 {fill:black;fill-rule:nonzero}
   ]]>
  </style>
 </defs>
 <g id="Слой_x0020_1">
  <metadata id="CorelCorpID_0Corel-Layer"/>
  <path class="fil0 str0" d="M392 7527l844 -489c85,149 130,318 130,489 0,540 -436,978 -974,978 -539,0 -975,-438 -975,-978 0,-540 436,-978 975,-978l0 978z"/>
  <path class="fil1 str1" d="M392 6793l-22 17 -17 11c0,0 0,0 -17,0 -17,0 -47,-29 -51,-33 -4,-5 -13,-26 -25,-26 -13,0 -30,13 -43,26 -12,12 -17,17 -34,25 -17,8 -4,8 -21,8 -17,0 -55,-50 -76,-33 -21,16 -30,50 -25,63 4,13 -5,51 0,76 4,26 12,21 12,34 0,13 -17,64 -25,72 -9,9 -30,30 -47,38 -17,9 -17,9 -29,9 -13,0 -55,-26 -68,-47 -13,-21 -38,-60 -51,-68 -13,-7 -25,-6 -29,-4l-9 4c-1,1 -43,18 -47,60 -3,41 -4,55 -4,55l0 59c8,8 47,45 47,51 0,4 0,17 -4,21 -5,4 -31,24 -43,34 -12,10 -21,29 -20,37 1,7 -1,18 16,39 17,21 64,72 76,85 13,12 30,38 34,50 11,32 1,89 -17,115 -17,25 -46,51 -68,59 -21,8 -55,3 -76,0 -21,-3 -64,-13 -76,-13 -12,0 -34,9 -34,26 0,17 26,42 47,55 21,12 51,42 55,67 4,26 -1,36 4,43 5,7 41,-4 63,8 23,12 30,17 34,30 5,13 -29,114 -38,123 -8,8 4,29 13,38 8,8 21,21 55,25 34,4 76,4 93,13 17,8 34,34 30,56 -5,22 -11,53 -13,75 -2,23 13,64 59,64 47,0 55,-30 89,-47 34,-17 67,-14 85,0 18,14 30,28 25,59 -5,31 -25,43 -38,55 -13,13 -13,17 -8,21 4,5 17,7 30,6 14,-1 28,-11 56,-19 28,-8 45,-8 62,-25 17,-17 42,-29 59,-29 17,0 47,7 59,28 13,21 22,44 30,52 9,9 21,-4 25,-8 5,-5 15,-21 17,-47 3,-26 -5,-96 -8,-116 -4,-21 -13,-62 13,-104 25,-42 70,-48 93,-47 22,2 84,22 106,43 21,21 42,68 46,97 4,30 4,64 21,76 17,13 38,13 55,5 17,-9 30,-17 34,-43 4,-25 1,-64 4,-84 4,-21 17,-43 34,-47 17,-4 38,25 64,25 25,0 29,-25 34,-46 4,-21 -17,-55 -30,-68 -13,-13 -59,-59 -63,-76 -5,-17 1,-27 4,-30 3,-2 17,-17 29,-17 13,0 51,0 64,0 13,0 55,0 72,-8 17,-9 46,-30 59,-47 13,-16 41,-71 42,-106 2,-34 -24,-55 -38,-71 -13,-17 -48,-49 -51,-84 -4,-34 1,-65 26,-86 25,-21 58,-26 68,-42 10,-16 -7,-44 -26,-51 -19,-7 -48,-29 -57,-40 -8,-11 -9,-45 2,-57 23,-24 48,-43 83,-43 12,0 27,0 27,-8 0,-9 -12,-30 -17,-34 -4,-4 -12,-25 -17,-42 -4,-17 -4,-30 -4,-34 0,-4 -6,-12 -4,-12l-766 474 1 -770z"/>
  <line class="fil2 str2" x1="-4020" y1="-3792" x2="-3707" y2= "-3490" />
  <line class="fil2 str3" x1="-3863" y1="-3514" x2="-3567" y2= "-3218" />
  <path class="fil2 str2" d="M-3910 -3205c14,0 25,12 25,26 0,14 -11,25 -25,25 -14,0 -25,-11 -25,-25 0,-14 11,-26 25,-26z"/>
  <circle class="fil2 str3" cx="-3364" cy="-3734" r="35"/>
  <path class="fil2 str4" d="M-3487 -3459c0,21 0,34 0,34"/>
  <line class="fil2 str4" x1="-3470" y1="-3442" x2="-3504" y2= "-3442" />
  <polyline class="fil2 str5" points="-2957,-3529 -2957,-3522 -2957,-3516 -2957,-3522 -2964,-3522 -2951,-3522 "/>
  <polyline class="fil2 str4" points="-2966,-3759 -2932,-3721 -2894,-3759 -2856,-3721 -2822,-3759 -2788,-3721 -2750,-3759 -2712,-3721 -2678,-3759 -2644,-3721 -2606,-3759 -2568,-3721 -2534,-3759 -2500,-3721 -2462,-3759 -2424,-3721 -2390,-3759 "/>
  <polyline class="fil2 str4" points="-2509,-3844 -2462,-3810 -2420,-3844 -2373,-3810 -2327,-3844 -2284,-3810 -2238,-3844 -2191,-3810 -2145,-3844 "/>
  <ellipse class="fil1 str1" cx="-3271" cy="-3290" rx="138" ry="135"/>
  <line class="fil2 str4" x1="-3432" y1="10201" x2="-3432" y2= "10167" />
  <line class="fil2 str4" x1="-3449" y1="10184" x2="-3415" y2= "10184" />
  <path class="fil2 str2" d="M-2708 9718c0,-4 0,-51 0,-51"/>
  <line class="fil2 str2" x1="-2733" y1="9693" x2="-2682" y2= "9693" />
  <line class="fil2 str2" x1="-3749" y1="9616" x2="-3749" y2= "9566" />
  <line class="fil2 str2" x1="-3775" y1="9591" x2="-3724" y2= "9591" />
  <line class="fil2 str6" x1="-3601" y1="9849" x2="-3601" y2= "9748" />
  <line class="fil2 str6" x1="-3652" y1="9798" x2="-3550" y2= "9798" />
  <circle class="fil2 str2" cx="-3838" cy="10040" r="25"/>
  <line class="fil2 str2" x1="-3190" y1="9523" x2="-3732" y2= "10285" />
  <polyline class="fil2 str4" points="-2809,10040 -2805,10095 -2746,10099 -2742,10158 -2678,10163 -2678,10222 -2615,10226 -2615,10285 -2564,10294 "/>
  <polygon class="fil1 str1" points="-3645,9261 -3564,9327 -3482,9394 -3418,9314 -3354,9235 -3436,9169 -3517,9103 -3581,9182 "/>
  <polygon class="fil3 str7" points="-3082,10225 -3106,10156 -3129,10086 -3052,10106 -2974,10126 -3028,10176 "/>
  <polygon class="fil3 str7" points="-3302,10029 -3325,9959 -3348,9889 -3271,9910 -3193,9930 -3247,9979 "/>
  <polygon class="fil3 str7" points="-3192,10127 -3215,10058 -3239,9988 -3161,10008 -3084,10028 -3138,10078 "/>
  <polyline class="fil2 str8" points="781,2422 747,2384 781,2338 747,2291 781,2249 747,2202 781,2156 747,2113 781,2067 "/>
  <polyline class="fil2 str4" points="696,2185 662,2147 696,2113 662,2079 696,2041 662,2003 696,1969 662,1935 696,1897 662,1859 696,1825 662,1791 696,1753 662,1715 696,1681 662,1648 696,1609 "/>
  <line class="fil2 str4" x1="457" y1="1606" x2="457" y2= "1623" />
  <line class="fil2 str4" x1="449" y1="1614" x2="466" y2= "1614" />
  <circle class="fil2 str6" cx="671" cy="1216" r="34"/>
  <path class="fil2 str4" d="M379 1072c0,8 0,34 0,34"/>
  <line class="fil2 str4" x1="396" y1="1089" x2="362" y2= "1089" />
  <circle class="fil2 str2" cx="114" cy="667" r="25"/>
  <path class="fil2 str2" d="M451 712c-174,174 -297,296 -297,296"/>
  <line class="fil2 str2" x1="434" y1="856" x2="730" y2= "560" />
  <polygon class="fil1 str1" points="515,322 434,256 353,190 289,269 225,348 306,414 387,481 451,402 "/>
  <circle class="fil1 str1" cx="226" cy="1305" r="135"/>
  <line class="fil2 str2" x1="6899" y1="9996" x2="6585" y2= "9694" />
  <line class="fil2 str3" x1="6742" y1="9718" x2="6446" y2= "9422" />
  <path class="fil2 str2" d="M6789 9409c-14,0 -26,-11 -26,-25 0,-15 12,-26 26,-26 14,0 25,11 25,26 0,14 -11,25 -25,25z"/>
  <circle class="fil2 str3" cx="6242" cy="9938" r="35"/>
  <path class="fil2 str4" d="M6365 9663c0,-21 0,-34 0,-34"/>
  <line class="fil2 str4" x1="6348" y1="9646" x2="6382" y2= "9646" />
  <polyline class="fil2 str5" points="5836,9733 5836,9726 5836,9720 5836,9726 5842,9726 5830,9726 "/>
  <polyline class="fil2 str4" points="5845,9963 5811,9925 5773,9963 5734,9925 5701,9963 5667,9925 5629,9963 5591,9925 5557,9963 5523,9925 5485,9963 5447,9925 5413,9963 5379,9925 5341,9963 5303,9925 5269,9963 "/>
  <polyline class="fil2 str4" points="5387,10048 5341,10014 5298,10048 5252,10014 5205,10048 5163,10014 5116,10048 5070,10014 5023,10048 "/>
  <ellipse class="fil1 str1" cx="6149" cy="9494" rx="138" ry="135"/>
  <line class="fil2 str2" x1="-3625" y1="1224" x2="-4108" y2= "1705" />
  <line class="fil2 str2" x1="-3180" y1="975" x2="-3663" y2= "1456" />
  <ellipse class="fil2 str2" cx="-3125" cy="1516" rx="30" ry="31"/>
  <path class="fil4 str9" d="M392 6778c-3,8 -7,14 -13,21 -6,7 -16,13 -22,16 -5,2 -17,5 -28,0 -10,-6 -27,-19 -37,-27 -10,-8 -19,-31 -32,-31 -12,0 -29,13 -42,25 -13,13 -20,23 -31,29 -11,6 -30,5 -36,1 -5,-3 -43,-46 -64,-30 -21,17 -30,51 -26,64 5,13 -4,51 0,76 5,26 13,21 13,34 0,13 -7,46 -20,63 -13,18 -34,36 -45,45 -11,8 -24,11 -37,11 -12,0 -55,-26 -67,-47 -13,-21 -38,-60 -51,-68 -13,-7 -24,-7 -30,-4l-14 7c-4,2 -37,15 -41,57 -3,41 -4,55 -4,55l0 59c0,0 9,8 17,17 8,8 30,29 30,34 0,4 0,17 -5,21 -4,4 -30,24 -42,34 -12,10 -22,29 -20,37 1,7 -1,18 16,39 17,21 63,72 76,85 13,12 30,38 34,50 4,13 4,30 4,38 0,9 -4,51 -21,77 -17,25 -47,50 -68,59 -21,8 -55,3 -76,0 -21,-3 -65,-13 -76,-13 -12,0 -34,9 -34,26 0,17 25,42 47,55 21,12 50,42 55,67 4,26 -1,36 4,43 5,7 34,3 54,7 20,5 39,18 43,31 4,12 -34,109 -38,123 -4,13 4,29 13,38 8,8 21,21 55,25 34,4 76,4 93,13 17,8 34,34 29,56 -4,22 -10,52 -12,75 -2,23 13,63 59,63 47,0 55,-29 89,-46 34,-17 67,-14 85,0 18,14 30,28 25,59 -5,31 -25,43 -38,55 -13,13 -13,17 -8,21 4,5 16,7 30,6 13,-1 26,-17 54,-25 28,-8 46,3 63,-14 17,-17 44,-41 62,-42 17,-1 44,20 57,36 14,16 21,44 30,52 8,9 21,-4 25,-8 4,-5 14,-21 17,-47 3,-26 -5,-96 -9,-117 -3,-20 -12,-61 13,-103 26,-42 71,-48 94,-47 22,1 84,22 105,43 22,21 43,67 47,97 4,30 4,64 21,76 17,13 38,13 55,4 17,-8 30,-16 34,-42 4,-25 0,-64 4,-85 4,-20 17,-42 34,-46 17,-4 38,25 64,25 25,0 32,-28 33,-46 2,-19 -16,-55 -29,-68 -13,-13 -59,-59 -64,-76 -4,-17 2,-27 5,-30 3,-3 17,-17 29,-17 13,0 51,0 64,0 12,0 55,0 72,-8 17,-9 46,-30 59,-47 13,-17 41,-72 42,-106 2,-34 -25,-55 -38,-72 -13,-16 -48,-48 -52,-83 -4,-34 1,-65 27,-86 25,-21 57,-26 68,-42 10,-16 -7,-44 -26,-51 -19,-7 -48,-29 -57,-40 -9,-11 -9,-45 2,-57 11,-13 22,-23 39,-32 17,-8 31,-11 43,-11 13,0 28,0 28,-8 0,-9 -13,-30 -17,-34 -4,-4 -12,-25 -17,-42 -4,-17 -4,-30 -4,-34 0,-5 6,-9 9,-9l8 0 12 -6 1 40 8 34 19 28c6,9 11,19 11,27 0,8 -12,18 -17,21 -5,4 -39,11 -55,17 -17,6 -30,13 -34,21 -4,9 -5,21 0,30 4,8 34,13 47,17 12,4 27,20 32,29 6,9 18,34 18,51 0,17 -8,34 -17,43 -8,8 -42,25 -51,29 -8,5 -21,13 -21,26 0,12 22,21 34,25 13,4 30,17 34,30 4,12 4,25 -4,34 -9,8 -18,13 -30,17 -12,3 -21,8 -8,12 13,4 28,25 32,34 3,9 14,55 6,80 -9,26 -34,60 -47,77 -12,17 -67,67 -93,72 -25,4 -72,-9 -84,-9 -12,1 -34,2 -39,4 -4,3 -12,10 -12,19 0,8 4,15 17,28 12,13 29,30 42,42 13,13 28,37 34,51 6,14 9,24 8,42 -1,19 -15,45 -29,55 -14,11 -42,15 -53,14 -11,-1 -28,-14 -36,-9 -9,4 -9,24 -9,32 0,8 0,48 -4,65 -4,17 -21,51 -59,68 -38,17 -93,0 -110,-17 -17,-17 -28,-59 -26,-85 2,-26 1,-39 -18,-61 -19,-22 -41,-30 -58,-36 -17,-6 -40,-3 -57,1 -18,3 -27,28 -27,44 1,15 21,71 21,86 -1,15 0,47 -5,72 -4,25 -16,55 -29,76 -13,21 -42,47 -59,47 -17,0 -34,0 -55,-26 -22,-25 -19,-30 -26,-42 -6,-12 -8,-25 -17,-25 -8,0 -28,24 -61,42 -32,18 -43,23 -89,36 -47,12 -68,10 -86,2 -19,-8 -31,-34 -35,-46 -3,-13 -8,-34 4,-55 13,-22 22,-22 34,-34 13,-13 22,-22 9,-22 -13,0 -26,10 -47,26 -20,16 -44,39 -80,38 -37,-1 -55,-4 -72,-13 -17,-8 -38,-21 -51,-38 -13,-17 -17,-38 -17,-68 0,-29 5,-52 11,-58 5,-7 19,-30 19,-39 0,-8 -18,-8 -33,-4 -14,4 -27,8 -56,8 -30,0 -81,-25 -89,-55 -9,-29 -29,-82 -17,-99 13,-17 28,-27 38,-36 10,-10 21,-17 17,-26 -4,-8 -13,-8 -19,-9 -7,-2 -28,-6 -39,-6 -10,-1 -27,-6 -35,-14 -9,-9 -14,-18 -13,-30 1,-12 4,-34 4,-51 0,-17 -12,-29 -21,-34 -8,-4 -29,-8 -46,-16 -17,-9 -34,-39 -34,-64 0,-25 8,-47 25,-55 17,-8 51,-25 76,-13 26,13 40,18 61,22 22,3 54,4 66,-5 13,-8 28,-29 34,-42 7,-13 21,-42 21,-68 0,-25 -5,-34 -16,-46 -12,-13 -55,-64 -72,-77 -17,-12 -40,-50 -47,-67 -7,-18 -3,-42 4,-55 8,-13 13,-22 26,-30 12,-8 17,-8 21,-13 4,-4 -13,-12 -21,-15 -7,-4 -30,-23 -34,-40 -4,-17 -20,-56 -15,-90 4,-34 27,-73 40,-91 12,-19 45,-43 63,-49 18,-7 57,-12 77,-7 20,6 30,17 46,34 17,17 22,30 34,51 13,21 13,21 21,21 9,0 22,-4 30,-21 9,-17 26,-93 17,-127 -8,-34 0,-47 0,-59 0,-13 17,-51 38,-64 21,-13 59,-25 72,-17 13,9 17,13 26,30 8,17 0,25 12,21 13,-4 29,-14 34,-19 6,-5 20,-18 33,-25 13,-6 26,-7 35,-3 8,5 25,22 34,34 8,13 12,30 25,34 13,4 24,3 34,-4 10,-7 11,-16 17,-21 5,-6 13,-9 13,-9l0 17z"/>
  <path class="fil5" d="M-969 7968c-6,-30 -6,-55 0,-77 6,-21 14,-38 24,-53 11,-16 25,-30 42,-41l3 -2c1,-1 2,-2 3,-3 2,-1 3,-2 6,-4 6,-4 16,-8 27,-13 11,-4 24,-7 37,-7 14,0 27,3 40,10 13,7 25,19 36,37 9,16 14,30 14,44 0,13 -3,25 -8,36 -6,10 -14,20 -23,28 -10,8 -20,15 -29,21 -6,3 -11,6 -14,8 -3,2 -8,4 -14,7 -6,3 -15,7 -28,13 -12,6 -31,14 -56,25l3 5c3,5 10,13 19,24 9,11 21,20 37,28 15,7 35,11 57,10 23,-1 49,-10 79,-28 19,-11 34,-23 44,-37 10,-13 17,-27 21,-41 5,-14 7,-27 6,-40 -1,-13 -2,-24 -4,-35 -2,-10 -5,-18 -8,-25 -2,-6 -4,-9 -4,-10 -2,-4 -4,-9 -6,-12 -3,-4 -5,-8 -8,-13 -15,-25 -33,-54 -56,-87 -23,-33 -47,-70 -72,-110 -19,-32 -33,-61 -43,-86 -9,-25 -15,-46 -19,-64 -3,-17 -5,-30 -4,-39 0,-8 1,-13 1,-13 2,-13 7,-27 13,-40 7,-13 17,-24 32,-32 8,-5 16,-9 25,-11 11,-2 22,-3 32,-1 9,2 19,6 30,12 11,7 21,18 30,33 10,18 17,34 19,47 3,14 2,26 0,37 -3,10 -8,18 -14,25 -7,7 -14,12 -21,16 -4,3 -8,5 -11,7 -4,1 -6,1 -7,0 0,-1 0,-2 0,-3 0,-1 1,-2 1,-2 5,-10 9,-21 10,-32 1,-11 1,-21 -1,-30 -1,-11 -3,-21 -6,-31 -1,-4 -3,-9 -4,-13 -2,-4 -4,-8 -7,-12 -4,-7 -9,-12 -16,-16 -6,-4 -13,-4 -20,1 -8,4 -12,13 -13,27 -1,13 2,30 7,49 5,19 12,40 22,63 10,23 22,46 36,69 10,18 24,40 41,66 18,26 40,57 66,93 2,2 4,5 6,8 3,2 5,5 8,9 3,4 6,9 9,14 6,11 12,24 19,39 8,16 14,33 20,52 5,27 5,53 0,80 -5,22 -15,46 -30,72 -16,26 -41,49 -76,70 -28,16 -54,27 -77,33 -24,5 -45,7 -65,5 -19,-2 -36,-7 -52,-15 -15,-7 -29,-16 -40,-26 -11,-10 -21,-20 -29,-30 -7,-10 -13,-18 -17,-25l-6 -10c-1,-1 -1,-3 -1,-4 -29,13 -58,28 -88,42 -29,15 -58,30 -84,46 -23,13 -42,26 -61,39 -18,14 -33,27 -44,40 -12,13 -19,26 -23,39 -3,13 -2,25 5,37 2,2 3,4 4,6 1,2 3,4 6,6 -2,1 -2,3 1,4 3,1 6,2 11,4 4,2 9,3 13,4 4,2 6,3 7,5 1,2 0,3 -3,5 -6,4 -14,6 -23,9 -10,2 -20,3 -31,2 -11,-1 -21,-4 -32,-10 -10,-6 -20,-15 -27,-28 -10,-16 -15,-34 -14,-52 1,-18 6,-36 15,-54 10,-18 24,-36 42,-53 18,-17 40,-33 65,-48 33,-20 70,-36 113,-50 42,-13 86,-28 132,-43zm120 -42c9,-3 18,-7 25,-11 12,-7 21,-15 26,-22 6,-8 9,-15 11,-22 3,-8 3,-15 1,-23 -1,-3 -2,-6 -5,-11 -5,-9 -12,-16 -20,-19 -7,-4 -14,-6 -22,-6 -7,1 -14,2 -21,4 -7,3 -12,5 -16,8 -6,3 -11,7 -15,11 -5,4 -9,8 -12,11 -3,4 -7,8 -9,11 -7,13 -11,25 -14,37 -2,12 -4,22 -5,31 -1,10 0,20 2,28 13,-4 25,-8 38,-13 12,-4 24,-9 35,-13l1 -1z"/>
  <path id="1" class="fil5" d="M-442 7853c-12,8 -22,12 -31,10 -10,-1 -18,-4 -25,-8 -8,-5 -15,-12 -21,-22 -16,-25 -29,-54 -38,-86 -8,-32 -15,-63 -20,-92 -5,-34 -8,-68 -9,-102 -1,-22 -2,-46 -1,-75 1,-28 4,-55 9,-81 5,-27 12,-51 23,-72 11,-21 25,-35 43,-43 7,-2 14,-4 21,-3 7,0 13,2 21,5 7,4 14,10 21,19 1,3 2,4 1,5 0,0 0,0 -1,1l-1 0 -1 0c-4,0 -10,2 -18,6 -7,4 -14,15 -21,32 -7,16 -12,41 -16,74 -4,33 -4,77 -1,134 1,28 4,57 8,85 4,25 8,52 13,81 5,28 12,55 21,79 2,5 4,9 5,11 2,3 4,5 6,6 3,2 5,1 8,-1 11,-7 20,-20 27,-39 7,-19 12,-42 16,-69 3,-27 4,-55 3,-85 0,-31 -3,-60 -8,-88 0,-3 0,-5 1,-9 1,-3 4,-6 8,-7 1,-1 3,-1 4,-1 4,1 6,4 7,9 9,60 13,110 12,150 -2,39 -6,71 -13,95 -7,24 -15,42 -26,55 -10,12 -19,21 -27,26z"/>
  <path id="2" class="fil5" d="M-251 7432c2,-1 3,-1 5,-1 3,1 5,4 6,9 11,66 15,120 13,161 -3,41 -8,74 -17,98 -9,24 -19,41 -30,51 -12,11 -21,18 -28,21 -17,9 -32,12 -43,8 -12,-4 -21,-12 -29,-25 -7,-13 -13,-28 -18,-48 -4,-19 -7,-39 -9,-61 -2,-22 -4,-44 -5,-66 -2,-23 -3,-43 -4,-62 -1,-10 -2,-18 -4,-25 -2,-6 -4,-12 -6,-17 -1,-1 -1,-3 -2,-7 0,-2 0,-5 1,-8 0,-3 2,-5 4,-8 3,-2 7,-3 12,-4 17,-1 30,3 40,11 10,8 18,20 23,34 6,14 10,29 12,47 2,18 3,35 4,53 1,17 1,33 1,49 0,16 1,28 2,37 2,16 4,27 6,34 3,7 5,12 7,15 3,3 6,4 9,3 11,-4 21,-16 29,-35 8,-20 13,-43 17,-70 3,-27 5,-56 4,-88 0,-31 -3,-62 -8,-91 0,-2 0,-4 1,-8 1,-3 4,-6 7,-7zm-120 -21c-11,9 -21,9 -30,1 -8,-8 -15,-17 -21,-26 -4,-8 -7,-15 -10,-24 -3,-9 -1,-17 4,-25 5,-7 12,-13 21,-19 9,-6 18,-11 27,-13 9,-3 17,-3 25,-1 8,2 12,7 13,16 1,9 1,19 -1,28 -2,10 -5,19 -8,28 -3,9 -6,17 -10,23 -4,6 -7,11 -10,12z"/>
  <path id="3" class="fil5" d="M-131 7296c11,2 21,6 31,12 10,7 19,18 25,33 4,9 5,16 3,23 -1,7 -3,13 -6,18 -3,6 -7,10 -11,14 -4,4 -8,7 -10,8l-1 1c-2,1 -3,1 -3,0 -1,-1 -1,-1 -1,-2 -1,-3 -2,-8 -3,-14 -2,-6 -3,-13 -5,-20 -3,-14 -7,-25 -11,-32 -4,-7 -8,-12 -11,-14 -4,-3 -7,-4 -11,-3 -2,1 -4,3 -6,4 -2,2 -4,4 -7,7 -2,3 -5,6 -7,11 -10,18 -17,42 -20,71 -4,30 -3,59 2,89 5,30 12,54 22,75 3,8 8,16 14,23 5,7 12,13 18,17 7,3 15,5 24,5 8,-1 18,-4 28,-10 14,-9 25,-21 34,-34 9,-14 16,-27 21,-40 5,-15 9,-31 12,-47 3,-15 5,-32 6,-50 1,-19 2,-37 2,-55 1,-18 1,-35 1,-51 0,-17 -1,-30 -1,-40 0,-2 1,-5 2,-8 2,-4 5,-6 9,-7 1,-1 3,0 5,0 2,1 4,4 4,10 3,50 3,91 2,125 -1,34 -4,62 -7,84 -2,18 -7,36 -15,54 -7,15 -16,31 -28,47 -11,17 -28,32 -48,45 -16,8 -30,13 -43,15 -13,2 -24,3 -33,1 -11,-1 -20,-4 -28,-8 -18,-10 -34,-26 -47,-47 -12,-21 -21,-42 -27,-64 -4,-19 -7,-39 -7,-60 0,-21 3,-42 9,-63 5,-21 14,-41 26,-59 11,-19 26,-34 46,-47 5,-4 10,-7 16,-10 5,-2 11,-4 17,-5 6,-2 12,-2 18,-2z"/>
  <path id="4" class="fil5" d="M180 7492c-16,10 -31,16 -44,18 -13,2 -24,2 -33,1 -11,-1 -21,-4 -30,-9 -18,-10 -33,-25 -46,-46 -13,-21 -22,-43 -27,-65 -5,-18 -7,-38 -7,-59 -1,-22 2,-43 8,-64 6,-20 14,-40 26,-59 11,-18 27,-34 46,-47 14,-10 28,-17 41,-20 12,-2 24,0 36,6 12,5 22,20 30,43 3,11 6,23 6,35 1,11 1,23 0,35 -1,13 -5,25 -11,38 -6,13 -14,25 -22,36 -8,11 -16,21 -25,29 -9,9 -17,16 -24,23 -8,6 -15,11 -20,14 6,16 12,28 19,39 7,10 15,17 22,23 5,4 12,6 20,6 6,1 14,0 23,-2 9,-3 19,-9 29,-19 7,-7 14,-16 20,-27 6,-9 11,-20 17,-34 5,-13 9,-29 12,-47 2,-14 4,-31 5,-50 1,-18 2,-36 3,-55 0,-18 0,-35 0,-51 0,-16 -1,-29 -1,-40 0,-1 1,-4 2,-7 1,-4 4,-6 9,-8 2,0 3,0 5,1 2,0 4,4 5,10 2,49 2,91 1,125 -2,34 -4,62 -7,84 -3,18 -8,36 -16,53 -6,15 -14,31 -26,48 -12,16 -27,30 -46,42zm-108 -140c1,5 2,10 3,16 2,6 3,11 4,14 22,-23 38,-45 47,-66 9,-21 15,-40 17,-56 2,-17 1,-31 -2,-42 -3,-11 -5,-18 -6,-21l-2 -3c-3,-8 -6,-13 -10,-17 -3,-2 -5,-4 -6,-6l-1 0c-1,-1 -3,-1 -6,-1l-4 2c-5,3 -8,6 -11,11 -3,4 -4,7 -5,9 -9,18 -16,42 -20,71 -4,30 -3,60 2,89z"/>
  <path class="fil5" d="M844 7803c-4,1 -11,2 -19,3 -8,2 -15,3 -22,3 -8,1 -16,1 -25,2 -18,1 -31,-3 -40,-11 -9,-8 -15,-17 -20,-28 -4,-12 -7,-26 -8,-41 1,-5 1,-10 2,-18 1,-7 3,-15 6,-23 4,-8 9,-17 15,-26 7,-9 17,-17 28,-26 19,-12 34,-19 47,-21 14,-2 25,-2 34,1 9,3 16,8 20,16 5,7 9,13 10,19 3,13 4,25 2,37 -1,9 -5,20 -12,30 -6,11 -18,20 -35,27 -3,1 -5,1 -7,1 -1,-1 -2,-2 -3,-3 -1,-2 -1,-3 -1,-5 1,-7 2,-16 3,-26 1,-11 2,-21 1,-31 0,-10 -2,-19 -4,-26 -3,-8 -8,-11 -14,-11 -8,0 -14,5 -20,14 -5,10 -9,21 -11,34 -2,13 -3,26 -2,39 1,13 3,22 7,29 4,6 8,10 13,13 5,3 10,4 16,4 5,1 11,0 17,-1 6,-1 12,-2 18,-3 47,-10 77,-4 89,18 3,6 6,15 7,27 1,12 0,25 -4,40 -4,15 -11,31 -22,48 -11,17 -27,34 -48,51 -18,13 -34,22 -46,26 -13,4 -23,6 -32,5 -8,0 -15,-2 -20,-6 -5,-4 -8,-7 -10,-10 -2,-4 -2,-8 -1,-11 3,-3 8,-5 14,-6 3,0 11,-4 22,-12 11,-8 22,-19 34,-33 11,-13 20,-29 28,-46 8,-17 11,-36 8,-55 0,-1 -1,-3 -2,-5 -2,-4 -6,-5 -13,-3z"/>
  <path id="1" class="fil5" d="M1046 7839c1,1 1,2 0,3 0,1 0,2 -1,3 -8,5 -15,7 -21,7 -7,0 -13,-1 -18,-3 -6,-2 -12,-5 -17,-9 -7,-5 -14,-13 -19,-22 -6,-9 -11,-19 -16,-31 -5,-11 -9,-24 -13,-37 -3,-13 -7,-26 -10,-39 -7,-31 -13,-64 -17,-99 -6,-50 -7,-95 -5,-137 1,-18 3,-36 6,-54 2,-18 6,-34 11,-49 5,-16 12,-29 20,-40 8,-11 18,-20 30,-25 6,-2 13,-3 20,-3 6,1 12,3 19,6 7,3 14,9 20,17 1,2 2,4 1,5 -1,0 -1,0 -1,0 -1,0 -1,0 -2,0 -4,0 -10,3 -17,7 -8,4 -15,15 -21,33 -6,17 -11,43 -14,79 -2,35 -2,83 3,144 0,4 0,10 1,16 0,5 1,11 2,18 1,7 2,15 3,24 1,-17 2,-35 4,-53 3,-19 6,-37 10,-53 5,-17 10,-32 18,-45 7,-13 16,-23 27,-30 7,-3 13,-6 18,-6 8,-2 16,-1 23,1 6,1 13,5 20,10 7,5 13,14 19,26 5,13 9,27 11,43 2,17 4,33 4,49 1,16 1,31 1,46 0,14 1,26 2,34 1,14 3,25 5,31 2,7 5,12 7,14 2,3 5,4 8,3 10,-4 19,-15 26,-33 7,-17 13,-39 16,-64 4,-25 5,-52 4,-81 0,-29 -3,-57 -8,-84 0,-2 1,-4 2,-7 0,-3 3,-6 7,-8 1,0 2,0 4,0 3,1 5,4 6,8 10,61 13,111 11,149 -2,38 -8,68 -16,91 -8,22 -17,38 -28,47 -10,10 -19,16 -25,19 -14,7 -26,10 -36,8 -11,-2 -19,-7 -26,-16 -7,-9 -12,-21 -16,-35 -4,-15 -8,-31 -10,-48 -3,-17 -4,-35 -6,-53 -1,-18 -2,-36 -3,-54l0 -1c-1,-18 -2,-31 -4,-40 -2,-9 -5,-15 -7,-18 -4,-4 -7,-6 -10,-4 -5,0 -9,6 -13,17 -4,10 -7,24 -11,41 -3,18 -5,37 -7,59 -2,22 -3,44 -3,66 0,22 1,44 3,65 2,21 5,40 9,57 1,5 3,10 5,14 1,5 3,9 6,13 3,4 6,7 9,8z"/>
  <path id="2" class="fil5" d="M1207 7524c-5,-30 -4,-59 1,-86 3,-11 6,-22 11,-34 5,-12 11,-23 19,-33 8,-11 18,-20 30,-29 12,-9 26,-17 43,-23 16,-5 30,-7 41,-4 12,2 22,7 30,14 8,7 15,16 21,26 5,10 10,21 13,31 18,-16 32,-32 40,-48 9,-16 14,-29 17,-37 0,-1 1,-2 3,-5 1,-2 3,-5 6,-6 4,-2 7,-3 8,-1 1,2 1,4 1,7 -5,18 -13,38 -24,60 -11,22 -25,41 -42,59 0,3 1,6 1,8 1,2 1,3 1,5 1,1 1,3 1,4 7,43 7,79 1,107 -6,28 -15,50 -25,67 -12,19 -27,34 -45,44 -19,10 -37,14 -54,12 -16,-2 -31,-8 -44,-20 -13,-11 -24,-27 -34,-47 -9,-21 -16,-44 -20,-71zm172 -112c-10,-30 -21,-50 -33,-61 -13,-10 -25,-13 -35,-7 -11,5 -18,15 -21,27 -4,13 -2,27 5,40 3,9 9,14 16,16 7,2 14,3 21,2 8,-1 16,-4 26,-8 7,-2 14,-5 21,-9zm15 75c-1,-7 -2,-14 -3,-20 -1,-7 -2,-13 -4,-20 -12,9 -24,15 -37,19 -11,4 -22,7 -31,7 -9,0 -16,-1 -23,-3 -7,-2 -13,-5 -18,-8 -5,-4 -9,-8 -12,-12 1,9 2,21 3,35 1,13 3,28 5,42 2,14 6,28 10,43 4,13 8,26 14,36 5,10 12,18 19,23 8,5 17,6 27,3 5,-1 11,-5 17,-11 7,-6 13,-15 19,-26 6,-11 10,-26 13,-43 3,-18 3,-39 1,-65z"/>
  <path id="3" class="fil5" d="M1740 7416c-5,9 -12,15 -19,19 -7,4 -13,6 -19,8 -16,4 -30,4 -40,-1 -11,-5 -19,-11 -26,-19 -4,22 -10,41 -19,58 -9,17 -22,29 -37,36 -15,7 -29,9 -42,8 -11,-1 -22,-7 -32,-16 -11,-10 -18,-27 -22,-52 -5,-26 -8,-54 -9,-83 -2,-30 -4,-57 -7,-81 0,-9 -1,-17 -3,-23 -2,-6 -3,-11 -5,-16 0,-1 -1,-3 -2,-6 0,-3 0,-5 1,-8 0,-3 1,-5 4,-7 2,-2 5,-4 10,-4 15,-1 27,2 36,9 9,7 16,17 22,29 5,12 9,26 11,41 3,16 4,32 4,47 1,16 1,31 1,45 0,15 1,27 2,36 0,10 1,20 3,28 1,7 4,13 7,19 4,6 9,8 15,8 10,-3 17,-10 22,-22 5,-11 8,-25 11,-41 2,-16 3,-34 3,-52 0,-19 0,-38 -1,-56 -2,-19 -4,-37 -5,-56 -1,-19 -2,-36 -4,-53 0,-8 -1,-16 -3,-22 -2,-6 -4,-11 -5,-16 -1,-1 -2,-3 -2,-6 0,-3 0,-5 0,-8 1,-2 2,-5 4,-7 3,-2 6,-3 11,-3 15,-1 27,2 36,9 9,7 16,17 22,29 5,13 9,27 11,43 2,16 4,31 5,47 1,16 1,31 1,46 -1,14 -1,26 0,35 1,10 2,19 4,26 1,7 4,13 6,19 4,5 8,9 14,9 2,0 5,-1 8,-2 3,-2 6,-5 9,-9 4,-9 8,-21 12,-34 3,-13 5,-26 7,-40 2,-14 3,-28 4,-43 1,-15 1,-29 2,-43 0,-33 -1,-67 -3,-102 -2,-24 -6,-44 -12,-61 -5,-16 -12,-24 -21,-24 -10,1 -17,5 -23,13 -6,8 -11,16 -14,25 0,2 -1,3 -2,5 -1,4 -4,5 -7,3 -3,0 -5,-4 -6,-10 0,-3 -1,-6 -2,-10 -1,-15 2,-31 9,-48 6,-16 20,-27 40,-33 11,-3 20,-3 28,-1 7,3 13,7 18,11 6,5 10,12 14,20 10,22 17,47 19,76 3,28 3,57 1,86 -1,30 -4,59 -8,88 -3,24 -8,49 -14,75 -6,25 -14,46 -23,62z"/>
  <polygon class="fil6 str10" points="484,6249 484,7345 1441,6795 "/>
  <polygon class="fil6 str11" points="21,6981 96,6937 171,6894 127,6819 83,6744 8,6788 -66,6832 -23,6906 "/>
  <rect class="fil6 str11" transform="matrix(0.838726 -0.544554 0.544554 0.838726 52.9885 7969.24)" width="76.2" height="237.06"/>
  <rect class="fil6 str11" transform="matrix(0.838726 -0.544554 0.544554 0.838726 184.219 7884.58)" width="76.2" height="237.06"/>
  <circle class="fil2 str12" cx="-96" cy="8090" r="51"/>
  <polygon class="fil7 str13" points="-555,8139 -585,8105 1739,6729 1756,6742 "/>
  <circle class="fil2 str12" cx="382" cy="7794" r="51"/>
  <circle class="fil2 str12" cx="586" cy="8133" r="51"/>
  <circle class="fil2 str12" cx="-172" cy="7091" r="51"/>
  <polyline class="fil2 str8" points="5933,-673 5899,-712 5933,-758 5899,-805 5933,-847 5899,-894 5933,-940 5899,-982 5933,-1029 "/>
  <polyline class="fil2 str4" points="5848,-910 5814,-949 5848,-982 5814,-1016 5848,-1054 5814,-1093 5848,-1126 5814,-1160 5848,-1198 5814,-1236 5848,-1270 5814,-1304 5848,-1342 5814,-1380 5848,-1414 5814,-1448 5848,-1486 "/>
  <line class="fil2 str4" x1="5609" y1="-1490" x2="5609" y2= "-1473" />
  <line class="fil2 str4" x1="5601" y1="-1481" x2="5618" y2= "-1481" />
  <circle class="fil2 str6" cx="5823" cy="-1880" r="34"/>
  <path class="fil2 str4" d="M5531 -2024c0,9 0,34 0,34"/>
  <line class="fil2 str4" x1="5548" y1="-2007" x2="5514" y2= "-2007" />
  <line class="fil2 str4" x1="5455" y1="-3713" x2="5455" y2= "-3679" />
  <line class="fil2 str4" x1="5471" y1="-3696" x2="5438" y2= "-3696" />
  <path class="fil2 str2" d="M4731 -3230c0,4 0,50 0,50"/>
  <line class="fil2 str2" x1="4756" y1="-3205" x2="4705" y2= "-3205" />
  <line class="fil2 str2" x1="5772" y1="-3129" x2="5772" y2= "-3078" />
  <line class="fil2 str2" x1="5797" y1="-3103" x2="5747" y2= "-3103" />
  <line class="fil2 str6" x1="5624" y1="-3362" x2="5624" y2= "-3260" />
  <line class="fil2 str6" x1="5675" y1="-3311" x2="5573" y2= "-3311" />
  <circle class="fil2 str2" cx="5266" cy="-2428" r="25"/>
  <circle class="fil2 str2" cx="5861" cy="-3552" r="25"/>
  <path class="fil2 str2" d="M5603 -2384c-174,174 -297,297 -297,297"/>
  <line class="fil2 str2" x1="5586" y1="-2240" x2="5882" y2= "-2536" />
  <line class="fil2 str2" x1="5213" y1="-3036" x2="5755" y2= "-3798" />
  <polyline class="fil2 str4" points="4832,-3552 4828,-3607 4769,-3611 4765,-3671 4701,-3675 4701,-3734 4638,-3738 4638,-3798 4587,-3806 "/>
  <polygon class="fil1 str1" points="5668,-2773 5586,-2840 5505,-2906 5441,-2827 5377,-2748 5458,-2681 5540,-2615 5604,-2694 "/>
  <circle class="fil1 str1" cx="5378" cy="-1791" r="135"/>
  <polygon class="fil3 str7" points="5105,-3738 5128,-3668 5152,-3598 5074,-3618 4997,-3638 5051,-3688 "/>
  <polygon class="fil3 str7" points="5324,-3541 5348,-3472 5371,-3402 5294,-3422 5216,-3442 5270,-3492 "/>
  <polygon class="fil3 str7" points="5214,-3640 5238,-3570 5261,-3500 5184,-3520 5106,-3540 5160,-3590 "/>
 </g>
</svg>
