<?xml version="1.0" encoding="UTF-8"?>
<!DOCTYPE svg PUBLIC "-//W3C//DTD SVG 1.1//EN" "http://www.w3.org/Graphics/SVG/1.1/DTD/svg11.dtd">
<!-- Creator: CorelDRAW X7 -->
<svg xmlns="http://www.w3.org/2000/svg" xml:space="preserve" width="12.6998mm" height="8.4666mm" version="1.1" style="shape-rendering:geometricPrecision; text-rendering:geometricPrecision; image-rendering:optimizeQuality; fill-rule:evenodd; clip-rule:evenodd"
viewBox="0 0 1270 847"
 xmlns:xlink="http://www.w3.org/1999/xlink">
 <defs>
  <style type="text/css">
   <![CDATA[
    .str8 {stroke:#2B2A29;stroke-width:8.46}
    .str4 {stroke:black;stroke-width:8.46}
    .str13 {stroke:#180A21;stroke-width:8.46}
    .str10 {stroke:#CC0033;stroke-width:8.46}
    .str11 {stroke:#CC0033;stroke-width:8.46}
    .str7 {stroke:#EAA639;stroke-width:8.46}
    .str9 {stroke:#F7931E;stroke-width:8.46}
    .str0 {stroke:#FCBF51;stroke-width:8.46}
    .str1 {stroke:#FFCA5F;stroke-width:8.46}
    .str12 {stroke:#180A21;stroke-width:42.33}
    .str2 {stroke:black;stroke-width:16.93}
    .str3 {stroke:black;stroke-width:20}
    .str6 {stroke:black;stroke-width:25.39}
    .str5 {stroke:black;stroke-width:7.62}
    .fil2 {fill:none}
    .fil7 {fill:#180A21}
    .fil6 {fill:#CC0033}
    .fil3 {fill:#EAA639}
    .fil4 {fill:#F7931E}
    .fil0 {fill:#FCBF51}
    .fil1 {fill:#FFCA5F}
    .fil5 {fill:black;fill-rule:nonzero}
   ]]>
  </style>
 </defs>
 <g id="Слой_x0020_1">
  <metadata id="CorelCorpID_0Corel-Layer"/>
  <path class="fil0 str0" d="M603 6681l844 -489c86,148 131,317 131,489 0,540 -437,977 -975,977 -538,0 -974,-437 -974,-977 0,-541 436,-978 974,-978l0 978z"/>
  <path class="fil1 str1" d="M603 5947l-21 16 -18 12c0,0 0,0 -17,0 -17,0 -46,-30 -50,-34 -5,-4 -13,-25 -26,-25 -12,0 -29,12 -42,25 -13,13 -17,17 -34,25 -17,9 -4,9 -21,9 -17,0 -55,-51 -76,-34 -22,17 -30,51 -26,63 4,13 -4,51 0,77 4,25 13,21 13,33 0,13 -17,64 -25,72 -9,9 -30,30 -47,39 -17,8 -17,8 -30,8 -12,0 -55,-25 -67,-47 -13,-21 -38,-60 -51,-67 -13,-8 -25,-7 -30,-5l-8 5c-1,0 -43,18 -47,59 -3,41 -4,55 -4,55l0 59c8,8 46,46 46,51 0,4 0,17 -4,21 -4,4 -30,24 -42,34 -12,10 -22,30 -20,37 1,8 -1,18 16,39 17,21 63,72 76,85 13,13 30,38 34,51 10,31 0,88 -17,114 -17,25 -47,51 -68,59 -21,9 -55,3 -76,0 -21,-2 -65,-12 -76,-12 -12,0 -34,8 -34,25 0,17 25,42 46,55 22,13 51,42 55,68 5,25 -1,35 5,42 5,7 40,-3 63,9 23,11 30,17 34,29 4,13 -30,115 -38,123 -9,8 4,30 13,38 8,9 21,21 55,26 34,4 76,4 93,12 17,9 34,34 29,56 -4,22 -11,53 -12,75 -2,23 12,64 59,64 47,0 55,-30 89,-47 34,-17 67,-14 85,0 18,15 30,28 25,60 -5,31 -25,42 -38,55 -13,12 -13,17 -9,21 5,4 17,7 31,6 13,-1 28,-11 56,-19 28,-8 45,-8 62,-25 16,-17 42,-30 59,-30 17,0 46,7 59,28 13,21 21,44 30,53 8,8 21,-5 25,-9 4,-4 14,-20 17,-46 3,-27 -5,-97 -9,-117 -3,-21 -12,-61 13,-104 26,-42 71,-47 93,-46 23,1 85,21 106,42 21,21 43,68 47,98 4,29 4,63 21,76 17,12 38,12 55,4 17,-9 30,-17 34,-42 4,-26 0,-65 4,-85 4,-20 17,-42 34,-47 17,-4 38,26 63,26 26,0 30,-26 34,-47 5,-21 -17,-55 -29,-68 -13,-12 -60,-59 -64,-76 -4,-17 1,-27 4,-29 3,-3 17,-17 30,-17 13,0 51,0 64,0 12,0 55,0 72,-9 16,-8 46,-30 59,-46 13,-17 41,-72 42,-106 2,-34 -25,-55 -38,-72 -13,-17 -48,-48 -52,-83 -4,-35 1,-65 27,-86 25,-22 57,-27 67,-43 11,-16 -6,-44 -25,-51 -19,-6 -49,-28 -57,-39 -9,-12 -9,-46 2,-58 22,-24 48,-42 82,-42 13,0 28,0 28,-9 0,-8 -13,-29 -17,-34 -4,-4 -13,-25 -17,-42 -4,-17 -4,-30 -4,-34 0,-4 -6,-12 -4,-12l-766 474 0 -769z"/>
  <line class="fil2 str2" x1="-3672" y1="-4695" x2="-3359" y2= "-4393" />
  <line class="fil2 str3" x1="-3515" y1="-4417" x2="-3219" y2= "-4120" />
  <path class="fil2 str2" d="M-3562 -4108c14,0 25,12 25,26 0,14 -11,25 -25,25 -14,0 -25,-11 -25,-25 0,-14 11,-26 25,-26z"/>
  <circle class="fil2 str3" cx="-3016" cy="-4637" r="35"/>
  <path class="fil2 str4" d="M-3139 -4362c0,21 0,34 0,34"/>
  <line class="fil2 str4" x1="-3122" y1="-4345" x2="-3156" y2= "-4345" />
  <polyline class="fil2 str5" points="-2610,-4432 -2610,-4425 -2610,-4419 -2610,-4425 -2616,-4425 -2603,-4425 "/>
  <polyline class="fil2 str4" points="-2618,-4662 -2584,-4624 -2546,-4662 -2508,-4624 -2474,-4662 -2440,-4624 -2402,-4662 -2364,-4624 -2330,-4662 -2296,-4624 -2258,-4662 -2220,-4624 -2186,-4662 -2152,-4624 -2114,-4662 -2076,-4624 -2042,-4662 "/>
  <polyline class="fil2 str4" points="-2161,-4747 -2114,-4713 -2072,-4747 -2025,-4713 -1979,-4747 -1936,-4713 -1890,-4747 -1843,-4713 -1797,-4747 "/>
  <ellipse class="fil1 str1" cx="-2923" cy="-4192" rx="138" ry="135"/>
  <line class="fil2 str4" x1="-3109" y1="9155" x2="-3109" y2= "9121" />
  <line class="fil2 str4" x1="-3126" y1="9138" x2="-3092" y2= "9138" />
  <path class="fil2 str2" d="M-2385 8672c0,-4 0,-51 0,-51"/>
  <line class="fil2 str2" x1="-2411" y1="8647" x2="-2360" y2= "8647" />
  <line class="fil2 str2" x1="-3427" y1="8570" x2="-3427" y2= "8520" />
  <line class="fil2 str2" x1="-3452" y1="8545" x2="-3401" y2= "8545" />
  <line class="fil2 str6" x1="-3279" y1="8803" x2="-3279" y2= "8702" />
  <line class="fil2 str6" x1="-3329" y1="8753" x2="-3228" y2= "8753" />
  <circle class="fil2 str2" cx="-3516" cy="8994" r="25"/>
  <line class="fil2 str2" x1="-2868" y1="8477" x2="-3410" y2= "9239" />
  <polyline class="fil2 str4" points="-2487,8994 -2483,9049 -2423,9053 -2419,9112 -2356,9117 -2356,9176 -2292,9180 -2292,9239 -2241,9248 "/>
  <polygon class="fil1 str1" points="-3322,8215 -3241,8281 -3160,8348 -3096,8269 -3032,8189 -3113,8123 -3194,8057 -3258,8136 "/>
  <polygon class="fil3 str7" points="-2760,9179 -2783,9110 -2806,9040 -2729,9060 -2651,9080 -2706,9130 "/>
  <polygon class="fil3 str7" points="-2979,8983 -3002,8913 -3026,8844 -2948,8864 -2871,8884 -2925,8934 "/>
  <polygon class="fil3 str7" points="-2869,9081 -2893,9012 -2916,8942 -2839,8962 -2761,8982 -2815,9032 "/>
  <polyline class="fil2 str8" points="5081,-1775 5047,-1813 5081,-1860 5047,-1907 5081,-1949 5047,-1995 5081,-2042 5047,-2084 5081,-2131 "/>
  <polyline class="fil2 str4" points="4997,-2012 4963,-2051 4997,-2084 4963,-2118 4997,-2156 4963,-2194 4997,-2228 4963,-2262 4997,-2300 4963,-2338 4997,-2372 4963,-2406 4997,-2444 4963,-2482 4997,-2516 4963,-2550 4997,-2588 "/>
  <line class="fil2 str4" x1="4758" y1="-2592" x2="4758" y2= "-2575" />
  <line class="fil2 str4" x1="4749" y1="-2583" x2="4766" y2= "-2583" />
  <circle class="fil2 str6" cx="4971" cy="-2982" r="34"/>
  <path class="fil2 str4" d="M4679 -3126c0,9 0,34 0,34"/>
  <line class="fil2 str4" x1="4696" y1="-3109" x2="4662" y2= "-3109" />
  <line class="fil2 str4" x1="4603" y1="-4815" x2="4603" y2= "-4781" />
  <line class="fil2 str4" x1="4620" y1="-4798" x2="4586" y2= "-4798" />
  <path class="fil2 str2" d="M3879 -4332c0,4 0,51 0,51"/>
  <line class="fil2 str2" x1="3904" y1="-4307" x2="3854" y2= "-4307" />
  <line class="fil2 str2" x1="4920" y1="-4231" x2="4920" y2= "-4180" />
  <line class="fil2 str2" x1="4946" y1="-4205" x2="4895" y2= "-4205" />
  <line class="fil2 str6" x1="4772" y1="-4464" x2="4772" y2= "-4362" />
  <line class="fil2 str6" x1="4823" y1="-4413" x2="4721" y2= "-4413" />
  <circle class="fil2 str2" cx="4415" cy="-3530" r="25"/>
  <circle class="fil2 str2" cx="5009" cy="-4654" r="25"/>
  <path class="fil2 str2" d="M4751 -3486c-174,174 -296,297 -296,297"/>
  <line class="fil2 str2" x1="4734" y1="-3342" x2="5030" y2= "-3638" />
  <line class="fil2 str2" x1="4362" y1="-4138" x2="4903" y2= "-4900" />
  <polyline class="fil2 str4" points="3981,-4654 3976,-4709 3917,-4713 3913,-4773 3849,-4777 3849,-4836 3786,-4840 3786,-4900 3735,-4908 "/>
  <polygon class="fil1 str1" points="4816,-3875 4735,-3942 4653,-4008 4589,-3929 4525,-3850 4607,-3783 4688,-3717 4752,-3796 "/>
  <circle class="fil1 str1" cx="4527" cy="-2893" r="135"/>
  <polygon class="fil3 str7" points="4253,-4840 4277,-4770 4300,-4700 4223,-4720 4145,-4740 4199,-4790 "/>
  <polygon class="fil3 str7" points="4473,-4643 4496,-4574 4520,-4504 4442,-4524 4364,-4544 4419,-4594 "/>
  <polygon class="fil3 str7" points="4363,-4742 4386,-4672 4410,-4602 4332,-4622 4255,-4642 4309,-4692 "/>
  <line class="fil2 str2" x1="5065" y1="9116" x2="4751" y2= "8814" />
  <line class="fil2 str3" x1="4908" y1="8838" x2="4612" y2= "8542" />
  <path class="fil2 str2" d="M4955 8529c-14,0 -26,-11 -26,-25 0,-14 12,-26 26,-26 14,0 25,12 25,26 0,14 -11,25 -25,25z"/>
  <circle class="fil2 str3" cx="4408" cy="9058" r="35"/>
  <path class="fil2 str4" d="M4531 8783c0,-21 0,-34 0,-34"/>
  <line class="fil2 str4" x1="4514" y1="8766" x2="4548" y2= "8766" />
  <polyline class="fil2 str5" points="4002,8853 4002,8847 4002,8840 4002,8847 4008,8847 3996,8847 "/>
  <polyline class="fil2 str4" points="4011,9084 3977,9046 3939,9084 3901,9046 3867,9084 3833,9046 3795,9084 3757,9046 3723,9084 3689,9046 3651,9084 3613,9046 3579,9084 3545,9046 3507,9084 3469,9046 3435,9084 "/>
  <polyline class="fil2 str4" points="3553,9168 3507,9135 3464,9168 3418,9135 3371,9168 3329,9135 3282,9168 3236,9135 3189,9168 "/>
  <ellipse class="fil1 str1" cx="4315" cy="8614" rx="138" ry="135"/>
  <line class="fil2 str2" x1="574" y1="316" x2="91" y2= "798" />
  <line class="fil2 str2" x1="1018" y1="67" x2="536" y2= "548" />
  <ellipse class="fil2 str2" cx="1073" cy="608" rx="30" ry="31"/>
  <path class="fil4 str9" d="M603 5932c-2,7 -6,14 -12,21 -6,7 -17,12 -22,15 -5,3 -18,5 -28,0 -10,-5 -27,-19 -37,-27 -10,-8 -19,-31 -32,-31 -13,0 -30,13 -42,26 -13,13 -20,22 -32,28 -11,6 -29,5 -35,1 -6,-3 -43,-46 -65,-29 -21,17 -29,51 -25,63 4,13 -4,51 0,77 4,25 13,21 13,33 0,13 -7,46 -20,64 -13,17 -34,36 -45,44 -11,9 -24,11 -37,11 -13,0 -55,-25 -68,-47 -12,-21 -38,-60 -50,-67 -13,-8 -24,-7 -30,-5l-15 7c-4,2 -37,16 -40,57 -4,41 -4,55 -4,55l0 59c0,0 8,9 17,17 8,9 29,30 29,34 0,4 0,17 -4,21 -4,4 -31,24 -42,34 -12,10 -22,30 -21,37 2,8 0,18 16,39 17,21 64,72 77,85 12,13 29,38 34,51 4,12 4,29 4,38 0,8 -4,51 -21,76 -17,25 -47,51 -68,59 -21,9 -55,3 -76,0 -21,-2 -65,-13 -77,-12 -11,0 -33,8 -33,25 0,17 25,42 46,55 21,13 51,42 55,68 4,25 -1,35 4,42 6,7 35,3 55,8 20,4 39,17 43,30 4,13 -35,110 -38,123 -4,13 4,30 12,38 9,8 22,21 55,25 34,5 77,5 94,13 17,9 33,34 29,56 -5,22 -11,53 -12,75 -2,23 12,64 59,64 46,0 55,-30 89,-47 34,-17 66,-14 84,0 18,15 31,28 26,60 -5,31 -26,42 -38,55 -13,12 -13,17 -9,21 4,4 17,6 31,6 13,-1 26,-18 54,-26 28,-8 46,4 63,-13 16,-17 44,-42 61,-43 18,0 45,20 58,36 13,16 21,44 30,52 8,9 21,-4 25,-8 4,-4 14,-20 17,-47 3,-26 -6,-96 -9,-116 -3,-21 -12,-61 13,-104 25,-42 71,-47 93,-46 23,1 85,21 106,42 21,21 42,68 47,97 4,30 4,64 21,77 17,12 38,12 55,4 17,-9 29,-17 34,-42 4,-26 0,-65 4,-85 4,-21 17,-43 34,-47 17,-4 38,26 63,26 26,0 33,-28 34,-47 1,-18 -17,-55 -29,-68 -13,-12 -60,-59 -64,-76 -4,-17 1,-27 4,-29 3,-3 17,-17 30,-17 13,0 51,0 63,0 13,0 55,0 72,-9 17,-8 46,-30 60,-46 13,-17 41,-72 42,-106 1,-34 -25,-55 -38,-72 -13,-17 -48,-49 -52,-83 -4,-35 1,-65 26,-87 26,-21 58,-26 68,-42 10,-16 -6,-44 -25,-51 -19,-6 -49,-28 -57,-40 -9,-11 -10,-45 2,-57 11,-12 22,-23 38,-31 17,-9 31,-11 44,-11 13,0 28,0 28,-9 0,-8 -13,-30 -17,-34 -4,-4 -13,-25 -17,-42 -4,-17 -4,-30 -4,-34 0,-4 6,-8 8,-8l9 0 12 -6 0 39 9 34 19 28c6,9 10,19 10,27 0,9 -11,18 -16,22 -6,3 -39,11 -56,16 -16,6 -29,13 -33,22 -5,8 -5,20 -1,29 5,9 34,13 47,17 13,4 27,20 33,29 5,9 18,35 18,52 0,17 -8,33 -17,42 -8,8 -43,26 -51,30 -9,4 -21,12 -21,25 0,13 21,21 34,25 13,5 30,17 34,30 4,13 4,25 -4,34 -9,8 -18,14 -31,17 -12,3 -20,8 -8,13 13,4 29,25 32,34 4,9 15,54 7,80 -9,25 -34,59 -47,76 -13,17 -68,68 -93,72 -26,4 -73,-9 -84,-8 -12,0 -34,1 -39,4 -5,2 -12,9 -12,18 0,8 4,16 16,28 13,13 30,30 43,43 12,12 28,36 34,50 5,14 9,24 8,43 -1,19 -16,44 -30,55 -13,10 -41,14 -52,13 -11,-1 -28,-13 -37,-9 -8,4 -8,24 -8,32 0,9 0,49 -4,65 -4,17 -21,51 -59,68 -39,17 -94,0 -111,-17 -16,-17 -27,-58 -25,-84 2,-26 0,-39 -18,-62 -19,-22 -41,-30 -58,-36 -17,-6 -40,-3 -58,1 -17,4 -27,29 -26,44 1,16 21,71 20,86 0,15 0,47 -4,72 -4,26 -17,55 -30,77 -12,21 -42,46 -59,46 -17,0 -34,0 -55,-25 -21,-26 -19,-30 -25,-43 -7,-12 -9,-25 -17,-25 -9,0 -28,25 -61,43 -33,18 -43,22 -90,35 -46,13 -67,11 -86,2 -19,-8 -31,-33 -34,-46 -3,-13 -9,-34 4,-55 13,-21 21,-21 34,-34 13,-13 21,-21 8,-21 -12,0 -26,9 -46,25 -20,16 -44,39 -81,38 -36,-1 -55,-4 -71,-12 -17,-9 -39,-22 -51,-38 -13,-17 -17,-39 -17,-68 0,-30 5,-52 10,-59 6,-6 19,-30 19,-39 0,-8 -18,-7 -32,-3 -14,3 -27,8 -56,8 -30,0 -81,-26 -89,-55 -9,-30 -30,-83 -17,-100 13,-16 28,-26 38,-36 10,-9 21,-17 17,-25 -5,-9 -13,-9 -19,-10 -7,-1 -28,-6 -39,-6 -11,0 -27,-5 -35,-14 -9,-8 -14,-17 -13,-29 1,-13 4,-34 4,-51 0,-17 -13,-30 -21,-34 -9,-4 -30,-9 -47,-17 -17,-9 -33,-38 -33,-64 0,-25 8,-46 25,-55 17,-8 51,-25 76,-12 26,12 40,18 61,21 21,3 53,4 66,-4 13,-9 27,-30 34,-43 7,-13 21,-42 21,-67 0,-26 -6,-35 -17,-47 -11,-12 -55,-64 -72,-76 -17,-13 -39,-51 -46,-68 -7,-17 -3,-42 4,-55 7,-13 13,-21 25,-30 13,-8 17,-8 21,-12 5,-5 -12,-13 -20,-16 -8,-3 -30,-22 -35,-39 -4,-17 -19,-57 -15,-91 5,-33 28,-72 41,-91 12,-19 44,-42 63,-49 18,-6 57,-12 77,-6 20,5 29,17 46,33 17,17 21,30 34,51 13,21 13,21 21,21 9,0 21,-4 30,-21 8,-17 25,-93 17,-127 -9,-34 0,-46 0,-59 0,-13 17,-51 38,-64 21,-12 59,-25 72,-16 12,8 17,12 25,29 9,17 0,26 13,21 13,-4 28,-13 34,-19 5,-5 20,-18 33,-24 12,-7 26,-7 34,-3 9,4 26,21 34,34 9,12 13,29 26,34 12,4 24,2 34,-5 10,-7 11,-15 16,-21 6,-6 13,-8 13,-8l0 17z"/>
  <path class="fil5" d="M-758 7122c-5,-31 -5,-56 1,-77 6,-21 14,-39 24,-53 11,-17 25,-31 41,-42l3 -2c1,0 3,-1 4,-3 1,-1 3,-2 5,-3 7,-4 16,-9 28,-13 11,-5 23,-7 37,-8 13,0 27,4 40,10 13,7 25,20 36,38 9,15 14,30 14,43 0,13 -3,25 -9,36 -5,11 -13,20 -23,28 -10,9 -19,15 -29,21 -5,4 -10,6 -13,8 -3,2 -8,4 -14,7 -6,3 -15,7 -28,13 -13,6 -31,14 -56,25l3 5c3,5 9,13 18,24 10,11 22,20 38,28 15,7 34,11 57,10 23,0 49,-10 79,-27 19,-11 33,-24 43,-37 11,-14 18,-27 22,-41 4,-14 6,-28 6,-41 -1,-12 -2,-24 -5,-34 -2,-11 -4,-19 -7,-25 -2,-6 -4,-10 -4,-10 -2,-5 -4,-9 -7,-13 -2,-4 -4,-8 -7,-12 -15,-26 -34,-55 -57,-88 -22,-33 -46,-70 -72,-110 -19,-32 -33,-61 -42,-86 -9,-25 -16,-46 -19,-63 -3,-17 -5,-30 -4,-39 0,-9 1,-14 1,-14 2,-13 6,-26 13,-39 6,-14 17,-24 32,-33 8,-5 16,-8 25,-11 11,-2 21,-2 32,0 9,1 19,5 29,12 11,6 21,17 30,32 11,18 17,34 20,48 2,14 2,26 -1,36 -2,10 -7,19 -14,25 -6,7 -13,12 -20,16 -4,3 -8,5 -12,7 -3,2 -6,2 -6,0 -1,0 -1,-2 0,-3 0,-1 0,-2 1,-2 5,-10 8,-21 9,-32 1,-10 1,-20 0,-30 -1,-10 -4,-21 -7,-31 -1,-4 -2,-8 -4,-12 -1,-4 -4,-8 -6,-12 -4,-7 -9,-13 -16,-17 -6,-3 -13,-3 -21,1 -8,5 -12,14 -12,27 -1,14 1,30 6,49 5,19 13,40 23,63 10,23 22,46 35,69 11,18 25,40 42,66 17,27 39,58 66,93 2,3 4,5 6,8 2,2 5,5 8,10 2,4 5,8 8,13 7,11 13,24 20,39 7,16 14,33 19,52 5,27 6,54 1,80 -5,23 -15,47 -30,72 -16,26 -41,49 -76,70 -29,17 -54,28 -78,33 -23,5 -45,7 -64,5 -19,-2 -37,-7 -52,-14 -16,-8 -29,-17 -40,-27 -12,-10 -21,-20 -29,-30 -8,-10 -13,-18 -17,-25l-6 -9c-1,-2 -2,-3 -2,-5 -28,14 -58,28 -87,43 -30,14 -58,30 -85,45 -22,13 -42,27 -60,40 -18,13 -33,26 -44,39 -12,14 -20,27 -23,39 -4,13 -2,25 5,37 1,2 3,4 4,6 1,3 3,4 6,6 -2,2 -2,3 1,4 2,1 6,3 11,4 4,2 8,3 12,5 4,1 7,3 8,4 1,2 0,4 -3,5 -6,4 -14,7 -23,9 -10,3 -20,3 -31,3 -11,-1 -22,-5 -32,-11 -11,-5 -20,-15 -27,-27 -10,-17 -15,-34 -14,-53 0,-18 6,-36 15,-54 10,-18 23,-35 42,-53 18,-17 40,-33 65,-48 33,-19 70,-36 112,-49 43,-14 87,-28 132,-43zm121 -42c9,-4 18,-7 25,-12 12,-7 21,-14 26,-22 5,-8 9,-15 11,-22 2,-7 3,-15 1,-23 -1,-3 -3,-6 -5,-10 -6,-10 -12,-16 -20,-20 -7,-4 -15,-5 -22,-5 -8,0 -15,1 -21,4 -7,2 -12,5 -16,7 -6,4 -11,7 -16,11 -4,4 -8,8 -11,11 -4,5 -7,8 -9,11 -7,13 -11,26 -14,37 -3,12 -4,22 -5,31 -1,10 -1,20 1,29 13,-4 26,-9 38,-13 13,-5 24,-9 36,-14l1 0z"/>
  <path id="1" class="fil5" d="M-231 7006c-11,9 -21,12 -31,11 -9,-1 -17,-4 -24,-9 -8,-5 -15,-12 -21,-21 -17,-26 -29,-55 -38,-87 -9,-32 -16,-63 -20,-92 -5,-34 -8,-68 -9,-102 -2,-21 -2,-46 -1,-74 1,-28 3,-56 8,-82 5,-27 13,-50 24,-71 10,-22 25,-36 43,-44 7,-2 14,-3 21,-3 6,1 13,2 20,6 7,3 14,9 21,19 2,2 2,4 2,4 0,0 -1,0 -2,1l0 0 -1 1c-5,0 -11,1 -18,6 -8,4 -15,14 -21,31 -7,17 -12,41 -16,74 -4,33 -4,78 -1,134 1,29 4,57 8,86 3,25 7,52 13,80 5,29 12,55 21,80 2,4 4,8 5,10 2,3 4,5 6,7 2,1 5,1 8,-2 11,-6 20,-19 27,-39 7,-19 12,-42 15,-69 4,-26 5,-55 4,-85 -1,-30 -4,-60 -9,-88 1,-2 1,-5 2,-8 1,-4 3,-6 7,-8 2,-1 3,-1 5,-1 4,1 6,4 6,9 10,61 14,111 12,150 -1,39 -5,71 -12,95 -7,25 -16,43 -26,55 -10,12 -19,21 -28,26z"/>
  <path id="2" class="fil5" d="M-39 6585c1,-1 3,-1 4,0 4,1 6,4 7,9 10,66 15,119 12,161 -2,41 -8,73 -16,97 -9,24 -19,42 -31,52 -11,10 -20,17 -27,21 -18,8 -32,11 -44,7 -11,-4 -21,-12 -28,-25 -8,-12 -13,-28 -18,-47 -4,-19 -7,-40 -10,-62 -2,-21 -3,-43 -5,-66 -1,-22 -2,-43 -3,-62 -1,-10 -3,-18 -5,-24 -2,-7 -4,-12 -5,-17 -1,-2 -2,-4 -2,-7 0,-3 0,-6 0,-9 1,-3 2,-5 5,-7 3,-3 6,-4 12,-4 16,-1 30,2 39,10 10,9 18,20 24,34 6,14 10,30 12,47 1,18 3,36 4,53 0,17 0,34 1,50 0,15 0,27 1,37 2,15 4,26 7,33 2,7 5,12 7,15 3,3 6,5 8,4 12,-5 22,-17 29,-36 8,-19 14,-42 17,-69 4,-27 5,-57 5,-88 -1,-32 -4,-62 -9,-91 1,-2 1,-5 2,-8 1,-4 3,-6 7,-8zm-120 -20c-12,9 -21,9 -30,0 -9,-8 -15,-17 -21,-26 -4,-7 -8,-15 -10,-24 -3,-9 -2,-17 4,-24 5,-7 12,-14 21,-20 9,-6 18,-10 27,-13 9,-2 17,-3 25,-1 7,2 11,7 12,16 1,9 1,19 -1,28 -1,10 -4,19 -7,28 -3,9 -7,17 -10,23 -4,7 -7,11 -10,13z"/>
  <path id="3" class="fil5" d="M80 6450c11,1 22,5 32,12 10,6 18,17 25,32 3,9 4,17 3,23 -1,7 -3,13 -7,19 -3,5 -6,10 -11,14 -4,4 -7,6 -10,8l0 0c-2,1 -3,1 -3,0 -1,0 -1,-1 -2,-2 0,-3 -1,-7 -3,-14 -1,-6 -3,-13 -4,-20 -3,-14 -7,-24 -12,-32 -4,-7 -7,-11 -10,-14 -4,-3 -8,-4 -11,-3 -3,1 -5,3 -6,5 -2,1 -4,4 -7,6 -3,3 -5,7 -7,11 -10,18 -17,42 -20,72 -4,29 -3,59 1,88 6,30 13,55 22,75 4,8 8,16 14,24 6,7 12,12 19,16 7,4 15,5 23,5 9,0 18,-4 29,-10 14,-9 25,-20 34,-34 8,-13 15,-27 20,-40 6,-15 10,-31 13,-47 3,-15 4,-31 5,-50 2,-18 2,-37 3,-55 1,-18 1,-35 1,-51 -1,-16 -1,-29 -2,-40 1,-2 2,-4 3,-8 2,-4 4,-6 9,-7 1,0 3,0 4,0 3,1 4,4 5,10 2,50 3,92 2,126 -1,33 -4,61 -7,83 -3,19 -8,37 -15,54 -7,15 -16,31 -28,48 -12,16 -28,31 -49,44 -15,9 -29,14 -42,16 -13,1 -24,2 -33,1 -11,-2 -20,-4 -29,-9 -18,-10 -33,-25 -46,-47 -13,-21 -22,-42 -27,-64 -4,-18 -7,-38 -7,-60 0,-21 3,-42 8,-63 6,-21 15,-40 26,-59 12,-18 27,-34 46,-47 5,-3 11,-7 17,-10 5,-2 10,-4 16,-5 6,-1 12,-2 18,-1z"/>
  <path id="4" class="fil5" d="M392 6646c-17,9 -31,15 -44,17 -13,2 -25,3 -34,2 -10,-2 -20,-5 -29,-9 -18,-10 -34,-26 -47,-47 -13,-21 -22,-43 -27,-64 -4,-19 -7,-39 -7,-60 0,-21 3,-42 9,-63 5,-21 14,-41 26,-59 11,-19 26,-34 46,-47 14,-11 28,-18 41,-20 12,-2 24,-1 36,5 12,6 22,20 30,43 3,11 5,23 6,36 1,11 1,22 -1,35 -1,12 -4,25 -10,37 -7,13 -14,25 -22,36 -8,11 -17,21 -25,30 -9,8 -17,16 -25,22 -7,6 -14,11 -19,14 6,16 12,29 19,39 7,10 14,18 22,23 5,4 12,6 20,7 6,0 13,-1 22,-3 10,-3 19,-9 30,-19 7,-7 14,-16 20,-27 6,-9 11,-20 16,-33 6,-14 10,-30 12,-47 3,-15 5,-32 6,-50 1,-19 2,-37 2,-55 1,-18 1,-35 1,-52 -1,-16 -1,-29 -1,-39 0,-2 1,-5 2,-8 1,-4 4,-6 9,-7 1,-1 3,0 4,0 3,1 4,4 5,10 3,50 3,91 2,125 -2,34 -4,62 -8,84 -2,19 -7,37 -15,54 -6,15 -15,30 -26,47 -12,16 -27,31 -46,43zm-109 -140c1,4 3,9 4,15 1,6 2,11 3,15 23,-24 39,-46 48,-67 9,-21 14,-40 17,-56 1,-17 1,-30 -2,-41 -3,-11 -5,-18 -6,-22l-2 -2c-3,-8 -7,-14 -10,-18 -3,-2 -5,-4 -7,-5l0 -1c-1,-1 -3,-1 -6,-1l-5 3c-4,2 -7,6 -10,10 -3,5 -4,8 -5,9 -10,18 -17,42 -20,72 -4,29 -4,59 1,89z"/>
  <path class="fil5" d="M1056 6956c-5,1 -11,3 -19,4 -8,1 -15,2 -22,3 -8,0 -17,1 -26,1 -17,1 -30,-3 -39,-11 -9,-8 -16,-17 -20,-28 -5,-12 -7,-26 -8,-41 0,-4 1,-10 2,-17 0,-8 3,-16 6,-24 3,-8 8,-17 15,-25 7,-10 16,-18 28,-26 18,-12 34,-20 47,-22 13,-2 24,-1 33,2 9,3 16,8 21,15 5,7 8,14 10,20 3,12 3,24 2,36 -2,10 -6,20 -12,31 -7,10 -18,19 -35,26 -3,1 -6,2 -7,1 -2,-1 -3,-2 -3,-3 -1,-1 -1,-3 -1,-5 1,-7 2,-15 3,-26 1,-11 1,-21 1,-31 0,-10 -2,-19 -5,-26 -2,-7 -7,-11 -14,-11 -7,0 -14,5 -19,15 -5,9 -9,20 -11,33 -2,13 -3,26 -2,39 1,13 3,23 7,29 3,6 8,11 13,13 4,3 10,4 15,5 6,0 12,0 18,-1 6,-1 12,-2 17,-4 47,-9 77,-3 90,18 3,7 5,16 7,27 1,12 0,26 -4,40 -4,16 -11,32 -22,49 -11,17 -27,34 -49,51 -18,12 -33,21 -46,25 -12,4 -23,6 -31,6 -9,-1 -16,-3 -20,-7 -5,-4 -8,-7 -10,-10 -2,-3 -3,-7 -1,-11 3,-3 7,-5 13,-6 4,0 12,-4 23,-12 11,-8 22,-19 33,-32 11,-14 21,-29 29,-47 8,-17 10,-35 8,-54 0,-2 -1,-4 -2,-6 -2,-4 -7,-5 -13,-3z"/>
  <path id="1" class="fil5" d="M1257 6993c1,0 1,1 1,3 0,1 -1,1 -2,2 -7,5 -14,7 -21,7 -6,1 -12,0 -17,-3 -6,-2 -12,-5 -18,-9 -7,-5 -13,-12 -19,-21 -5,-9 -11,-20 -15,-31 -5,-12 -9,-25 -13,-38 -4,-13 -7,-26 -11,-39 -7,-31 -12,-64 -17,-99 -5,-50 -6,-95 -4,-137 1,-18 3,-36 5,-54 3,-17 7,-34 12,-49 5,-15 12,-29 20,-40 8,-11 18,-19 30,-25 6,-2 12,-3 20,-2 5,0 12,2 19,5 7,3 13,9 20,17 1,2 1,4 1,5 -1,0 -1,0 -2,0 0,0 -1,0 -1,1 -5,0 -11,2 -18,6 -7,4 -14,15 -20,33 -7,17 -11,44 -14,79 -3,35 -2,83 3,144 -1,5 0,10 0,16 1,5 2,11 3,19 1,7 2,15 3,23 0,-17 2,-34 4,-53 2,-19 6,-37 10,-53 4,-17 10,-32 17,-45 8,-13 17,-23 28,-29 6,-4 12,-6 18,-7 7,-1 15,-1 23,1 6,2 13,5 20,10 7,6 13,14 18,26 6,13 9,27 12,44 2,16 3,32 4,48 0,16 1,32 1,46 0,14 0,26 2,35 1,14 3,24 5,31 2,6 4,11 6,13 3,4 5,5 8,4 11,-5 20,-16 27,-33 7,-18 13,-39 16,-64 4,-25 5,-53 4,-82 -1,-28 -3,-56 -8,-83 0,-2 1,-5 1,-8 1,-3 4,-5 8,-7 1,-1 2,-1 3,-1 4,1 6,4 6,9 10,61 14,110 12,149 -3,38 -8,68 -16,90 -8,22 -18,38 -28,48 -10,9 -19,15 -25,19 -15,7 -27,9 -37,7 -10,-2 -18,-7 -25,-16 -7,-9 -13,-21 -17,-35 -4,-15 -7,-30 -9,-47 -3,-18 -5,-35 -6,-54 -1,-18 -2,-36 -3,-54l-1 0c0,-19 -1,-32 -3,-41 -3,-8 -5,-14 -8,-18 -3,-4 -6,-5 -9,-4 -5,1 -9,6 -13,17 -4,10 -8,24 -11,42 -3,17 -6,36 -7,58 -2,22 -3,44 -3,66 0,23 1,44 3,66 1,21 4,40 9,56 1,5 3,10 5,15 1,4 3,8 6,12 2,4 5,7 8,9z"/>
  <path id="2" class="fil5" d="M1419 6677c-5,-30 -5,-58 1,-85 2,-12 6,-23 11,-35 4,-11 11,-22 18,-33 8,-10 18,-20 30,-29 13,-9 27,-16 44,-22 16,-6 29,-7 41,-5 11,2 21,7 30,15 8,7 15,16 20,26 6,10 11,20 14,30 18,-16 31,-32 40,-48 8,-16 14,-28 16,-36 1,-1 2,-3 3,-5 2,-3 4,-5 7,-7 4,-2 6,-2 7,-1 1,2 2,4 1,7 -4,19 -12,39 -23,60 -11,22 -26,42 -42,60 0,3 1,5 1,7 1,2 1,4 1,5 0,2 1,3 1,5 6,43 7,78 0,106 -6,28 -14,50 -24,67 -13,19 -28,34 -45,44 -19,10 -37,14 -54,12 -17,-1 -32,-8 -44,-19 -13,-12 -25,-28 -34,-48 -9,-20 -16,-44 -20,-71zm171 -112c-9,-30 -20,-50 -33,-60 -12,-11 -24,-13 -35,-8 -10,6 -17,15 -21,28 -3,13 -1,26 5,40 4,8 9,13 17,15 7,2 14,3 20,2 8,-1 17,-3 26,-7 8,-3 15,-6 21,-10zm16 76c-1,-7 -2,-14 -4,-21 0,-7 -2,-13 -3,-19 -12,8 -24,14 -37,19 -12,4 -22,6 -31,6 -9,1 -17,0 -24,-2 -7,-2 -12,-5 -17,-9 -5,-4 -9,-8 -12,-12 0,10 1,21 3,35 1,14 3,28 5,42 2,15 5,29 9,43 4,14 9,26 14,36 6,10 12,18 20,23 8,6 17,7 26,3 5,-1 11,-5 18,-11 7,-6 13,-14 19,-26 5,-11 10,-25 13,-43 3,-17 3,-39 1,-64z"/>
  <path id="3" class="fil5" d="M1951 6570c-5,8 -11,14 -18,18 -7,4 -14,6 -19,8 -17,4 -30,4 -41,-1 -10,-5 -19,-11 -25,-19 -4,22 -11,42 -20,59 -9,17 -21,29 -37,35 -15,7 -28,10 -41,8 -11,-1 -22,-6 -33,-16 -10,-9 -18,-27 -21,-52 -5,-25 -8,-53 -10,-83 -1,-30 -3,-57 -6,-81 0,-9 -1,-17 -3,-23 -2,-6 -4,-11 -5,-15 -1,-2 -1,-4 -2,-7 -1,-2 0,-5 0,-8 1,-2 2,-5 4,-7 2,-2 6,-3 11,-4 14,0 26,3 35,10 10,7 17,16 22,29 6,12 10,25 12,41 2,15 4,31 4,47 0,15 1,30 1,45 0,14 0,26 1,35 0,11 2,20 4,28 1,7 4,13 7,19 4,6 9,9 15,9 9,-4 16,-11 21,-22 5,-12 9,-26 11,-42 3,-16 4,-33 4,-52 0,-19 -1,-37 -2,-56 -2,-18 -3,-37 -4,-56 -2,-18 -3,-36 -4,-52 0,-9 -2,-16 -4,-22 -2,-7 -3,-12 -5,-16 -1,-2 -1,-4 -1,-7 -1,-2 -1,-5 0,-7 0,-3 2,-5 4,-7 2,-3 6,-4 11,-4 15,-1 27,2 36,9 9,7 16,17 21,30 6,12 10,26 12,42 2,16 4,32 4,48 1,15 2,31 1,45 0,14 0,26 1,35 1,10 2,19 4,27 1,6 3,12 6,18 3,6 8,9 13,9 3,0 6,-1 9,-2 3,-1 6,-4 8,-9 5,-9 9,-20 12,-33 3,-13 6,-27 8,-41 2,-14 3,-28 4,-43 0,-15 1,-29 1,-43 1,-32 0,-66 -3,-101 -2,-25 -5,-45 -11,-61 -5,-17 -12,-25 -21,-24 -10,0 -18,4 -24,13 -6,8 -10,16 -13,24 0,2 -1,4 -2,5 -2,4 -4,5 -7,3 -3,0 -5,-3 -6,-10 -1,-3 -1,-6 -2,-10 -1,-15 1,-31 8,-47 7,-16 20,-27 41,-33 11,-4 20,-4 28,-1 7,2 13,6 18,11 5,5 10,11 14,20 10,21 16,46 19,75 2,29 3,57 1,86 -2,30 -4,60 -8,88 -3,25 -8,50 -14,75 -7,26 -14,47 -24,63z"/>
  <polygon class="fil6 str10" points="696,5402 696,6499 1652,5948 "/>
  <polygon class="fil6 str11" points="233,6134 308,6091 382,6047 339,5972 295,5897 220,5941 145,5985 189,6060 "/>
  <rect class="fil6 str11" transform="matrix(0.838726 -0.544554 0.544554 0.838726 264.649 7122.58)" width="76.2" height="237.06"/>
  <rect class="fil6 str11" transform="matrix(0.838726 -0.544554 0.544554 0.838726 395.879 7037.92)" width="76.2" height="237.06"/>
  <circle class="fil2 str12" cx="116" cy="7244" r="51"/>
  <polygon class="fil7 str13" points="-344,7292 -373,7258 1951,5882 1968,5895 "/>
  <circle class="fil2 str12" cx="594" cy="6947" r="51"/>
  <circle class="fil2 str12" cx="797" cy="7286" r="51"/>
  <circle class="fil2 str12" cx="39" cy="6245" r="51"/>
 </g>
</svg>
