<?xml version="1.0" encoding="UTF-8"?>
<!DOCTYPE svg PUBLIC "-//W3C//DTD SVG 1.1//EN" "http://www.w3.org/Graphics/SVG/1.1/DTD/svg11.dtd">
<!-- Creator: CorelDRAW X7 -->
<svg xmlns="http://www.w3.org/2000/svg" xml:space="preserve" width="25.3998mm" height="25.3998mm" version="1.1" style="shape-rendering:geometricPrecision; text-rendering:geometricPrecision; image-rendering:optimizeQuality; fill-rule:evenodd; clip-rule:evenodd"
viewBox="0 0 2540 2540"
 xmlns:xlink="http://www.w3.org/1999/xlink">
 <defs>
  <style type="text/css">
   <![CDATA[
    .str14 {stroke:#2B2A29;stroke-width:8.46}
    .str6 {stroke:black;stroke-width:8.46}
    .str13 {stroke:#180A21;stroke-width:8.46}
    .str16 {stroke:#180A21;stroke-width:8.46}
    .str11 {stroke:#CC0033;stroke-width:8.46}
    .str9 {stroke:#EAA639;stroke-width:8.46}
    .str10 {stroke:#F7931E;stroke-width:8.46}
    .str2 {stroke:#FCBF51;stroke-width:8.46}
    .str3 {stroke:#FFCA5F;stroke-width:8.46}
    .str12 {stroke:#180A21;stroke-width:42.33}
    .str4 {stroke:black;stroke-width:16.93}
    .str18 {stroke:#180A21;stroke-width:16.93}
    .str19 {stroke:#CC0033;stroke-width:16.93}
    .str5 {stroke:black;stroke-width:20}
    .str8 {stroke:black;stroke-width:25.39}
    .str17 {stroke:#180A21;stroke-width:25.39}
    .str7 {stroke:black;stroke-width:7.62}
    .str15 {stroke:#180A21;stroke-width:7.62}
    .str0 {stroke:#FF9400;stroke-width:7.62}
    .str1 {stroke:#FFC046;stroke-width:7.62}
    .fil5 {fill:none}
    .fil10 {fill:#180A21}
    .fil9 {fill:#CC0033}
    .fil11 {fill:#CC0033}
    .fil6 {fill:#EAA639}
    .fil7 {fill:#F7931E}
    .fil3 {fill:#FCBF51}
    .fil0 {fill:#FF9400}
    .fil1 {fill:#FFC046}
    .fil4 {fill:#FFCA5F}
    .fil2 {fill:#FFCB56}
    .fil8 {fill:black;fill-rule:nonzero}
   ]]>
  </style>
   <clipPath id="id0">
    <rect x="5330" y="211" width="2387" height="2305"/>
   </clipPath>
 </defs>
 <g id="Слой_x0020_1">
  <metadata id="CorelCorpID_0Corel-Layer"/>
  <path class="fil0 str0" d="M385 1768c80,129 187,274 364,369 176,95 323,132 476,133 153,1 338,-43 463,-102 124,-60 289,-180 366,-262 78,-83 172,-265 199,-375 26,-110 32,-394 -23,-555 -55,-161 -100,-242 -189,-337 -90,-96 -265,-260 -462,-325 -198,-65 -405,-64 -543,-25 -137,39 -323,119 -443,240 -120,122 -221,289 -262,428 -41,139 -52,239 -51,360 1,120 1,152 23,235 22,84 82,216 82,216z"/>
  <path class="fil1 str1" d="M593 1896c28,31 118,154 312,238 194,84 352,106 464,94 113,-13 319,-51 462,-170 144,-119 229,-234 302,-401 74,-168 93,-219 97,-366 5,-148 -30,-327 -112,-477 -82,-150 -209,-308 -443,-412 -234,-104 -509,-79 -666,-35 -158,44 -302,144 -388,223 -86,80 -160,172 -217,310 -58,138 -87,248 -82,362 5,114 13,188 71,310 57,121 145,263 172,292 26,29 28,32 28,32z"/>
  <path class="fil0 str0" d="M623 940c0,0 -38,-27 -38,-63 0,-36 -1,-82 24,-133 25,-52 71,-91 107,-95 36,-4 65,6 90,35 24,28 36,54 50,72 14,17 18,8 30,-2 12,-10 20,-19 36,-53 16,-35 14,-136 12,-152 -2,-17 -7,-41 17,-58 24,-16 64,-20 71,-11 8,8 22,35 29,41 8,7 36,4 41,-9 4,-14 23,-26 38,-29 16,-4 33,-6 42,3 9,8 25,26 32,34 7,9 14,22 24,22 11,0 27,-9 33,-24 7,-16 25,-39 29,-41 10,-7 30,-19 43,-21 14,-2 45,-5 65,14 20,18 31,36 32,60 2,24 6,41 15,52 9,11 21,31 50,6 29,-26 36,-27 61,-53 24,-26 46,-30 67,-32 21,-2 50,6 63,15 14,9 21,16 33,29 12,13 19,41 18,60 -1,19 3,24 20,38 17,13 17,50 6,68 -12,18 -28,29 -38,39 -9,11 -33,23 -25,43 9,21 10,30 40,24 30,-7 35,-7 79,-25 44,-18 58,-16 83,-12 25,3 43,18 54,32 10,13 7,17 19,45 12,27 18,30 41,20 23,-10 31,-27 53,-9 22,17 29,45 29,45 0,0 30,6 26,33 -4,28 -3,41 -45,51 -42,10 -67,14 -66,36 1,22 16,22 34,24 17,3 30,4 43,26 13,21 20,41 14,60 -5,20 -11,44 -35,59 -23,16 -57,13 -51,32 5,20 16,36 34,37 17,1 37,4 34,28 -3,25 -20,41 -32,43 -12,3 16,21 18,24 2,2 6,7 13,29 6,22 0,90 -18,114 -17,24 -59,66 -77,78 -17,12 -75,26 -107,26 -32,0 -53,-5 -61,7 -8,12 -5,26 15,44 19,19 60,53 67,81 6,27 7,65 0,83 -8,17 -41,37 -63,41 -22,5 -36,-11 -43,-8 -8,2 -12,34 -11,60 1,27 -5,49 -26,72 -20,22 -76,47 -113,34 -38,-13 -64,-37 -70,-67 -6,-31 -6,-89 -18,-105 -13,-16 -55,-41 -80,-38 -24,3 -48,12 -53,39 -4,28 17,44 22,83 5,39 2,73 -12,113 -13,41 -38,67 -56,83 -18,17 -54,18 -69,7 -15,-12 -28,-39 -35,-53 -6,-14 -15,-32 -23,-32 -8,-1 -13,13 -36,29 -23,16 -58,24 -87,30 -28,7 -82,24 -110,4 -28,-20 -48,-47 -40,-74 8,-26 18,-37 36,-46 18,-9 31,-34 20,-31 -11,2 -28,10 -55,31 -28,20 -84,28 -118,17 -34,-11 -61,-39 -74,-65 -13,-25 -17,-55 -1,-82 15,-27 38,-52 32,-56 -7,-3 -86,11 -122,-2 -37,-13 -58,-37 -67,-50 -9,-12 -31,-61 -24,-75 6,-14 60,-30 59,-52 -2,-22 -2,-42 -18,-42 -17,0 -52,3 -70,-5 -17,-7 -22,-31 -22,-49 0,-19 11,-27 -2,-47 -13,-19 -39,-7 -60,-27 -21,-20 -49,-37 -50,-81 -1,-44 16,-80 33,-87 17,-6 35,-15 63,-14 27,1 37,10 53,20 15,10 33,16 53,7 20,-8 49,-16 55,-40 5,-25 21,-43 -9,-75 -30,-32 -46,-49 -73,-80 -26,-31 -38,-54 -38,-80 0,-27 -11,-43 13,-72 24,-29 28,-25 28,-25z"/>
  <g>
   <path class="fil2" d="M1352 2082c23,-38 30,-51 35,-88 5,-36 -7,-46 -12,-101 -5,-54 5,-79 18,-96 14,-16 50,-49 111,-38 61,12 43,7 74,29 32,21 37,36 48,81 12,44 -1,66 15,84 17,18 40,33 57,21 16,-11 40,-19 46,-97 6,-78 23,-60 38,-73 15,-13 28,-21 28,-21l5 25c2,12 28,31 43,14 15,-16 28,-44 21,-64 -6,-20 -23,-37 -49,-60 -27,-23 -43,-51 -38,-69 5,-18 0,-27 23,-37 23,-10 74,8 109,-5 34,-13 98,-56 112,-92 13,-37 25,-88 3,-102 -22,-15 -64,-44 -66,-56 -2,-13 1,-21 18,-29 16,-9 18,-8 18,-8 0,0 -28,-12 -37,-40 -9,-27 -4,-48 12,-66 16,-17 20,-14 39,-26 19,-12 28,-14 32,-25 4,-12 5,-28 -18,-31 -23,-3 -76,-24 -76,-65 0,-40 8,-52 28,-71 20,-19 39,-18 54,-18 16,0 24,-1 24,-1l-21 -24c0,0 -56,28 -82,19 -26,-9 -49,-28 -55,-47 -5,-18 0,-28 -6,-41 -7,-12 -19,-15 -60,5 -40,21 -75,35 -123,35 -48,0 -97,-43 -101,-94 -5,-51 18,-81 35,-98 18,-17 33,-23 45,-26 13,-4 -20,-17 -25,-32 -5,-15 10,-51 1,-74 -8,-23 -19,-27 -41,-28 -23,-1 -45,4 -70,30 -25,26 -55,46 -91,46 -37,0 -63,-33 -67,-75 -3,-43 -16,-68 -47,-70 -30,-2 -52,12 -77,62 -25,50 -64,31 -91,7 -27,-24 -25,-30 -38,-33 -13,-3 -45,18 -59,35 -13,18 -41,11 -41,11 0,0 -25,-7 -31,-19 -5,-12 -11,-39 -29,-24 -18,15 -25,33 -22,74 4,40 1,52 4,84 2,31 6,29 -10,68 -17,40 -6,15 -59,65 -53,50 -80,3 -96,-15 -17,-18 -37,-88 -68,-78 -31,10 -53,10 -68,43 -15,33 -13,63 5,91 18,28 35,12 47,58 11,47 13,55 -9,66 -21,12 -56,24 -56,43 0,20 46,44 77,84 31,40 70,69 64,133 -7,65 -7,83 -37,119 -30,36 -74,41 -119,35 -45,-7 -114,-30 -124,-13 -10,17 3,28 20,43 16,15 36,24 46,41 10,17 23,43 24,63 1,21 3,29 20,31 18,2 42,0 51,7 8,8 18,15 19,48 1,33 -1,39 -19,62 -18,23 -40,25 -39,34 2,10 8,24 35,46 26,21 45,25 69,25 24,1 43,-6 66,-7 22,-1 39,13 44,21 5,9 12,33 -6,60 -18,27 -31,46 -20,77 10,30 37,48 68,46 30,-2 51,-11 80,-37 28,-25 57,-25 81,-16 25,10 36,30 35,51 0,21 -1,42 -16,55 -14,12 -35,35 -32,39 2,5 0,15 33,5 33,-11 51,-9 81,-23 30,-14 28,-24 41,-33 12,-9 31,-32 67,-20 37,12 40,17 49,33 9,17 10,24 14,30 4,7 19,22 19,22z"/>
   <path id="1" class="fil2" d="M1352 2082c8,-14 14,-24 19,-34 -5,10 -11,20 -19,34 0,0 -15,-15 -19,-22 -1,-1 -2,-3 -3,-5 0,-2 -1,-4 -2,-6l0 -1 -2 -3 0 0c-1,-3 -3,-7 -6,-12l0 -1 -1 -2 -1 -1c-9,-15 -12,-20 -46,-31l-2 -1c-1,0 -3,-1 -4,-1l0 0c-10,-3 -18,-3 -25,-2 8,-1 18,-1 29,3 18,6 28,10 35,15 6,5 9,10 14,18 5,10 8,16 10,21 1,4 2,7 4,9 4,7 18,21 19,22zm25 -46c1,-4 3,-9 4,-14 -1,5 -3,10 -4,14zm5 -15c1,-4 2,-9 3,-14 -1,5 -2,10 -3,14zm3 -16c1,-4 1,-7 2,-11 3,-21 0,-33 -4,-50l-2 -8c2,8 4,14 5,20l0 0 0 2 0 1 1 4 0 2 0 1 0 1 0 1 1 2c0,2 0,3 0,5l0 0 0 2 0 3 0 1 0 4 0 0c-1,3 -1,6 -1,9 -1,4 -1,7 -2,11zm-4 -72c-2,-10 -4,-23 -6,-40 0,-6 -1,-12 -1,-18 0,6 1,12 1,18 2,17 4,30 6,40zm-6 -88c1,-5 1,-10 2,-14 2,-6 4,-12 6,-17 3,-7 7,-12 10,-17 4,-4 10,-10 18,-17l0 0c1,-1 2,-2 4,-3l0 0c13,-9 31,-18 55,-20 -10,1 -19,3 -27,6 -25,9 -42,24 -50,34 -3,5 -7,10 -10,17 -3,6 -5,13 -7,22l0 0c0,3 -1,6 -1,9zm95 -88c2,0 5,0 7,0 -2,0 -5,0 -7,0zm7 0c9,0 18,1 27,2l15 3c18,4 27,5 32,7 5,2 8,4 13,8 4,3 8,6 15,11 7,5 13,9 18,14 -5,-5 -11,-9 -19,-14 -27,-19 -16,-18 -55,-25l-1 0 -18 -4c-9,-1 -18,-2 -27,-2zm120 45l2 2c1,2 3,3 4,5 1,1 2,3 3,4l0 1c1,1 2,2 3,4l1 1 0 1 0 0 1 2 1 0c2,5 4,10 6,15l1 5 0 1c2,4 3,8 4,12l0 1 3 13c7,26 6,44 6,58 0,-3 0,-7 0,-10 0,-13 0,-28 -6,-48 -5,-23 -9,-38 -16,-50 -2,-3 -4,-7 -7,-10l-1 -2 0 0 -1 -1 0 0m31 121c1,10 3,18 9,26 9,9 18,17 28,22 -10,-5 -19,-13 -28,-22 -6,-8 -8,-16 -9,-26zm42 49c8,3 16,3 24,-2 1,-1 3,-2 4,-3 9,-6 20,-12 28,-30 -10,21 -22,26 -32,33 -8,5 -16,5 -24,2zm56 -35c6,-13 11,-33 14,-64 2,-22 4,-36 7,-46 -3,10 -5,24 -7,46 -3,31 -8,51 -14,64zm23 -113c1,-3 2,-6 3,-8 -1,2 -2,5 -3,8zm5 -10c0,-1 1,-1 2,-2 -1,1 -2,1 -2,2zm3 -3c1,-1 2,-1 3,-2 -1,1 -2,1 -3,2zm3 -2c2,-1 4,-2 7,-3l2 -1c-3,1 -6,2 -9,4zm10 -4c3,-1 5,-3 8,-5 14,-12 26,-20 28,-21 -2,1 -14,9 -28,21 -3,2 -5,4 -8,5zm36 -26l0 0 0 0 0 0 0 0 5 25c0,4 3,8 7,12 3,3 7,5 12,7 4,1 9,2 13,1 2,0 3,0 5,-1 -2,1 -3,1 -5,1l0 0c-1,1 -2,1 -4,1l0 0 -1 0 0 0 -1 0c0,0 -1,0 -2,-1l0 0c-1,0 -2,0 -3,-1 -11,-3 -20,-12 -21,-19l-5 -25 0 0zm42 44c2,-1 4,-3 6,-5 8,-9 16,-21 20,-34 3,-10 4,-21 1,-30 -3,-10 -9,-19 -17,-29 -8,-9 -19,-19 -32,-31 -14,-12 -25,-25 -31,-37 -3,-4 -5,-9 -6,-13 2,5 4,10 7,16l0 0c7,11 17,23 30,34 26,23 43,40 49,60 1,3 2,6 2,9l0 1 0 2 0 1c0,1 0,3 0,5l0 0 0 1 0 0c-1,3 -1,5 -2,7l0 1c-4,14 -12,27 -21,37 -2,2 -4,4 -6,5zm-60 -182c0,-1 0,-2 0,-3 0,1 0,2 0,3zm0 -3c-1,-1 -1,-3 -1,-4 0,1 0,3 1,4zm-1 -6c0,-3 0,-5 1,-7 1,-4 1,-6 2,-9 -1,3 -1,5 -2,9 -1,2 -1,4 -1,7zm3 -17l0 -1c1,-5 2,-9 4,-13 2,-5 7,-8 17,-13l0 0 1 0c1,-1 3,-1 5,-1 -2,0 -4,1 -6,1 -10,5 -15,8 -17,13m33 -16c1,0 3,0 4,0 -1,0 -3,0 -4,0zm9 0c3,0 6,0 8,1 -2,-1 -5,-1 -8,-1zm9 1c4,0 7,0 11,1 22,1 45,3 64,-4 19,-7 48,-24 71,-44 17,-13 32,-29 39,-43l0 -2 1 -1 0 0 0 -1 0 0 1 -1c1,-4 2,-7 3,-11l0 0c8,-23 14,-51 11,-70l0 0c0,-2 0,-3 -1,-4l0 0c-1,-5 -3,-9 -5,-13 5,7 7,18 7,31 -1,20 -8,46 -15,67l-1 1m9 -99c-2,-2 -3,-3 -5,-4 -11,-8 -27,-18 -40,-29 -14,-11 -25,-21 -26,-27l0 -2 0 2 0 0c4,13 44,41 66,56 2,1 3,2 5,4zm-70 -73c0,-1 0,-3 1,-4 1,-1 2,-2 3,-4 -1,2 -2,3 -3,4l0 0 0 1c-1,1 -1,2 -1,3zm9 -12c2,-1 5,-3 8,-4 15,-8 17,-8 18,-8 -2,-1 -29,-13 -37,-40l-1 -1 1 1c1,3 2,5 3,8 1,2 2,3 3,5l1 1c1,2 2,3 3,5l1 1 1 1 1 1c2,3 4,5 6,7 3,2 5,3 8,5 5,4 10,6 10,6 0,0 -2,-1 -18,8 -3,1 -6,3 -8,4zm-13 -58c-1,-2 -1,-4 -1,-6 0,2 0,4 1,6zm-2 -29l1 -1 0 -1 -1 2zm1 -3c3,-10 8,-19 15,-28 11,-11 16,-14 24,-18 4,-2 9,-4 15,-8 4,-3 9,-5 12,-7 11,-6 17,-10 20,-18 2,-6 3,-13 1,-19l0 0c1,2 1,4 1,6l0 1 0 1 0 1c0,1 0,2 -1,4l0 0 0 0 0 2 0 1 -1 3c-2,5 -4,8 -9,11l0 0c-3,3 -8,5 -14,9l0 0 -1 0 0 0 0 0 0 1 -1 0 -1 1 0 0 -6 3c-6,3 -10,6 -14,8l-2 1 0 0c-8,3 -13,6 -23,17 -7,9 -12,18 -15,28zm83 -104l0 0 -1 -1 0 0 0 0 -1 -1 0 0 -1 0 -1 -1 0 0 -2 -1 0 0 -1 0 0 0 -1 0 0 -1 -1 0 -1 0 -1 0 -2 -1 -2 0c-10,-1 -25,-6 -39,-14l0 0c-18,-10 -33,-24 -36,-44l0 0c-1,-2 -1,-4 -1,-7 0,-7 0,-13 1,-18 0,-3 0,-5 1,-7 -1,2 -1,4 -1,7 -1,5 -1,11 -1,18 0,17 9,30 21,40 17,15 41,23 55,25l2 0m-75 -97c0,-2 1,-3 1,-5 0,2 -1,3 -1,5zm2 -7c0,-2 1,-3 1,-4l1 -2c-1,2 -1,4 -2,6zm5 -11c4,-7 10,-14 18,-21 8,-8 15,-12 23,-15 -8,3 -15,7 -23,15 -8,7 -14,14 -18,21zm47 -37c5,-1 10,-2 15,-2 -5,0 -10,1 -15,2zm22 -2l0 0 3 0c16,0 24,-1 24,-1l-21 -24c0,0 -3,2 -8,4 5,-2 8,-4 8,-4l21 24 0 0 0 0 -1 0c-3,1 -11,1 -23,1l-3 0zm-3 -21c-16,7 -53,22 -73,15 -3,-1 -6,-2 -8,-3 -23,-10 -41,-27 -47,-44 -2,-6 -2,-12 -2,-17l0 0c-1,-8 0,-15 -4,-22 3,6 3,11 3,17 1,7 1,14 3,22 3,9 11,19 20,27 8,7 17,12 27,17 2,1 5,2 8,3 9,3 21,2 34,-1l0 0c15,-4 30,-10 39,-14zm-134 -72l0 -1 -1 -1 1 1 0 1zm-2 -3c-3,-5 -7,-8 -15,-8 -2,0 -4,0 -5,1 3,-1 6,-1 9,-1 0,1 1,1 2,1l1 0c4,1 6,4 8,7zm-22 -7c-8,2 -20,6 -36,14l-3 2c-8,4 -15,7 -23,11 -2,1 -4,2 -7,3 -3,1 -6,2 -9,3 -4,2 -7,3 -11,4l-2 1c-8,3 -16,5 -24,6 7,-1 14,-3 21,-5 8,-3 17,-6 25,-9 3,-1 5,-2 7,-3 8,-4 15,-7 23,-11l3 -2c5,-2 10,-5 14,-6 9,-4 16,-7 22,-8zm-118 45c-2,0 -5,1 -7,1 2,0 5,-1 7,-1zm-13 2c-5,0 -10,1 -15,1 -4,0 -8,1 -13,1 -22,0 -44,-9 -62,-24l-1 -1c-2,-1 -3,-3 -5,-4 -2,-2 -5,-5 -8,-8l0 -1 -3 -3 0 0c-4,-5 -7,-10 -10,-15l0 0c-2,-3 -4,-6 -5,-9l0 -1c-1,-1 -1,-2 -2,-4l0 0 0 -2 -1 0c0,-2 -1,-5 -2,-7l0 0 0 -2 0 -1 -1 -3 0 -1 -1 -4 0 -1 0 -1 0 -1 0 -1c-1,-4 -1,-8 -1,-11 0,-3 0,-5 0,-7 0,2 0,4 0,7 0,3 0,7 1,11 2,25 15,48 33,65 19,18 44,29 68,29 5,0 9,-1 13,-1 5,0 10,-1 15,-1zm-126 -137c1,-2 1,-4 2,-5 -1,1 -1,3 -2,5zm4 -10c0,-2 1,-4 2,-5l1 -3c1,-2 2,-5 4,-7 -2,2 -3,5 -4,7l-1 1 0 2c-1,1 -2,3 -2,5zm7 -16c2,-4 5,-7 7,-10 5,-7 10,-12 14,-17 10,-9 18,-15 26,-19l2 -1 3 -1 1 0c5,-3 9,-4 13,-5l1 -1c1,0 1,0 2,-1 0,0 0,0 0,-1m-62 46c5,-7 10,-12 14,-17 9,-8 17,-14 25,-18l1 -1m20 -8c2,0 2,-1 2,-2l0 0 0 -1c-2,-4 -15,-11 -22,-19l0 0c-3,-3 -5,-6 -6,-9 -1,-1 -1,-3 -1,-5 0,2 0,4 1,5 2,7 11,14 18,19 5,4 9,7 10,9m-29 -33c0,-1 0,-2 0,-3 0,1 0,2 0,3zm0 -12c1,-4 1,-8 2,-12 2,-15 5,-32 0,-45 0,-2 -1,-4 -2,-6 1,2 2,4 2,6 3,7 3,15 3,23l0 0 0 3 -1 1 0 1 0 4 0 0c-1,9 -3,18 -4,25zm-1 -65c0,-1 -1,-2 -2,-4 1,2 2,3 2,4zm-3 -5l-1 -2c-3,-3 -5,-6 -9,-8 -4,-2 -10,-4 -17,-4 7,0 13,2 17,4l1 1c3,1 6,4 8,7 1,1 1,1 1,2zm-33 -15l-2 0c-11,0 -23,1 -34,5 -12,4 -23,12 -36,25 -10,11 -22,21 -34,29 -2,1 -4,2 -6,3l-1 1 -3 1 -3 2 -1 0 -3 2 -3 1 -1 0c-3,1 -6,2 -8,3 2,-1 5,-2 8,-3m21 -10c-2,1 -4,2 -6,3m-39 13c-3,1 -6,1 -9,1l-3 0c-2,0 -3,0 -5,0l0 0 0 0 -1 0c-2,0 -3,-1 -5,-1l-1 0 -2 -1 -1 0 -2 -1 -1 0 -1 0 0 0c-26,-9 -43,-36 -47,-69 2,20 10,38 21,51 12,13 27,21 45,21 1,0 2,0 3,0 3,0 6,0 9,-1zm-78 -71l-1 -3 0 -4 0 4 1 3zm-2 -11c0,-5 -1,-9 -1,-13 0,4 1,8 1,13zm-2 -14c-2,-11 -5,-21 -10,-28 -1,-1 -2,-2 -2,-3 -4,-5 -8,-9 -13,-11 -3,-2 -6,-3 -9,-4 3,1 6,2 9,4 5,2 9,6 13,11 6,8 10,18 12,31zm-36 -47c-2,0 -5,-1 -8,-1 -15,-1 -28,2 -41,12 -11,8 -22,23 -33,44 23,-45 45,-58 74,-56 3,0 6,1 8,1zm-82 55l-3 6c-4,7 -7,13 -11,17 -8,9 -17,13 -26,14 -3,0 -5,0 -8,0 4,0 7,0 10,0l0 0c4,-1 7,-2 11,-4 1,0 1,0 2,-1l0 0c5,-3 10,-8 15,-14l0 -1 0 0 0 0 1 -1 0 -1 1 -1 1 -1 1 -1 0 -1 0 0 0 0 1 -1 0 -1 1 -1 0 -1 0 0 0 0 1 -1 3 -6zm-48 37c-2,0 -4,0 -6,-1 2,1 4,1 6,1zm-6 -1c-1,0 -3,-1 -4,-1 1,0 3,1 4,1zm-5 -1c-1,-1 -2,-1 -4,-2 2,1 3,1 4,2zm-4 -2c-2,-1 -3,-1 -5,-2l-2 -1c2,1 4,2 7,3zm-7 -3c-9,-5 -17,-11 -24,-17 -11,-10 -18,-17 -22,-22 -6,-6 -9,-9 -16,-11 -7,-1 -17,3 -28,9l-4 3c12,-8 25,-13 32,-12 13,3 11,9 38,33 7,6 15,12 24,17zm-94 -38c-10,7 -20,15 -27,23 -13,18 -41,11 -41,11 0,0 -25,-7 -31,-19 -1,-2 -2,-5 -3,-7 -2,-6 -5,-12 -8,-17 -4,-5 -10,-7 -18,0 -6,4 -10,9 -13,14 -3,5 -6,11 -7,18l-1 2c0,2 0,3 -1,5l0 4 0 1 0 3 0 1 0 2 -1 5 0 1 1 5c0,4 0,8 0,13 1,14 2,25 2,35l0 0 0 4 0 1 0 2 0 0 0 5 0 0c0,9 0,18 1,28l0 1c0,2 0,5 1,8l0 3 0 0c0,4 1,8 1,11 0,5 1,9 1,12 0,-4 -1,-8 -1,-14l-1 -3 0 0m5 -153c-3,4 -5,8 -6,13 -4,12 -4,26 -3,47 2,21 2,35 2,48 0,11 0,21 2,36l0 3m2 26c0,4 -1,8 -3,14 2,-6 3,-10 3,-14zm-3 14c-2,7 -5,14 -9,25l-1 2c-6,15 -8,20 -12,24 -2,2 -5,4 -8,7 -7,5 -18,13 -38,32 -18,16 -32,22 -44,22 -6,0 -10,-1 -15,-3 5,2 9,3 15,3 9,0 20,-3 33,-13l0 0c4,-3 7,-6 11,-9 41,-38 44,-32 51,-46l1 -2 1 -3 0 0 0 -1 1 -1 2 -6 0 0 3 -6c4,-11 7,-18 9,-25zm-127 109c-8,-3 -16,-9 -22,-16 -3,-4 -6,-7 -9,-11 -2,-2 -4,-5 -6,-7 -5,-5 -11,-16 -16,-27 -4,-6 -7,-13 -10,-19 -3,-4 -5,-8 -7,-11 2,3 4,7 7,11 3,7 7,13 10,20l0 0 1 1 0 0 1 2 0 1c5,9 10,17 14,22 9,10 20,27 37,34zm-71 -92c-8,-11 -16,-19 -26,-20 3,0 7,1 10,3 1,1 2,1 2,2l0 0c5,4 10,9 14,15zm-26 -20c-3,-1 -5,0 -8,0 -5,2 -10,4 -15,5 -13,3 -24,6 -33,13l0 0c-1,1 -2,1 -3,2 1,-1 2,-1 3,-2m-3 2c-4,3 -7,7 -10,12 3,-5 6,-9 10,-12zm-10 12l-1 0c-2,3 -4,7 -6,11 -7,17 -10,33 -10,48 1,6 2,12 4,18 -2,-6 -3,-13 -4,-20 0,-1 0,-3 0,-4l0 -1c0,-2 0,-3 1,-5l0 -1 0 -3 0 -2 1 -4 0 -1 1 -2 0 -3 1 -1 0 -2 1 -3 0 -1c1,-2 2,-4 3,-6l1 -4 1 -1 0 -2 2 -3c1,-2 2,-3 3,-5m-11 77c3,8 7,15 11,22 7,12 15,16 21,20 7,3 13,7 19,18 2,5 4,12 7,20l0 2 0 -2c-3,-8 -5,-15 -7,-20 -11,-21 -25,-15 -40,-38 -4,-7 -8,-14 -11,-22zm66 123c0,1 0,2 0,3 -1,4 -2,8 -4,10 0,1 -1,1 -1,2 -3,3 -7,6 -12,8 -10,6 -24,12 -35,18 6,-4 14,-7 21,-10 5,-3 10,-5 14,-8 6,-3 11,-6 13,-10m-48 28c-3,2 -5,3 -7,5 2,-2 4,-3 7,-5zm-8 5c-4,3 -7,6 -10,10 1,-1 2,-3 3,-4 2,-2 5,-4 7,-6zm-10 10c-1,3 -3,6 -3,9 0,-3 2,-6 3,-9zm-3 9l0 1c0,11 14,24 32,40 15,12 31,26 45,44 6,7 11,14 17,21 17,18 33,37 41,60 -11,-32 -37,-54 -58,-81 -31,-40 -77,-64 -77,-84l0 -1zm135 167c1,2 2,4 2,6 0,-2 -1,-4 -2,-6zm2 6c1,2 1,3 1,5 0,-2 0,-3 -1,-5zm1 5c2,6 3,13 3,20 0,-7 -1,-14 -3,-20zm3 20c0,7 0,13 0,20l-2 12 -1 17c1,-8 1,-18 3,-29 0,-7 0,-13 0,-20zm-3 50c-3,22 -5,37 -10,51 5,-14 7,-29 10,-51zm-10 51c-5,12 -12,24 -24,38 -15,18 -33,29 -54,34 -2,0 -4,0 -6,1 -2,0 -5,1 -7,1 2,0 5,-1 7,-1 8,-2 15,-4 22,-7l0 0c14,-6 27,-15 38,-28 12,-14 19,-26 24,-38zm-112 75c-3,0 -7,0 -10,0 3,0 7,0 10,0zm-16 0c-5,-1 -10,-1 -15,-2 -13,-2 -28,-5 -43,-9 -34,-7 -68,-14 -78,-6 13,-10 61,3 101,11 4,1 8,2 12,2 3,1 5,1 8,2 5,1 10,1 15,2zm-136 -17c-1,0 -2,1 -2,1 0,0 1,-1 2,-1zm-2 1l-1 1c-5,8 -4,15 0,22 3,5 7,10 12,15 3,2 5,4 8,6 16,15 36,24 46,41 3,5 6,11 10,17 2,6 5,12 7,18l1 3c-2,-7 -5,-14 -8,-21 -4,-6 -7,-12 -10,-17 -6,-11 -17,-19 -28,-27 -6,-4 -13,-9 -18,-14 -3,-2 -5,-4 -8,-6 -9,-9 -15,-17 -15,-26 0,-4 1,-7 3,-11l1 -1zm84 126c3,8 5,15 5,22l0 4 0 -4c0,-2 0,-4 -1,-7l0 0c-1,-4 -2,-10 -4,-15zm6 33c1,5 1,9 3,12 1,1 1,1 2,2 -1,-1 -2,-3 -3,-4l0 -1c-1,-2 -2,-5 -2,-9zm11 18c3,1 5,2 8,2 6,1 12,1 18,1 14,1 27,1 33,6l1 1c8,7 18,16 18,47l0 8 0 -8c0,-3 0,-5 0,-7l0 0c-1,-8 -2,-15 -4,-20l0 0c-4,-11 -10,-16 -15,-21 -3,-3 -9,-4 -16,-5l0 0c-2,0 -3,0 -5,0l-1 0 -1 0 -1 0 -1 0 -2 -1 -2 0 0 0 -2 0 -1 0c-6,0 -13,0 -19,-1 -3,0 -5,-1 -8,-2zm78 77c0,2 0,3 0,5 0,-2 0,-3 0,-5zm-1 9c0,1 0,3 -1,5 0,2 -1,3 -2,5 1,-1 1,-3 2,-5l0 0c1,-2 1,-4 1,-5zm-3 11c-3,6 -8,13 -15,22 -9,12 -20,18 -27,22 -8,5 -12,8 -12,12l1 1c0,1 0,2 0,3l0 -3 -1 -1c0,-2 1,-3 3,-5 5,-6 22,-11 36,-29 7,-9 12,-16 15,-22zm-52 62c1,4 3,8 6,12 5,8 13,17 27,28 2,1 4,3 6,4 7,6 13,9 19,12 -6,-3 -12,-7 -19,-12 -2,-1 -4,-3 -6,-4 -22,-18 -30,-31 -33,-40zm59 57c3,1 6,2 9,3 10,4 20,5 31,5 -10,0 -19,-1 -28,-4l-2 0m30 4l3 0c14,1 25,-1 37,-3 9,-2 19,-3 29,-4 1,0 2,0 3,0l-3 0c-6,0 -11,1 -15,2l0 0c-10,1 -20,3 -30,4l-1 0 -4 1 -1 0 -3 0 -1 0c-3,0 -7,1 -11,0l-3 0zm88 -4c2,1 4,1 6,2 10,5 16,11 19,16 3,5 6,14 6,25 0,2 0,4 -1,5l1 0c0,-2 0,-3 0,-5 0,-11 -3,-20 -6,-25 -3,-6 -12,-14 -25,-18zm30 49c-1,9 -4,19 -11,29 -8,12 -15,23 -20,33 5,-10 12,-21 20,-33 4,-5 6,-11 8,-16l0 0c1,-2 1,-4 2,-5l0 -1 0 0 0 0c1,-3 1,-5 1,-7zm-31 65l-1 1c-4,12 -5,25 1,40 5,15 14,27 26,35 12,8 26,12 42,11l3 0 -3 0c-5,0 -10,0 -14,-1l0 0c-2,0 -4,0 -5,-1l-1 0c-22,-5 -40,-21 -48,-44 -1,-2 -1,-3 -2,-5l0 -2 -1 -2 0 -2 0 -1c-1,-2 -1,-4 -1,-6l0 -1 0 -1 0 -1 0 -1 0 -3 0 -2 0 -1 0 -2c1,-1 1,-3 1,-4 1,-3 2,-5 3,-7zm75 86c2,0 5,0 8,-1 1,0 3,0 4,0 8,-2 15,-4 22,-7 12,-6 24,-15 39,-28 12,-11 25,-18 38,-20 1,0 3,-1 4,-1 -4,1 -8,2 -12,3 -10,3 -20,9 -30,18 -9,8 -17,14 -24,19l-4 2c-2,2 -4,3 -7,4l-2 2 0 0c-2,0 -3,1 -5,2l0 0c-2,1 -4,1 -6,2l-2 1 0 0c-4,1 -7,2 -11,3l-4 0c-3,1 -6,1 -8,1zm115 -57c3,0 6,0 9,0 -3,0 -6,0 -9,0zm10 0c2,0 4,0 5,0 -1,0 -3,0 -5,0zm7 0c1,0 3,0 4,0 -1,0 -3,0 -4,0zm5 1c6,1 12,2 17,4 12,5 21,12 26,20 3,4 5,8 7,13 0,1 0,2 1,3 -1,-1 -1,-2 -1,-3 -5,-14 -15,-26 -33,-33 -5,-2 -11,-3 -17,-4zm52 47c0,3 0,5 0,8 0,4 0,8 0,13 0,6 -1,12 -3,18l0 2c-2,8 -6,16 -13,22 -14,12 -35,35 -32,39 1,2 1,4 2,6 3,3 9,6 31,-1 4,-1 7,-2 10,-3 -3,0 -6,2 -10,3 -8,2 -13,4 -18,4l0 0c-1,0 -2,0 -3,0l0 0 -1 0 -1 0 -1 0c0,0 -1,0 -2,0l0 0 -1 -1 -1 0c0,0 -1,0 -1,-1l0 0 0 0 0 0 -1 0 0 0 0 0 0 0c0,-1 -1,-1 -1,-1 -1,-1 -1,-3 -1,-4 -1,0 -1,-1 -1,-2 -1,-2 2,-7 8,-14 7,-8 17,-18 24,-25 8,-7 12,-15 14,-25 1,-5 2,-11 2,-17 0,-5 0,-9 0,-13 0,-3 0,-5 0,-8zm-4 103c9,-2 17,-4 24,-5 15,-3 29,-6 46,-14 19,-9 26,-17 31,-23 3,-4 5,-7 10,-10 1,-1 3,-3 6,-5 3,-3 7,-6 11,-9 -7,5 -13,10 -17,14 -13,9 -11,19 -41,33 -19,9 -34,11 -50,15 -6,1 -13,2 -20,4zm130 -67c2,-1 5,-3 7,-4 -2,1 -5,3 -7,4zm9 -5c1,0 2,0 3,-1 -1,1 -2,1 -3,1zm4 -1c2,-1 4,-1 6,-2 -2,1 -4,1 -6,2zm559 -377c1,-5 1,-9 3,-13m52 -16c7,0 15,1 22,1l2 0 5 1 1 0c3,0 5,0 7,0l0 0 2 0 0 0 2 0 0 0 2 0c3,0 6,0 9,0l0 0c2,0 3,-1 5,-1l1 0c6,-1 11,-2 17,-4 6,-2 12,-5 20,-9l1 -1c8,-4 17,-9 25,-15l2 -1c2,-2 5,-3 7,-5l0 0c12,-8 23,-17 32,-26 9,-10 17,-19 21,-28l1 0m20 -383l-1 -1m-419 -379c2,-4 5,-7 7,-10m59 -43l0 0 1 -1m-64 -133l-2 0c-2,0 -3,0 -5,0l-3 0 0 0 -2 0 -2 0 -1 0 -1 0 -2 1 -1 0 -1 0 -1 0 -3 1 -1 0 -1 0 -2 0 -1 1 -1 0 -1 0 -1 1 -1 0 -1 0c-3,1 -6,2 -9,4 -9,4 -19,11 -29,22 -2,2 -4,4 -6,6 -7,7 -15,14 -23,19l0 0c-2,1 -4,3 -5,4m-409 -80c-10,7 -20,15 -27,23 -7,10 -19,12 -28,12 -7,0 -13,-1 -13,-1l0 0c0,0 -1,0 -3,-1l-1 0 -1 -1 0 0c-4,-1 -9,-3 -13,-6l0 0c-4,-2 -7,-4 -9,-6l-1 -1 -1 -1 0 0 -1 -1 0 -1 -1 -1c-4,-9 -8,-27 -18,-28l0 0c-1,0 -2,0 -2,0l0 0c-3,0 -6,1 -9,4 -6,4 -10,9 -13,14m-230 184c-1,-1 -2,-1 -3,0l-1 0c-1,0 -1,0 -2,0l-1 0 -1 0c-3,1 -6,2 -8,3l-1 0 0 0 -1 0 0 0c-14,4 -26,7 -36,14l0 0m38 218l0 1 0 0 0 1 0 0c0,1 0,2 0,3l0 0 -1 1 0 0c0,1 0,2 0,3l0 0 -1 1 0 0 0 1 -1 1 0 0m-26 804c2,1 5,2 7,3m811 -1159c4,-3 8,-5 12,-8m164 79l-1 0 -2 1 -3 1 -1 0 -3 1m158 1139l0 0"/>
  </g>
  <path class="fil3 str2" d="M1741 5869l844 -489c85,148 130,317 130,489 0,540 -436,978 -974,978 -538,0 -975,-438 -975,-978 0,-540 437,-978 975,-978l0 978z"/>
  <path class="fil4 str3" d="M1741 5135l-22 16 -17 12c0,0 0,0 -17,0 -17,0 -47,-30 -51,-34 -4,-4 -13,-25 -25,-25 -13,0 -30,12 -43,25 -12,13 -17,17 -33,25 -17,9 -5,9 -22,9 -17,0 -55,-51 -76,-34 -21,17 -29,51 -25,64 4,12 -4,50 0,76 4,25 12,21 12,34 0,12 -16,63 -25,72 -8,8 -30,29 -47,38 -16,8 -16,8 -29,8 -13,0 -55,-25 -68,-46 -13,-22 -38,-61 -51,-68 -12,-8 -24,-7 -29,-4l-9 4c-1,0 -43,18 -46,59 -4,41 -5,55 -5,55l0 59c8,8 47,46 47,51 0,4 0,17 -4,21 -4,5 -31,24 -43,34 -11,10 -21,30 -20,37 1,8 -1,18 16,39 17,22 64,72 76,85 13,13 30,38 34,51 11,32 1,88 -17,114 -17,26 -46,51 -67,59 -22,9 -56,3 -77,0 -21,-2 -64,-12 -76,-12 -11,0 -34,8 -34,25 0,17 26,43 47,55 21,13 51,43 55,68 4,25 -1,35 4,42 5,7 41,-3 64,9 22,12 29,17 34,29 4,13 -30,115 -39,123 -8,9 5,30 13,38 9,9 21,21 55,26 34,4 76,4 93,12 17,9 34,34 30,56 -5,22 -11,53 -13,76 -2,22 13,63 59,63 47,0 56,-30 89,-46 34,-17 67,-15 85,0 18,14 30,28 25,59 -4,31 -25,42 -38,55 -12,13 -12,17 -8,21 4,4 17,7 30,6 14,-1 28,-11 56,-19 28,-8 45,-8 62,-25 17,-17 42,-30 59,-30 17,0 47,7 60,28 12,21 21,44 29,53 9,8 21,-5 26,-9 4,-4 14,-20 17,-46 2,-27 -6,-96 -9,-117 -4,-20 -13,-61 13,-103 25,-43 71,-48 93,-47 22,1 85,21 106,42 21,21 42,68 46,98 5,29 5,63 21,76 17,13 39,13 56,4 16,-8 29,-17 33,-42 5,-26 1,-65 5,-85 3,-20 17,-42 33,-46 17,-5 39,25 64,25 25,0 30,-25 34,-47 4,-21 -17,-55 -30,-67 -12,-13 -59,-60 -63,-77 -5,-17 1,-26 4,-29 3,-3 17,-17 30,-17 12,0 50,0 63,0 13,0 55,0 72,-9 17,-8 46,-29 59,-46 13,-17 41,-72 43,-106 1,-34 -25,-55 -38,-72 -14,-17 -48,-48 -52,-83 -4,-35 1,-65 26,-86 26,-21 58,-26 68,-43 10,-16 -6,-44 -26,-50 -19,-7 -48,-29 -57,-40 -8,-12 -9,-46 2,-58 23,-24 49,-42 83,-42 12,0 28,0 28,-9 0,-8 -13,-29 -17,-33 -5,-5 -13,-26 -17,-43 -5,-17 -5,-29 -5,-34 0,-4 -6,-11 -4,-11l-766 474 1 -770z"/>
  <line class="fil5 str4" x1="-3173" y1="-3792" x2="-2860" y2= "-3490" />
  <line class="fil5 str5" x1="-3017" y1="-3514" x2="-2720" y2= "-3218" />
  <path class="fil5 str4" d="M-3063 -3205c14,0 25,12 25,26 0,14 -11,25 -25,25 -14,0 -26,-11 -26,-25 0,-14 12,-26 26,-26z"/>
  <circle class="fil5 str5" cx="-2517" cy="-3734" r="35"/>
  <path class="fil5 str6" d="M-2640 -3459c0,21 0,34 0,34"/>
  <line class="fil5 str6" x1="-2623" y1="-3442" x2="-2657" y2= "-3442" />
  <polyline class="fil5 str7" points="-2111,-3529 -2111,-3522 -2111,-3516 -2111,-3522 -2117,-3522 -2104,-3522 "/>
  <polyline class="fil5 str6" points="-2119,-3759 -2085,-3721 -2047,-3759 -2009,-3721 -1975,-3759 -1942,-3721 -1903,-3759 -1865,-3721 -1831,-3759 -1798,-3721 -1759,-3759 -1721,-3721 -1688,-3759 -1654,-3721 -1616,-3759 -1577,-3721 -1544,-3759 "/>
  <polyline class="fil5 str6" points="-1662,-3844 -1616,-3810 -1573,-3844 -1527,-3810 -1480,-3844 -1438,-3810 -1391,-3844 -1345,-3810 -1298,-3844 "/>
  <ellipse class="fil4 str3" cx="-2424" cy="-3290" rx="138" ry="135"/>
  <line class="fil5 str6" x1="-2585" y1="10201" x2="-2585" y2= "10167" />
  <line class="fil5 str6" x1="-2602" y1="10184" x2="-2568" y2= "10184" />
  <path class="fil5 str4" d="M-1861 9718c0,-4 0,-51 0,-51"/>
  <line class="fil5 str4" x1="-1887" y1="9693" x2="-1836" y2= "9693" />
  <line class="fil5 str4" x1="-2903" y1="9616" x2="-2903" y2= "9566" />
  <line class="fil5 str4" x1="-2928" y1="9591" x2="-2877" y2= "9591" />
  <line class="fil5 str8" x1="-2754" y1="9849" x2="-2754" y2= "9748" />
  <line class="fil5 str8" x1="-2805" y1="9798" x2="-2704" y2= "9798" />
  <circle class="fil5 str4" cx="-2992" cy="10040" r="25"/>
  <line class="fil5 str4" x1="-2344" y1="9523" x2="-2886" y2= "10285" />
  <polyline class="fil5 str6" points="-1963,10040 -1959,10095 -1899,10099 -1895,10158 -1832,10163 -1832,10222 -1768,10226 -1768,10285 -1717,10294 "/>
  <polygon class="fil4 str3" points="-2798,9261 -2717,9327 -2636,9394 -2572,9314 -2508,9235 -2589,9169 -2670,9103 -2734,9182 "/>
  <polygon class="fil6 str9" points="-2235,10225 -2259,10156 -2282,10086 -2205,10106 -2127,10126 -2181,10176 "/>
  <polygon class="fil6 str9" points="-2455,10029 -2478,9959 -2502,9889 -2424,9910 -2347,9930 -2401,9979 "/>
  <polygon class="fil6 str9" points="-2345,10127 -2369,10058 -2392,9988 -2314,10008 -2237,10028 -2291,10078 "/>
  <line class="fil5 str4" x1="7745" y1="9996" x2="7432" y2= "9694" />
  <line class="fil5 str5" x1="7589" y1="9718" x2="7292" y2= "9422" />
  <path class="fil5 str4" d="M7635 9409c-14,0 -25,-11 -25,-25 0,-15 11,-26 25,-26 14,0 26,11 26,26 0,14 -12,25 -26,25z"/>
  <circle class="fil5 str5" cx="7089" cy="9938" r="35"/>
  <path class="fil5 str6" d="M7212 9663c0,-21 0,-34 0,-34"/>
  <line class="fil5 str6" x1="7195" y1="9646" x2="7229" y2= "9646" />
  <polyline class="fil5 str7" points="6683,9733 6683,9726 6683,9720 6683,9726 6689,9726 6676,9726 "/>
  <polyline class="fil5 str6" points="6691,9963 6657,9925 6619,9963 6581,9925 6547,9963 6513,9925 6475,9963 6437,9925 6403,9963 6369,9925 6331,9963 6293,9925 6259,9963 6226,9925 6187,9963 6149,9925 6115,9963 "/>
  <polyline class="fil5 str6" points="6234,10048 6187,10014 6145,10048 6099,10014 6052,10048 6010,10014 5963,10048 5916,10014 5870,10048 "/>
  <ellipse class="fil4 str3" cx="6996" cy="9494" rx="138" ry="135"/>
  <line class="fil5 str4" x1="-2778" y1="1224" x2="-3261" y2= "1705" />
  <line class="fil5 str4" x1="-2334" y1="975" x2="-2816" y2= "1456" />
  <ellipse class="fil5 str4" cx="-2279" cy="1516" rx="30" ry="31"/>
  <path class="fil7 str10" d="M1741 5120c-3,7 -7,14 -13,21 -6,7 -16,12 -22,15 -5,3 -17,5 -27,0 -11,-5 -28,-18 -38,-27 -10,-8 -19,-30 -31,-30 -13,0 -30,12 -43,25 -13,13 -20,22 -31,28 -11,6 -30,5 -36,2 -5,-4 -43,-47 -64,-30 -21,17 -30,51 -25,63 4,13 -5,51 0,77 4,25 12,21 12,34 0,12 -7,45 -20,63 -12,17 -34,36 -45,44 -11,9 -24,11 -36,11 -13,0 -55,-25 -68,-47 -13,-21 -38,-60 -51,-67 -13,-8 -24,-7 -30,-4l-14 7c-4,1 -37,15 -41,56 -3,41 -4,55 -4,55l0 59c0,0 9,9 17,17 9,9 30,30 30,34 0,4 0,17 -4,21 -5,5 -31,24 -43,34 -12,10 -21,30 -20,37 1,8 -1,18 16,39 17,22 63,72 76,85 13,13 30,38 34,51 4,13 4,29 4,38 0,8 -4,51 -21,76 -17,26 -46,51 -68,59 -21,9 -55,3 -76,0 -21,-2 -64,-12 -76,-12 -12,0 -34,8 -34,25 0,17 26,42 47,55 21,13 50,42 55,68 4,25 -1,35 4,42 5,7 34,3 54,8 20,4 39,18 43,30 5,13 -34,110 -38,123 -3,13 4,30 13,38 8,9 21,21 55,26 34,4 76,4 93,12 17,9 34,34 29,56 -4,22 -10,53 -12,75 -2,23 13,64 59,64 47,0 55,-30 89,-47 34,-17 67,-14 85,0 18,15 30,29 25,60 -5,31 -25,42 -38,55 -13,12 -13,17 -8,21 4,4 17,7 30,6 14,-1 26,-18 54,-26 28,-8 46,4 63,-13 17,-17 44,-42 62,-43 17,0 44,20 57,36 14,16 22,44 30,53 8,8 21,-5 25,-9 5,-4 15,-20 17,-46 3,-27 -5,-97 -8,-117 -4,-20 -13,-61 13,-104 25,-42 70,-47 93,-46 22,1 84,21 106,42 21,21 42,68 46,98 4,29 4,63 21,76 17,12 38,12 55,4 17,-8 30,-17 34,-42 4,-26 1,-65 4,-85 4,-20 17,-42 34,-47 17,-4 38,26 64,26 25,0 32,-28 34,-47 1,-18 -17,-55 -30,-67 -13,-13 -59,-60 -63,-77 -5,-17 1,-27 4,-29 3,-3 17,-17 29,-17 13,0 51,0 64,0 13,0 55,0 72,-9 17,-8 46,-30 59,-46 13,-17 41,-72 42,-106 2,-34 -24,-55 -38,-72 -13,-17 -48,-48 -51,-83 -4,-35 1,-65 26,-86 25,-22 58,-27 68,-43 10,-16 -7,-44 -26,-51 -19,-6 -48,-28 -57,-39 -8,-12 -9,-46 2,-58 12,-12 22,-23 39,-31 17,-9 31,-11 44,-11 12,0 27,0 27,-9 0,-8 -12,-29 -17,-34 -4,-4 -12,-25 -17,-42 -4,-17 -4,-30 -4,-34 0,-4 6,-8 9,-8l8 0 12 -6 1 39 8 34 19 28c6,9 11,19 11,28 0,8 -12,17 -17,21 -5,3 -39,11 -55,17 -17,6 -30,12 -34,21 -4,8 -5,20 0,29 4,9 34,13 47,17 12,5 27,20 32,29 6,9 18,35 18,52 0,17 -8,34 -16,42 -9,9 -43,26 -52,30 -8,4 -20,12 -20,25 0,13 21,21 33,26 13,4 30,16 34,29 5,13 5,26 -4,34 -8,9 -18,14 -30,17 -12,3 -21,8 -8,13 13,4 28,25 32,34 3,9 15,55 6,80 -8,25 -34,59 -46,76 -13,17 -68,68 -94,72 -25,4 -72,-9 -84,-8 -11,0 -34,1 -38,4 -5,3 -13,10 -13,18 0,8 4,16 17,28 13,13 29,30 42,43 13,13 28,37 34,51 6,14 10,23 9,42 -2,19 -16,45 -30,55 -14,10 -42,15 -53,13 -11,-1 -28,-13 -36,-9 -8,4 -9,24 -9,33 0,8 1,48 -4,65 -4,17 -21,50 -59,67 -38,17 -93,0 -110,-17 -17,-17 -27,-58 -25,-84 2,-26 0,-39 -19,-62 -18,-22 -41,-30 -58,-36 -16,-5 -40,-3 -57,1 -18,4 -27,29 -26,44 1,16 20,72 20,87 0,15 0,46 -4,72 -5,25 -17,55 -30,76 -13,21 -42,46 -59,46 -17,0 -34,0 -55,-25 -21,-25 -19,-30 -26,-42 -6,-13 -8,-26 -17,-26 -8,0 -28,25 -61,43 -32,18 -42,22 -89,35 -47,13 -68,11 -86,3 -19,-9 -31,-34 -35,-47 -3,-13 -8,-34   5,-55 12,-21 21,-21 34,-34 12,-13 21,-21 8,-21 -13,0 -26,9 -47,25 -20,17 -44,40 -80,38 -37,-1 -55,-4 -72,-12 -17,-9 -38,-21 -51,-38 -12,-17 -17,-38 -17,-68 0,-30 5,-52 11,-59 6,-6 19,-30 19,-38 0,-9 -18,-8 -32,-4 -15,4 -27,8 -57,8 -30,0 -80,-26 -89,-55 -8,-30 -29,-82 -17,-99 13,-17 28,-27 38,-37 10,-9 21,-17 17,-25 -4,-9 -12,-9 -19,-10 -6,-1 -28,-6 -38,-6 -11,0 -27,-5 -36,-14 -8,-8 -14,-17 -13,-29 1,-12 5,-34 5,-51 0,-17 -13,-30 -22,-34 -8,-4 -29,-8 -46,-17 -17,-8 -34,-38 -34,-63 0,-26 8,-47 25,-55 17,-9 51,-26 77,-13 25,13 39,18 61,21 21,3 53,4 66,-4 12,-9 27,-30 33,-43 7,-13 22,-42 22,-67 0,-26 -6,-34 -17,-47 -11,-12 -55,-63 -72,-76 -17,-13 -40,-50 -47,-68 -7,-17 -3,-42 4,-55 8,-13 13,-21 26,-29 13,-9 17,-9 21,-13 4,-4 -13,-13 -20,-16 -8,-3 -31,-22 -35,-39 -4,-17 -19,-57 -15,-90 4,-34 28,-73 40,-92 13,-19 45,-42 63,-49 19,-6 57,-12 77,-6 20,5 30,17 47,34 17,17 21,29 33,50 13,22 13,22 22,22 8,0 21,-5 29,-22 9,-17 26,-93 17,-127 -8,-33 0,-46 0,-59 0,-13 17,-51 38,-63 21,-13 60,-26 72,-17 13,8 17,12 26,29 8,17 0,26 12,21 13,-4 29,-13 34,-18 6,-6 20,-19 33,-25 13,-7 27,-7 35,-3 8,4 25,21 34,34 8,12 13,29 25,34 13,4 24,3 34,-5 10,-7 11,-15 17,-21 5,-5 13,-8 13,-8l0 17z"/>
  <path class="fil8" d="M380 6310c-6,-30 -6,-56 0,-77 6,-21 14,-39 24,-53 12,-17 25,-31 42,-42l3 -2c1,0 2,-1 4,-2 1,-2 3,-3 5,-4 7,-4 16,-9 27,-13 12,-5 24,-7 37,-7 14,-1 27,3 40,9 14,7 26,20 36,38 10,16 14,30 14,43 0,13 -3,25 -8,36 -6,11 -14,20 -23,29 -10,8 -20,15 -29,20 -6,4 -10,6 -13,8 -4,2 -8,5 -15,7 -6,3 -15,8 -28,13 -12,6 -31,14 -56,25l3 5c3,5 10,14 19,24 9,11 22,21 37,28 16,8 35,11 57,10 23,0 49,-9 79,-27 19,-11 34,-24 44,-37 10,-14 17,-27 22,-41 4,-14 6,-28 5,-40 0,-13 -2,-25 -4,-35 -2,-11 -5,-19 -7,-25 -3,-6 -4,-10 -5,-10 -2,-5 -4,-9 -6,-13 -2,-4 -5,-8 -7,-12 -15,-25 -34,-55 -57,-88 -23,-33 -47,-69 -72,-110 -19,-32 -33,-61 -42,-86 -10,-25 -16,-46 -20,-63 -3,-17 -4,-30 -4,-39 1,-9 1,-13 2,-14 2,-13 6,-26 12,-39 7,-13 17,-24 32,-33 8,-5 17,-8 26,-11 10,-2 21,-2 31,0 9,2 19,6 30,12 11,6 21,17 30,32 10,18 17,34 19,48 3,14 3,26 0,36 -3,10 -8,19 -14,25 -7,7 -14,13 -21,17 -4,2 -8,4 -11,6 -4,2 -6,2 -7,0 0,0 0,-1 0,-3 0,-1 1,-1 1,-2 6,-10 9,-20 10,-31 1,-11 1,-21 0,-31 -2,-10 -4,-20 -7,-31 -1,-4 -3,-8 -4,-12 -2,-4 -4,-8 -7,-12 -4,-7 -9,-12 -15,-16 -7,-4 -14,-4 -21,0 -8,5 -12,14 -13,27 0,14 2,30 7,49 5,19 12,40 22,63 10,23 22,46 36,69 10,18 24,40 42,67 17,26 39,57 65,92 2,3 4,5 6,8 3,3 5,6 8,10 3,4 6,8 9,14 6,10 13,23 20,39 7,15 13,32 19,52 5,26 5,53 0,79 -4,23 -14,47 -30,72 -15,26 -41,49 -76,70 -28,17 -54,28 -77,33 -24,6 -45,7 -64,5 -20,-2 -37,-7 -53,-14 -15,-8 -29,-16 -40,-26 -11,-10 -21,-21 -28,-31 -8,-9 -14,-18 -18,-25l-5 -9c-1,-2 -2,-3 -2,-5 -29,14 -58,28 -88,43 -29,14 -57,30 -84,45 -22,14 -42,27 -60,40 -19,13 -33,26 -45,40 -12,13 -19,26 -23,38 -3,13 -2,25 6,37 1,2 2,5 3,7 2,2 4,4 6,6 -2,1 -2,2 1,3 3,1 7,3 11,4 5,2 9,3 13,5 4,1 7,3 7,5 1,1 0,3 -3,5 -6,3 -13,6 -23,8 -9,3 -20,4 -31,3 -11,-1 -21,-5 -32,-10 -10,-6 -19,-15 -27,-28 -10,-17 -14,-34 -14,-52 1,-18 6,-37 16,-55 9,-18 23,-35 41,-52 18,-18 40,-34 65,-49 33,-19 71,-35 113,-49 42,-14 86,-28 132,-43zm120 -42c10,-3 18,-7 25,-12 12,-7 21,-14 27,-22 5,-8 9,-15 10,-22 3,-7 3,-15 2,-23 -2,-3 -3,-6 -6,-10 -5,-10 -12,-16 -19,-20 -8,-4 -15,-5 -23,-5 -7,0 -14,1 -21,4 -6,2 -12,5 -16,7 -6,4 -11,8 -15,12 -5,4 -8,7 -11,10 -4,5 -7,8 -10,11 -6,13 -11,26 -14,37 -2,12 -4,22 -4,31 -1,11 -1,20 1,29 13,-4 25,-9 38,-13 12,-4 24,-9 35,-14l1 0z"/>
  <path id="1" class="fil8" d="M907 6195c-11,8 -22,11 -31,10 -9,-1 -17,-4 -24,-9 -8,-5 -15,-12 -22,-21 -16,-26 -29,-55 -38,-87 -8,-32 -15,-63 -20,-92 -5,-34 -8,-68 -9,-102 -1,-21 -1,-46 -1,-74 1,-28 4,-56 9,-82 5,-26 13,-50 23,-71 11,-21 25,-36 43,-44 7,-2 15,-3 22,-3 6,1 12,3 20,6 7,3 14,9 21,19 1,2 2,4 1,4 0,0 0,0 -1,1l-1 1 -1 0c-4,0 -10,2 -18,6 -7,4 -14,14 -21,31 -7,17 -12,42 -16,74 -3,33 -4,78 -1,134 1,29 4,57 8,86 4,25 8,52 13,80 5,29 12,55 21,80 2,4 4,8 6,11 1,2 3,4 5,6 3,1 5,1 8,-2 11,-6 20,-19 27,-39 7,-19 12,-42 16,-68 3,-27 5,-56 4,-86 -1,-30 -4,-60 -9,-88 0,-2 1,-5 1,-8 1,-4 4,-6 8,-8 1,-1 3,-1 5,-1 3,1 5,4 6,9 10,61 13,111 12,150 -2,39 -6,71 -13,96 -7,24 -15,42 -26,54 -10,12 -19,21 -27,27z"/>
  <path id="2" class="fil8" d="M1099 5773c1,0 2,-1 4,0 3,1 5,4 6,9 11,66 15,120 13,161 -2,41 -8,73 -17,98 -9,24 -19,41 -30,51 -11,10 -21,17 -28,21 -17,9 -32,11 -43,7 -12,-4 -21,-12 -29,-24 -7,-13 -13,-29 -17,-48 -5,-19 -8,-40 -10,-61 -2,-22 -4,-44 -5,-67 -1,-22 -3,-43 -4,-62 -1,-9 -2,-18 -4,-24 -2,-7 -4,-12 -5,-17 -1,-2 -2,-4 -2,-7 -1,-3 -1,-6 0,-9 0,-2 2,-5 4,-7 3,-2 7,-4 13,-4 16,-1 29,2 39,11 10,8 18,19 23,33 6,14 10,30 12,48 2,17 3,35 4,52 1,18 1,34 1,50 0,15 1,28 2,37 2,15 4,26 6,33 3,7 5,12 8,15 2,4 5,5 8,4 12,-5 21,-17 29,-36 8,-19 13,-42 17,-69 4,-27 5,-57 5,-88 -1,-32 -4,-62 -9,-91 0,-2 0,-5 1,-8 1,-4 4,-6 8,-8zm-121 -20c-11,9 -21,9 -30,0 -8,-8 -15,-17 -20,-26 -5,-7 -8,-15 -11,-24 -3,-8 -1,-16 4,-24 5,-7 12,-14 21,-20 9,-6 18,-10 27,-13 9,-2 18,-3 25,-1 8,2 12,8 13,16 1,10 1,19 -1,28 -2,10 -4,19 -7,28 -4,9 -7,17 -11,24 -3,6 -7,10 -10,12z"/>
  <path id="3" class="fil8" d="M1218 5638c11,1 21,5 31,12 11,6 19,17 25,33 4,8 5,16 4,22 -2,7 -4,13 -7,19 -3,5 -7,10 -11,14 -4,4 -8,6 -10,8l-1 0c-2,1 -2,1 -3,1 0,-1 -1,-2 -1,-2 -1,-4 -2,-8 -3,-15 -2,-6 -3,-12 -5,-19 -3,-15 -7,-25 -11,-32 -4,-8 -8,-12 -11,-15 -3,-3 -7,-4 -11,-3 -2,2 -4,3 -6,5 -2,2 -4,4 -7,6 -2,3 -5,7 -7,12 -10,17 -16,41 -20,71 -3,29 -3,59 2,89 5,29 13,54 22,74 3,9 8,16 14,24 6,7 12,12 19,16 6,4 14,6 23,5 8,0 18,-4 28,-10 14,-9 26,-20 34,-34 9,-13 16,-27 21,-40 5,-15 9,-30 13,-47 2,-15 4,-31 5,-50 1,-18 2,-36 3,-55 0,-18 0,-35 0,-51 0,-16 -1,-29 -1,-40 0,-1 1,-4 3,-8 1,-3 4,-6 8,-7 2,0 3,0 5,0 2,1 4,4 5,10 2,50 3,92 1,126 -1,34 -3,61 -7,83 -2,19 -7,37 -15,54 -6,15 -16,31 -27,48 -12,16 -29,31 -49,44 -16,9 -30,14 -43,16 -12,2 -23,2 -33,1 -10,-1 -20,-4 -28,-9 -18,-10 -33,-25 -46,-46 -13,-21 -22,-43 -27,-65 -5,-18 -7,-38 -8,-59 0,-22 3,-43 9,-64 6,-20 14,-40 26,-58 11,-19 27,-35 46,-48 5,-3 10,-6 16,-9 6,-3 11,-4 17,-6 6,-1 12,-2 18,-1z"/>
  <path id="4" class="fil8" d="M1529 5834c-16,10 -31,15 -44,17 -13,2 -24,3 -33,2 -11,-2 -21,-5 -30,-9 -18,-10 -33,-26 -46,-47 -13,-21 -22,-42 -27,-64 -5,-19 -7,-39 -7,-60 0,-21 2,-42 8,-63 6,-21 14,-40 26,-59 11,-18 27,-34 46,-47 15,-11 28,-17 42,-20 11,-2 23,0 35,5 12,6 22,20 30,43 4,12 6,24 7,36 0,11 0,22 -1,35 -1,12 -5,25 -11,38 -6,13 -13,25 -22,35 -8,11 -16,21 -25,30 -8,8 -17,16 -24,22 -8,7 -14,11 -20,14 6,16 12,29 20,39 7,10 14,18 21,23 6,4 12,6 20,7 6,0 14,0 23,-3 9,-3 19,-9 29,-19 8,-7 14,-16 21,-27 5,-8 11,-20 16,-33 6,-14 9,-29 12,-47 2,-15 4,-32 5,-50 1,-19 2,-37 3,-55 1,-18 1,-35 0,-51 0,-17 0,-30 -1,-40 0,-2 1,-4 2,-8 2,-3 5,-6 9,-7 2,0 3,0 5,0 2,1 4,4 5,10 2,50 3,92 1,126 -1,33 -4,61 -7,83 -3,19 -8,37 -15,54 -6,15 -15,31 -27,47 -11,16 -27,31 -46,43zm-108 -140c1,4 2,9 3,15 2,6 3,11 4,15 22,-23 38,-45 47,-67 9,-21 15,-39 17,-56 2,-16 1,-30 -2,-41 -3,-11 -5,-18 -6,-22l-1 -2c-4,-8 -7,-14 -11,-18 -3,-2 -5,-4 -6,-5l-1 -1c-1,-1 -3,-1 -6,-1l-4 3c-4,2 -8,6 -11,10 -2,5 -4,8 -4,10 -10,18 -17,41 -21,71 -4,29 -3,59 2,89z"/>
  <path class="fil8" d="M2194 6144c-5,2 -12,3 -20,4 -8,1 -15,2 -22,3 -8,1 -16,1 -25,1 -17,1 -31,-2 -40,-10 -9,-9 -15,-18 -20,-28 -4,-13 -7,-27 -7,-42 0,-4 0,-10 1,-17 1,-8 3,-15 6,-24 4,-8 9,-16 16,-25 6,-9 16,-18 27,-26 19,-12 34,-19 47,-22 14,-2 25,-1 34,2 9,3 16,8 21,15 4,7 8,14 9,20 3,13 4,25 2,36 -1,10 -5,20 -12,31 -6,10 -18,19 -35,26 -3,2 -5,2 -7,1 -1,-1 -2,-2 -3,-3 -1,-1 -1,-3 -1,-5 2,-7 3,-15 4,-26 0,-11 1,-21 0,-31 0,-10 -1,-19 -4,-26 -3,-7 -7,-11 -14,-11 -8,0 -14,5 -19,15 -6,9 -9,21 -12,33 -2,13 -2,26 -2,39 1,13 4,23 8,30 3,6 7,10 12,12 5,3 10,5 16,5 6,0 11,0 17,-1 6,-1 12,-2 18,-4 47,-9 77,-3 89,18 4,7 6,16 7,28 2,11 0,25 -4,40 -3,15 -11,31 -22,48 -11,17 -27,34 -48,51 -18,13 -34,21 -46,25 -13,4 -23,6 -32,6 -8,-1 -15,-3 -20,-7 -5,-3 -8,-7 -10,-10 -2,-3 -2,-7 0,-11 2,-3 7,-5 13,-6 4,0 11,-4 22,-12 11,-8 22,-19 34,-32 11,-14 21,-29 28,-47 8,-17 11,-35 9,-54 -1,-2 -1,-4 -3,-6 -2,-4 -6,-5 -12,-3z"/>
  <path id="1" class="fil8" d="M2395 6181c1,1 1,1 0,3 0,1 0,1 -1,2 -8,5 -15,8 -21,8 -7,0 -13,-1 -18,-4 -6,-2 -12,-5 -17,-9 -7,-5 -13,-12 -19,-21 -6,-9 -11,-19 -16,-31 -4,-12 -9,-24 -12,-37 -4,-14 -8,-27 -11,-40 -7,-31 -13,-63 -17,-99 -5,-49 -7,-95 -5,-137 2,-18 3,-35 6,-53 2,-18 6,-35 11,-50 6,-15 12,-28 20,-40 8,-11 18,-19 30,-24 6,-3 13,-4 20,-3 6,0 12,2 19,5 7,3 14,9 20,18 1,2 2,3 1,4 0,0 -1,1 -1,0 -1,0 -1,0 -2,1 -4,0 -10,2 -17,6 -8,5 -14,15 -21,33 -6,18 -11,44 -14,79 -2,35 -1,83 3,144 0,5 0,10 1,16 0,5 1,11 2,19 1,7 2,15 3,23 1,-16 2,-34 5,-53 2,-19 5,-36 9,-53 5,-17 10,-31 18,-45 7,-13 16,-23 27,-29 7,-4 13,-6 18,-7 8,-1 16,-1 23,1 7,2 13,5 20,10 7,6 14,15 19,26 5,13 9,28 11,44 2,16 4,33 4,49 1,16 1,31 1,45 0,15 1,26 2,35 1,14 3,24 5,31 2,6 5,11 7,14 2,3 5,4 8,3 10,-4 19,-15 26,-33 8,-18 13,-39 17,-64 3,-25 4,-52 4,-81 -1,-29 -4,-57 -9,-84 0,-2 1,-5 2,-8 1,-3 3,-5 7,-7 1,-1 2,-1 4,0 3,0 5,3 6,8 10,61 14,111 11,149 -2,38 -7,68 -16,90 -8,22 -17,38 -27,48 -11,9 -19,15 -26,19 -14,7 -26,9 -36,7 -10,-1 -19,-7 -26,-16 -7,-9 -12,-21 -16,-35 -4,-14 -7,-30 -10,-47 -2,-17 -4,-35 -5,-54 -1,-18 -3,-36 -4,-54l0 0c-1,-19 -2,-32 -4,-41 -2,-8 -4,-14 -7,-18 -3,-4 -7,-5 -10,-4 -4,1 -9,7 -13,17 -4,11 -7,24 -10,42 -4,17 -6,37 -8,58 -2,22 -3,44 -3,66 0,23 1,44 3,66 2,21 5,40 9,56 1,5 3,10 5,15 2,4 4,9 6,13 3,4 6,6 9,8z"/>
  <path id="2" class="fil8" d="M2556 5865c-5,-30 -4,-58 2,-85 2,-12 6,-23 10,-35 5,-11 11,-22 19,-33 8,-10 18,-20 30,-29 12,-9 26,-16 43,-22 16,-6 30,-7 41,-5 12,3 22,7 30,15 8,7 15,16 21,26 5,10 10,20 13,30 19,-16 32,-32 40,-48 9,-16 14,-28 17,-36 0,-1 2,-3 3,-5 1,-3 4,-5 7,-7 3,-2 6,-2 7,-1 1,2 1,4 1,7 -5,19 -13,39 -24,60 -11,22 -25,42 -42,60 1,3 1,5 2,7 0,2 0,4 0,5 1,2 1,3 1,5 7,43 7,79 1,106 -6,28 -14,51 -25,67 -12,19 -27,34 -45,44 -19,10 -37,14 -53,13 -17,-2 -32,-9 -45,-20 -13,-12 -24,-27 -34,-48 -9,-20 -16,-44 -20,-71zm172 -112c-9,-30 -20,-50 -33,-60 -13,-11 -24,-13 -35,-8 -10,6 -17,15 -21,28 -3,13 -2,26 5,40 4,8 9,13 16,15 7,3 14,3 21,2 8,0 17,-3 26,-7 7,-2 14,-6 21,-10zm15 76c-1,-7 -2,-14 -3,-21 -1,-7 -2,-13 -4,-19 -12,8 -24,14 -37,19 -11,4 -21,6 -30,7 -9,0 -17,-1 -24,-3 -7,-2 -13,-5 -18,-9 -4,-4 -8,-8 -11,-12 0,10 1,22 2,35 1,14 3,28 5,42 3,15 6,29 10,43 4,14 9,26 14,36 5,11 12,18 20,24 7,5 16,6 26,3 5,-2 11,-6 17,-12 7,-6 13,-14 19,-25 6,-12 10,-26 13,-44 3,-17 4,-39 1,-64z"/>
  <path id="3" class="fil8" d="M3089 5758c-5,8 -11,14 -19,18 -7,4 -13,7 -19,8 -16,5 -30,4 -40,-1 -11,-5 -19,-11 -26,-19 -4,22 -10,42 -19,59 -9,17 -21,29 -37,35 -15,7 -29,10 -42,8 -11,-1 -22,-6 -32,-16 -11,-9 -18,-27 -22,-52 -4,-25 -8,-53 -9,-83 -2,-30 -4,-57 -6,-81 0,-9 -1,-16 -3,-23 -2,-6 -4,-11 -5,-15 -1,-2 -2,-4 -3,-6 0,-3 0,-6 1,-8 0,-3 2,-6 4,-8 2,-2 5,-3 10,-3 15,-1 27,2 36,9 9,7 16,17 22,29 5,12 9,26 12,41 2,15 3,31 4,47 0,15 0,31 0,45 0,14 1,26 2,35 0,11 1,20 3,28 2,7 4,13 8,19 3,6 8,9 15,9 9,-3 16,-11 21,-22 5,-12 8,-26 11,-42 2,-16 3,-33 3,-52 0,-19 0,-37 -1,-56 -2,-18 -4,-37 -5,-55 -1,-19 -2,-37 -3,-53 -1,-9 -2,-16 -4,-22 -2,-6 -4,-12 -5,-16 -1,-1 -2,-4 -2,-6 0,-3 0,-6 0,-8 1,-3 2,-5 4,-7 3,-2 7,-4 12,-4 14,-1 26,2 35,10 9,7 17,16 22,29 5,12 9,27 11,42 3,16 4,32 5,48 1,16 1,31 1,45 -1,14 0,26 1,36 0,10 1,18 3,26 2,6 4,12 7,18 3,6 7,9 13,10 2,-1 5,-1 8,-3 3,-1 6,-4 9,-8 5,-10 9,-21 12,-34 3,-13 5,-27 7,-40 2,-14 4,-29 4,-44 1,-14 2,-29 2,-43 0,-32 -1,-66 -3,-101 -2,-25 -6,-45 -11,-61 -6,-16 -13,-24 -22,-24 -10,0 -17,4 -23,13 -6,8 -11,16 -14,24 0,2 0,4 -2,5 -1,4 -4,5 -7,4 -2,-1 -4,-4 -6,-11 0,-3 -1,-6 -1,-9 -2,-16 1,-32 8,-48 7,-16 20,-27 40,-33 11,-4 21,-4 28,-1 7,3 14,6 18,11 6,5 11,12 14,20 10,21 17,47 19,75 3,29 3,58 1,86 -1,30 -4,60 -8,89 -3,24 -8,49 -14,74 -6,26 -14,47 -23,63z"/>
  <polygon class="fil9 str11" points="1833,4590 1833,5687 2790,5136 "/>
  <polygon class="fil9 str11" points="1370,5323 1445,5279 1520,5235 1476,5160 1432,5086 1357,5129 1283,5173 1327,5248 "/>
  <rect class="fil9 str11" transform="matrix(0.838726 -0.544554 0.544554 0.838726 1402.15 6310.73)" width="76.2" height="237.06"/>
  <rect class="fil9 str11" transform="matrix(0.838726 -0.544554 0.544554 0.838726 1533.38 6226.07)" width="76.2" height="237.06"/>
  <circle class="fil5 str12" cx="1253" cy="6432" r="51"/>
  <polygon class="fil10 str13" points="794,6480 764,6446 3088,5070 3105,5083 "/>
  <circle class="fil5 str12" cx="1731" cy="6135" r="51"/>
  <circle class="fil5 str12" cx="1935" cy="6474" r="51"/>
  <circle class="fil5 str12" cx="1177" cy="5433" r="51"/>
  <polyline class="fil5 str14" points="6780,-673 6746,-712 6780,-758 6746,-805 6780,-847 6746,-894 6780,-940 6746,-982 6780,-1029 "/>
  <polyline class="fil5 str6" points="6695,-910 6661,-949 6695,-982 6661,-1016 6695,-1054 6661,-1093 6695,-1126 6661,-1160 6695,-1198 6661,-1236 6695,-1270 6661,-1304 6695,-1342 6661,-1380 6695,-1414 6661,-1448 6695,-1486 "/>
  <line class="fil5 str6" x1="6456" y1="-1490" x2="6456" y2= "-1473" />
  <line class="fil5 str6" x1="6448" y1="-1481" x2="6464" y2= "-1481" />
  <circle class="fil5 str8" cx="6670" cy="-1880" r="34"/>
  <path class="fil5 str6" d="M6377 -2024c0,9 0,34 0,34"/>
  <line class="fil5 str6" x1="6394" y1="-2007" x2="6360" y2= "-2007" />
  <line class="fil5 str6" x1="6301" y1="-3713" x2="6301" y2= "-3679" />
  <line class="fil5 str6" x1="6318" y1="-3696" x2="6284" y2= "-3696" />
  <path class="fil5 str4" d="M5577 -3230c0,4 0,50 0,50"/>
  <line class="fil5 str4" x1="5603" y1="-3205" x2="5552" y2= "-3205" />
  <line class="fil5 str4" x1="6619" y1="-3129" x2="6619" y2= "-3078" />
  <line class="fil5 str4" x1="6644" y1="-3103" x2="6593" y2= "-3103" />
  <line class="fil5 str8" x1="6471" y1="-3362" x2="6471" y2= "-3260" />
  <line class="fil5 str8" x1="6521" y1="-3311" x2="6420" y2= "-3311" />
  <circle class="fil5 str4" cx="6113" cy="-2428" r="25"/>
  <circle class="fil5 str4" cx="6708" cy="-3552" r="25"/>
  <path class="fil5 str4" d="M6449 -2384c-173,174 -296,297 -296,297"/>
  <line class="fil5 str4" x1="6432" y1="-2240" x2="6729" y2= "-2536" />
  <line class="fil5 str4" x1="6060" y1="-3036" x2="6602" y2= "-3798" />
  <polyline class="fil5 str6" points="5679,-3552 5675,-3607 5615,-3611 5611,-3671 5548,-3675 5548,-3734 5484,-3738 5484,-3798 5433,-3806 "/>
  <polygon class="fil4 str3" points="6514,-2773 6433,-2840 6352,-2906 6288,-2827 6224,-2748 6305,-2681 6386,-2615 6450,-2694 "/>
  <circle class="fil4 str3" cx="6225" cy="-1791" r="135"/>
  <polygon class="fil6 str9" points="5952,-3738 5975,-3668 5998,-3598 5921,-3618 5843,-3638 5898,-3688 "/>
  <polygon class="fil6 str9" points="6171,-3541 6194,-3472 6218,-3402 6140,-3422 6063,-3442 6117,-3492 "/>
  <polygon class="fil6 str9" points="6061,-3640 6085,-3570 6108,-3500 6031,-3520 5953,-3540 6007,-3590 "/>
  <g style="clip-path:url(#id0)">
   <image x="5330" y="211" width="2387" height="2305" xlink:href="SliceShow_full_Images\SliceShow_full_ImgID1.png"/>
  </g>
  <polygon class="fil9 str11" points="912,729 987,685 1061,642 1018,567 974,492 899,536 824,580 868,655 "/>
  <rect class="fil9 str11" transform="matrix(0.838726 -0.544554 0.544554 0.838726 940.689 1707.24)" width="76.2" height="237.06"/>
  <rect class="fil9 str11" transform="matrix(0.838726 -0.544554 0.544554 0.838726 1071.92 1622.58)" width="76.2" height="237.06"/>
  <circle class="fil5 str12" cx="1666" cy="1833" r="51"/>
  <circle class="fil5 str12" cx="1020" cy="1129" r="54"/>
  <circle class="fil5 str12" cx="1869" cy="1025" r="53"/>
  <circle class="fil5 str12" cx="718" cy="827" r="51"/>
  <circle class="fil10 str15" cx="602" cy="1421" r="65"/>
  <path class="fil5 str16" d="M1647 987c0,22 0,34 0,34"/>
  <line class="fil5 str16" x1="1664" y1="1004" x2="1630" y2= "1004" />
  <path class="fil5 str16" d="M1327 389c0,30 0,48 0,48"/>
  <line class="fil5 str16" x1="1348" y1="413" x2="1305" y2= "413" />
  <path class="fil5 str17" d="M1477 573c0,61 0,98 0,98"/>
  <line class="fil5 str17" x1="1523" y1="622" x2="1432" y2= "622" />
  <circle class="fil5 str18" cx="1236" cy="859" r="24"/>
  <circle class="fil10 str18" cx="1645" cy="1467" r="20"/>
  <circle class="fil10 str18" cx="1454" cy="1882" r="14"/>
  <circle class="fil10 str18" cx="1645" cy="1467" r="20"/>
  <circle class="fil10 str18" cx="1324" cy="1365" r="25"/>
  <circle class="fil10 str18" cx="1894" cy="689" r="42"/>
  <circle class="fil11 str19" cx="1759" cy="1293" r="104"/>
 </g>
</svg>
